<svg id="Layer_1" data-name="Layer 1" xmlns="http://www.w3.org/2000/svg" xmlns:xlink="http://www.w3.org/1999/xlink" viewBox="0 0 2048 1536"><defs><style>.cls-1,.cls-10,.cls-17,.cls-18,.cls-19,.cls-20,.cls-24,.cls-25,.cls-3,.cls-5,.cls-6,.cls-8{fill:none;}.cls-2{fill:#8de5ed;}.cls-25,.cls-3,.cls-5,.cls-7,.cls-9{stroke:#00b0b9;}.cls-3,.cls-9{stroke-linecap:round;stroke-linejoin:round;}.cls-17,.cls-24,.cls-25,.cls-3,.cls-5,.cls-6,.cls-7,.cls-8,.cls-9{stroke-width:3px;}.cls-4,.cls-7,.cls-9{fill:#00b0b9;}.cls-10,.cls-17,.cls-18,.cls-19,.cls-20,.cls-24,.cls-25,.cls-5,.cls-6,.cls-7,.cls-8{stroke-miterlimit:10;}.cls-6{stroke:#b2d1ff;}.cls-10,.cls-17,.cls-8{stroke:#8de5ed;}.cls-10{stroke-width:4.5px;}.cls-11{fill:#fff;}.cls-12{fill:#e6e7e8;}.cls-13{clip-path:url(#clip-path);}.cls-14{fill:#f89e7a;}.cls-15{fill:#df7b6d;}.cls-16{fill:#02465a;}.cls-17{stroke-dasharray:9.27 9.27;}.cls-18,.cls-20,.cls-24{stroke:#02465a;}.cls-19{stroke:#ecf6ff;stroke-width:2.79px;}.cls-20{stroke-width:4px;}.cls-21{fill:#f1f2f2;}.cls-22{fill:#00939b;}.cls-23{clip-path:url(#clip-path-2);}.cls-25{stroke-dasharray:8 12;}</style><clipPath id="clip-path"><path class="cls-1" d="M829.34,532.33l-1.24,276.4H577.36V532.33A125.91,125.91,0,0,1,637.31,425,94.76,94.76,0,0,0,808,462.1,125.47,125.47,0,0,1,829.34,532.33Z"/></clipPath><clipPath id="clip-path-2"><path class="cls-1" d="M1308.8,639.91a60.41,60.41,0,0,1,33-53.84V502.93h133.25l38.81,265.26a108.89,108.89,0,0,1,31.58,151.5l48.33,220.39h-252V693.75A60.41,60.41,0,0,1,1308.8,639.91Z"/></clipPath></defs><title>medium</title><rect class="cls-2" width="2048" height="1536"/><path class="cls-3" d="M213.56,1097.25q-2.24-5.8-4.18-12.64-2.2-7.68-4-16.62c-2.51-12.09-4.57-25.89-6.18-41.28-6.72-64.09-81.49-129.46-62.9-131.34,12.34-1.25,28.65,7.36,57,47.08,6.57,9.19,13.78,20,21.73,32.83a292.71,292.71,0,0,1,22.7,45"/><path class="cls-3" d="M257,988.63a209.74,209.74,0,0,0-4-31.55,303.14,303.14,0,0,0-17.7-56.61c-26.72-64.26-73.13-124.86-108.9-142-20.71-9.91,47.48,39.56,60.13,124.22,3.85,25.74,5.58,44.71,6.76,59.74"/><path class="cls-3" d="M235.26,900.47c10.4-61.73,38.14-159.9,74.66-186.68,46-33.76-9.09,66.36-12.85,178.13"/><line class="cls-3" x1="292.02" y1="951.1" x2="292.02" y2="951.09"/><path class="cls-3" d="M269,1097.25q0-6.32.4-12.64c.38-6.84,1-13.68,1.85-20.44.56-4.63,1.23-9.22,2-13.76,9.69-59.43,32.71-110.12,33.16-111.12"/><path class="cls-3" d="M222.19,1097.25a116,116,0,0,1-.5-12.64,136.07,136.07,0,0,1,1.68-19.39,160.48,160.48,0,0,1,14.31-44.92c12.65-26.18,34.09-54.26,68.67-81h0"/><path class="cls-3" d="M279.71,810.31c-27.58,71.21-22.82,176.05-22.82,176.05s-1.16-32.84,26.53-75.56c4-6.22,8.65-12.53,13.65-18.88,3.84-4.88,7.9-9.79,12.08-14.7,17.13-20.11,36.27-40.26,50.48-58.89,8.82-11.55,15.75-22.52,19.12-32.53"/><path class="cls-3" d="M378.76,785.79h0c-.9.59-54.58,36.2-69.6,91.42"/><path class="cls-3" d="M297,940.79c-1.43,5.05-2.58,7.65-3.4,9-1,1.62-1.53,1.34-1.53,1.34"/><path class="cls-3" d="M293.55,949.76s15.58-47.66,85.21-164"/><path class="cls-3" d="M296.56,963.65s7.84,21.61,11.63,53.17"/><path class="cls-3" d="M279.71,1078.36h0a118.91,118.91,0,0,1-6.52-27.94"/><path class="cls-3" d="M453.53,884.29c-3.76,22.05-13.21,39.23-28.2,53.81-15.63,15.2-37.26,27.58-64.75,39.73C394.32,918.82,453.53,884.29,453.53,884.29Z"/><path class="cls-3" d="M274.61,1097.25c.93-3.9,2-8.14,3.28-12.64q.86-3.06,1.82-6.25h0c1.28-4.22,2.71-8.61,4.3-13.08,11.36-32,30.91-68.35,63.1-81.68q7-2.88,13.47-5.76"/><path class="cls-3" d="M310.8,1097.25a76.66,76.66,0,0,0,7.77-12.64c1.55-3.1,3-6.41,4.45-9.95.87-2.11,1.71-4.31,2.56-6.58"/><path class="cls-3" d="M425.33,938.1c-20.64,22.28-82.82,91.1-99.75,130,6.28-16.9,12.51-38.35,23.11-65.51a185.55,185.55,0,0,1,11.89-24.74C388.07,965.68,409.7,953.3,425.33,938.1Z"/><path class="cls-3" d="M432.05,930.93s-2.49,2.61-6.72,7.17"/><rect class="cls-4" x="174.51" y="1097.25" width="157.96" height="159.92"/><path class="cls-3" d="M275.58,1064.48c-1.44-.12-2.9-.22-4.37-.31"/><path class="cls-3" d="M292,1097.25c4.23-20.25,12.4-44.16,28-63.81"/><path class="cls-3" d="M253.49,1033.44s-10,23-10.58,63.81"/><path class="cls-3" d="M205,999.16s13.32,18.46,22.51,47.67"/><path class="cls-3" d="M209.18,893.13s18,51.27,28.5,127.17"/><path class="cls-3" d="M1827.37,1050.26h0c-3.3-.22-6.68-.43-10.13-.61"/><path class="cls-3" d="M1769,1039.06c-.71-.34-1.44-.73-2.2-1.16-.43-.24-.87-.5-1.31-.77-12.74-7.79-21-16-26.23-23.8h0c-10.3-15.51-8.42-29.62-4.75-36.46,1.75-3.25,3.44-6.27,4.88-8.8,2.48-4.34,4.25-7.28,4.46-7.64,0,0,0,0,0,0l0,0a13.24,13.24,0,0,0,2.63,1.48c1.55.79,4,2,7.88,3.79,2.3,1.08,5.1,2.37,8.51,3.92s6.74,5,9.83,9.56c9.18,13.62,16,37.32,13.94,51.17"/><path class="cls-3" d="M1838.63,1029.07a.25.25,0,0,0,0,.07l0,0,0,0c-5.42,7.19-12.51,13.2-20.36,16"/><path class="cls-3" d="M1791.64,1029.33c-1.3-11.18,0-24.41,12.95-32.72.77-.49,1.58-1,2.43-1.42l1.24-.66c14.24-7.61,22.58-11.84,26.23-13.67"/><path class="cls-3" d="M1834.49,980.86l2.2-1.09a40.74,40.74,0,0,1,6,7c3.9,5.64,7.82,14.21,5.21,23.8a56.28,56.28,0,0,1-9.27,18.55h0"/><path class="cls-3" d="M1839.88,974.73c11.42-10.58,26.88-13.16,26.88-13.16,2.4,20.32-5.21,41.46-14,54.58"/><path class="cls-3" d="M1804.59,996.61a21.9,21.9,0,0,1,1.33-7.48h0a46.18,46.18,0,0,1,7.5-13c5.95-7.65,9.72-12.2,12.12-14.91h0c4-4.57,4.1-3.87,4.1-3.87a62.32,62.32,0,0,1,10.24,17.45,44.09,44.09,0,0,1,2.81,12"/><path class="cls-3" d="M1881.3,1030.5c3.08-5.52,3.15-10.34,3.72-13.68,1.19-6.92,10.29-16,10.29-16-17.94.32-32.61,8-42.54,15.32a83.37,83.37,0,0,0-14.11,12.91h0l-.1.13,0,0"/><path class="cls-3" d="M1812.82,1060.93c17-14.24,45.3-30.66,76.75-30.85,0,0-14.17,42.72-46.74,40.74"/><path class="cls-3" d="M1736.06,1011.26h0c-.69-.72-1.36-1.47-2-2.26a47,47,0,0,1-5.47-8.16c-7.44-14.06-8-26.07-6.89-34.33a36.6,36.6,0,0,1,3.53-12s5.22,2.61,14.17,13.55"/><path class="cls-3" d="M1702.7,993.73c-11.43-22.81-8.56-39.22-8.56-39.22a216.89,216.89,0,0,1,27.53,12"/><path class="cls-3" d="M1764.77,1055.19c-3,1.28-7.31,2-13.07,2.18-1.09,0-2.17,0-3.23,0a50.49,50.49,0,0,1-22.45-5.61h0l-1.34-.74c-10.45-6-18-15.84-22.38-28.27h0a87.86,87.86,0,0,1-4.58-30.65,45,45,0,0,1,5,1.64c6,2.22,17.17,7.18,33.35,17.52h0c1,.67,2.1,1.35,3.18,2.06h0"/><path class="cls-3" d="M1702.29,1022.74h0c-29.13-8.43-40.71,1.33-40.71,1.33s2.7,12.12,17.44,24.37a85.07,85.07,0,0,0,17.24,11,38,38,0,0,0,12.93,3.73"/><path class="cls-3" d="M1679,1048.44a37.21,37.21,0,0,0-10.19-.5,51.62,51.62,0,0,0,5.78,11.2c12.08,17.46,30.25,16.29,35.84,10.34"/><path class="cls-3" d="M1726,1051.75h0c-11.54-.41-16.62,5-16.83,11.39a14.78,14.78,0,0,0,1.26,6.34,20.9,20.9,0,0,0,7.44,8.92c25.85,17.8,88,5.94,38-17.78-2.58-1.23-5-2.31-7.39-3.26"/><path class="cls-3" d="M1778.93,1078.8c-3.43-.79,22.42-17.64,50.25-15.48C1829.18,1063.32,1834.85,1091.69,1778.93,1078.8Z"/><path class="cls-3" d="M1787.77,1030.08c34.35-7.71,38.37,19.88,18.46,33.05s-29.93,14.26-39.16-2.51S1771,1033.84,1787.77,1030.08Z"/><path class="cls-3" d="M1772.68,979.17c2.38-4.71,5.08-9.42,7.39-13.25,1-1.7,2-3.23,2.78-4.51,1.62-2.58,2.68-4.17,2.68-4.17s3.94,2.12,10.49,12.74h0a163.29,163.29,0,0,1,9.9,19.13h0q1.14,2.57,2.34,5.4"/><path class="cls-3" d="M1796,970h0a23.56,23.56,0,0,1,8.57-7.09,58.87,58.87,0,0,0,16.15-10.82s2.22,4.06,4.8,9.08h0"/><path class="cls-3" d="M1754.34,965.69c2.46-6.43,6-15.46,6-15.46a189.71,189.71,0,0,1,19.73,15.69"/><path class="cls-3" d="M1746.46,961.9a58.6,58.6,0,0,1,14.28-18.66s9.65,3.79,22.11,18.17"/><polyline class="cls-4" points="1668.82 1166.22 1668.82 1070.89 1889.57 1070.89 1889.57 1166.22"/><path class="cls-4" d="M1889.57,1166.22a110.26,110.26,0,0,1-47.82,91H1716.64a110.26,110.26,0,0,1-47.82-91Z"/><line class="cls-5" x1="1145.07" y1="1257.17" x2="1108.41" y2="1257.17"/><line class="cls-5" x1="1308.06" y1="1257.17" x2="1210.89" y2="1257.17"/><polyline class="cls-5" points="1517.16 1257.17 1716.64 1257.17 1841.75 1257.17 1942.19 1257.17"/><polyline class="cls-5" points="122.47 1257.17 174.51 1257.17 332.47 1257.17 526.71 1257.17"/><line class="cls-5" x1="1062.49" y1="1257.17" x2="834.3" y2="1257.17"/><line class="cls-5" x1="491.32" y1="1308.68" x2="332.47" y2="1308.68"/><line class="cls-5" x1="1345.84" y1="1308.68" x2="1069.48" y2="1308.68"/><line class="cls-5" x1="1889.57" y1="1308.68" x2="1547.92" y2="1308.68"/><line class="cls-5" x1="1031.51" y1="1308.68" x2="1001.44" y2="1308.68"/><line class="cls-5" x1="536.21" y1="1417.87" x2="332.47" y2="1417.87"/><line class="cls-5" x1="1162.44" y1="1417.87" x2="1108.41" y2="1417.87"/><line class="cls-5" x1="1889.57" y1="1417.87" x2="1557.09" y2="1417.87"/><line class="cls-6" x1="1078.66" y1="1417.87" x2="955.55" y2="1417.87"/><line class="cls-6" x1="931.81" y1="1361.37" x2="902.37" y2="1361.37"/><line class="cls-5" x1="567.07" y1="1361.37" x2="174.51" y2="1361.37"/><line class="cls-5" x1="1261.6" y1="1361.37" x2="1024" y2="1361.37"/><line class="cls-3" x1="1743.81" y1="245.33" x2="1689.58" y2="134.57"/><path class="cls-3" d="M1733.25,155.61c-20.67-21.66-59.33-53-59.33-53s.59,27.67,2.73,54c1.52,18.7,3.82,36.72,7.25,43.73a34,34,0,0,0,64.35-18.89"/><line class="cls-3" x1="1719.67" y1="196.04" x2="1730.35" y2="152.64"/><line class="cls-3" x1="1707.67" y1="171.53" x2="1676.65" y2="156.61"/><line class="cls-3" x1="1825.47" y1="128.44" x2="1782.8" y2="245.33"/><path class="cls-3" d="M1772.44,186.78a34,34,0,0,0,65.59,6.47c1.61-4.43,2.39-12.81,2.66-22.89.8-30.11-3-75.36-3-75.36s-19.55,19.59-37.06,39.39l-2.22,2.51"/><line class="cls-3" x1="1802" y1="192.74" x2="1840.69" y2="170.36"/><line class="cls-3" x1="1811.36" y1="167.1" x2="1800.62" y2="134.39"/><line class="cls-3" x1="1771.33" y1="96.75" x2="1759.77" y2="245.33"/><path class="cls-3" d="M1801.1,155.67a34,34,0,1,1-67.86-5c1.38-18.73,40.71-89.42,40.71-89.42S1802.48,136.93,1801.1,155.67Z"/><line class="cls-3" x1="1766.29" y1="165.01" x2="1797.42" y2="132.92"/><line class="cls-3" x1="1768.3" y1="137.78" x2="1749.05" y2="109.25"/><rect class="cls-4" x="1723.02" y="245.33" width="76.75" height="115.18"/><rect class="cls-3" x="1374.02" y="360.51" width="515.55" height="29.7"/><path class="cls-3" d="M1854.74,390.21a89.2,89.2,0,0,1,14.36-29.7"/><path class="cls-3" d="M1817,360.51c8,10.64,12.82,20.4,14,29.7"/><path class="cls-3" d="M1788.69,360.51c15.38,8.07,23.36,16.87,19.63,29.7"/><path class="cls-3" d="M1748.44,360.51c6.23,7.74,9.67,17.44,9.51,29.7"/><path class="cls-3" d="M1585.92,390.21c15.76-9.25,34.32-14.66,59.17-11.48a73,73,0,0,1,31.17,11.48"/><path class="cls-3" d="M1670.3,360.51c12.43,6.79,25.1,16.49,38,29.7"/><path class="cls-3" d="M1516.74,390.21c15.66-10.94,32.23-21.69,49.6-29.7"/><path class="cls-3" d="M1726.87,360.51c9.28,6.58,15.21,15.4,17.18,29.7"/><path class="cls-3" d="M1474.88,390.21a472.34,472.34,0,0,1,43-29.7"/><path class="cls-3" d="M1432.22,390.21c23.28-5.87,36.35-17.3,51.34-29.7"/><path class="cls-3" d="M1377.14,360.51c21.6,18.24,50.44,26.66,73.54,0"/><path class="cls-3" d="M1407.36,360.51c6.82,8.46,14.45,11,25,0"/><rect class="cls-7" x="1889.57" y="360.51" width="64.88" height="29.7"/><line class="cls-8" x1="1656.56" y1="1109" x2="1895.31" y2="1109"/><line class="cls-8" x1="1656.56" y1="1124.19" x2="1895.31" y2="1124.19"/><line class="cls-8" x1="1656.56" y1="1140.08" x2="1895.31" y2="1140.08"/><line class="cls-8" x1="1713.13" y1="267.18" x2="1811.36" y2="267.18"/><line class="cls-8" x1="159.87" y1="1131.14" x2="347.11" y2="1131.14"/><line class="cls-8" x1="159.87" y1="1146.33" x2="347.11" y2="1146.33"/><rect class="cls-5" x="1537.8" y="161.01" width="38.58" height="199.5"/><rect class="cls-5" x="1498.57" y="161.01" width="38.58" height="199.5"/><rect class="cls-5" x="1460.7" y="161.01" width="38.58" height="199.5"/><rect class="cls-5" x="1460.7" y="302.96" width="37.87" height="8.7"/><rect class="cls-5" x="1537.8" y="302.96" width="38.58" height="8.7"/><rect class="cls-5" x="1596.92" y="159.19" width="38.58" height="199.5" transform="translate(-18.22 347.32) rotate(-12.2)"/><rect class="cls-5" x="1606.76" y="300.08" width="38.58" height="8.7" transform="translate(-27.61 350.42) rotate(-12.2)"/><circle class="cls-5" cx="1517.86" cy="307.1" r="10.01"/><circle class="cls-3" cx="332.47" cy="400.38" r="21.66"/><circle class="cls-9" cx="443.41" cy="400.38" r="21.66"/><circle class="cls-2" cx="443.41" cy="400.38" r="8.95"/><circle class="cls-3" cx="554.34" cy="400.38" r="21.66"/><circle class="cls-3" cx="665.28" cy="400.38" r="21.66"/><circle class="cls-3" cx="776.22" cy="400.38" r="21.66"/><line class="cls-5" x1="421.75" y1="400.39" x2="354.13" y2="400.39"/><line class="cls-5" x1="643.62" y1="400.39" x2="576" y2="400.39"/><line class="cls-5" x1="900.62" y1="400.39" x2="797.87" y2="400.39"/><line class="cls-5" x1="754.56" y1="400.39" x2="686.94" y2="400.39"/><line class="cls-5" x1="532.69" y1="400.39" x2="465.06" y2="400.39"/><line class="cls-5" x1="310.81" y1="400.39" x2="208.06" y2="400.39"/><rect class="cls-9" x="284.6" y="164.69" width="158.81" height="108.79"/><line class="cls-3" x1="443.41" y1="384.64" x2="443.41" y2="273.48"/><rect class="cls-5" x="297.91" y="499.23" width="193.41" height="161.52"/><rect class="cls-5" x="312.79" y="519.8" width="29.76" height="29.76"/><rect class="cls-5" x="312.79" y="609.81" width="29.76" height="29.76"/><rect class="cls-5" x="312.79" y="564.37" width="29.76" height="29.76"/><rect class="cls-5" x="357.42" y="519.8" width="29.76" height="29.76"/><rect class="cls-5" x="357.42" y="609.81" width="29.76" height="29.76"/><rect class="cls-7" x="357.42" y="564.37" width="29.76" height="29.76"/><rect class="cls-5" x="402.06" y="519.8" width="29.76" height="29.76"/><rect class="cls-5" x="402.06" y="609.81" width="29.76" height="29.76"/><rect class="cls-5" x="402.06" y="564.37" width="29.76" height="29.76"/><rect class="cls-5" x="446.69" y="519.8" width="29.76" height="29.76"/><rect class="cls-5" x="446.69" y="609.81" width="29.76" height="29.76"/><rect class="cls-5" x="446.69" y="564.37" width="29.76" height="29.76"/><rect class="cls-5" x="869.9" y="867.78" width="585.09" height="32.7"/><rect class="cls-7" x="1454.99" y="867.78" width="153.16" height="32.7"/><rect class="cls-5" x="937.52" y="900.47" width="603" height="54.04"/><rect class="cls-7" x="1431.07" y="900.47" width="109.46" height="54.04"/><rect class="cls-4" x="1431.07" y="954.51" width="10" height="302.66"/><rect class="cls-4" x="1530.52" y="954.51" width="10" height="302.66"/><rect class="cls-4" x="937.52" y="954.51" width="10" height="302.66"/><rect class="cls-4" x="1036.98" y="954.51" width="10" height="302.66"/><rect class="cls-7" x="1046.98" y="852.25" width="202.9" height="15.52"/><rect class="cls-5" x="1016.47" y="852.25" width="30.51" height="15.52"/><polygon class="cls-5" points="1205.97 852.25 1016.47 852.25 984.82 764.82 1174.32 764.82 1205.97 852.25"/><polygon class="cls-5" points="1205.97 852.25 1031.51 852.25 999.86 764.82 1174.32 764.82 1205.97 852.25"/><line class="cls-10" x1="303.61" y1="219.09" x2="422.82" y2="219.09"/><line class="cls-10" x1="303.61" y1="197.73" x2="422.82" y2="197.73"/><line class="cls-10" x1="303.61" y1="240.45" x2="422.82" y2="240.45"/><circle class="cls-5" cx="394.62" cy="475.52" r="3.72"/><line class="cls-5" x1="387.18" y1="499.23" x2="390.9" y2="475.52"/><line class="cls-5" x1="398.34" y1="475.52" x2="402.06" y2="499.23"/><line class="cls-5" x1="1608.15" y1="1361.38" x2="1853.54" y2="1361.38"/><path id="Shirt" class="cls-11" d="M829.34,532.33l-1.24,276.4H577.36V532.33A125.91,125.91,0,0,1,637.31,425,94.76,94.76,0,0,0,808,462.1,125.47,125.47,0,0,1,829.34,532.33Z"/><polygon class="cls-12" points="799.8 571.39 795.03 550.61 775.97 623.27 801.02 588.11 799.8 571.39"/><polygon class="cls-12" points="666.56 562.93 684.65 661.9 649.6 638.06 666.56 562.93"/><path class="cls-12" d="M805.67,652,634.86,741.34a41.4,41.4,0,0,1-57.5-38.14V678.34a41.42,41.42,0,0,0,57.5,38.15s154.7-71.74,169.92-76.67Z"/><g id="Stripes"><g class="cls-13"><line class="cls-10" x1="1009.3" y1="395.48" x2="416.2" y2="395.48"/><line class="cls-10" x1="1009.3" y1="422.87" x2="416.2" y2="422.87"/><line class="cls-10" x1="1009.3" y1="450.26" x2="416.2" y2="450.26"/><line class="cls-10" x1="1009.3" y1="477.65" x2="416.2" y2="477.65"/><line class="cls-10" x1="1009.3" y1="505.04" x2="416.2" y2="505.04"/><line class="cls-10" x1="1009.3" y1="532.43" x2="416.2" y2="532.43"/><line class="cls-10" x1="1009.3" y1="559.81" x2="416.2" y2="559.81"/><line class="cls-10" x1="1009.3" y1="587.2" x2="416.2" y2="587.2"/><line class="cls-10" x1="1009.3" y1="614.59" x2="416.2" y2="614.59"/><line class="cls-10" x1="1009.3" y1="641.98" x2="416.2" y2="641.98"/><line class="cls-10" x1="1009.3" y1="669.37" x2="416.2" y2="669.37"/><line class="cls-10" x1="1009.3" y1="696.76" x2="416.2" y2="696.76"/><line class="cls-10" x1="1009.3" y1="724.15" x2="416.2" y2="724.15"/><line class="cls-10" x1="1009.3" y1="751.53" x2="416.2" y2="751.53"/><line class="cls-10" x1="1009.3" y1="778.92" x2="416.2" y2="778.92"/><line class="cls-10" x1="1009.3" y1="806.31" x2="416.2" y2="806.31"/></g></g><path id="Collar" class="cls-14" d="M808,462.1A94.76,94.76,0,0,1,637.31,425,126,126,0,0,1,808,462.1Z"/><polygon id="Neck" class="cls-14" points="775.97 371.33 759.13 477.39 663.86 437.28 724.18 360.51 775.97 371.33"/><path id="Shadow" class="cls-15" d="M764.42,444.1l-3.77,23.68c-22.12-9.3-40.25-31.43-49.84-60.16C724.28,428.24,743.2,441.86,764.42,444.1Z"/><rect class="cls-14" x="700.73" y="1318.57" width="46.54" height="32.56"/><path class="cls-11" d="M746.68,1368.59c-12.69,4.84-45.95,6.87-45.95-17.47h46.53s-4.27,4.56-.94,9.16a12.22,12.22,0,0,0,4.09,3.37C752.89,1365,751,1367,746.68,1368.59Z"/><path class="cls-16" d="M848.28,1392.14H700.73v-41c0,24.34,33.26,22.31,45.95,17.47,4.27-1.63,6.21-3.58,3.73-4.94a12.22,12.22,0,0,1-4.09-3.37c-3.33-4.6.94-9.16.94-9.16Z"/><polygon class="cls-4" points="867.63 1400 700.73 1400 700.73 1392.14 848.28 1392.14 867.63 1400"/><polygon class="cls-14" points="623.57 1351.13 664.83 1351.13 670.11 1318.57 623.57 1318.57 623.57 1351.13"/><path class="cls-11" d="M659.31,1364.1c1,5.38,3.12,11.29,1.73,15.81a8.1,8.1,0,0,1-1,2.15c-5.9,8.85-36.47-11.53-36.47-30.94h41.26C658.44,1353.54,658.28,1358.55,659.31,1364.1Z"/><path class="cls-16" d="M736,1419.65,725.22,1417l-101.65-24.87v-41c0,19.41,30.57,39.79,36.47,30.94a8.1,8.1,0,0,0,1-2.15c1.39-4.52-.73-10.43-1.73-15.81-1-5.55-.87-10.56,5.52-13L736,1419.63Z"/><polygon class="cls-4" points="746.76 1430.02 623.57 1399.87 623.57 1392.14 735.98 1419.65 736.01 1419.66 746.76 1430.02"/><polygon id="Right_Leg" data-name="Right Leg" class="cls-4" points="769.42 1318.57 700.73 1318.57 700.73 808.73 828.1 808.73 769.42 1318.57"/><polygon id="Left_Leg" data-name="Left Leg" class="cls-4" points="670.11 1318.57 577.36 1318.57 577.36 808.73 749.34 808.73 670.11 1318.57"/><polygon id="Shadow-2" data-name="Shadow" class="cls-16" points="749.34 808.73 700.73 1318.57 700.73 1121.52 749.34 808.73"/><g id="Stitches"><line class="cls-8" x1="623.57" y1="819.19" x2="623.42" y2="823.85"/><line class="cls-17" x1="623.12" y1="833.11" x2="608.4" y2="1291.74"/><line class="cls-8" x1="608.25" y1="1296.38" x2="608.1" y2="1301.03"/></g><path class="cls-18" d="M723,858.29,693.82,1046v0l-.16,1h0v0"/><path class="cls-18" d="M656.77,1284.36,690.56,1067a2.7,2.7,0,0,1,.06-.41"/><path class="cls-18" d="M675.94,1056.64a3.56,3.56,0,1,1,0-7.12"/><path class="cls-18" d="M690.26,1049.52a3.56,3.56,0,0,0,3.4-2.49h0a3.59,3.59,0,0,0,.16-1v0"/><path class="cls-18" d="M699.3,1063.77a3.57,3.57,0,0,0,0-7.13"/><path class="cls-18" d="M694.1,1063.77a3.57,3.57,0,0,0-3.48,2.79,2.7,2.7,0,0,0-.06.41"/><line class="cls-18" x1="690.26" y1="1049.52" x2="675.94" y2="1049.52"/><polyline class="cls-18" points="675.94 1056.64 692.16 1056.64 699.3 1056.64"/><line class="cls-18" x1="699.3" y1="1063.77" x2="694.1" y2="1063.77"/><line class="cls-19" x1="670.71" y1="1308.68" x2="737.17" y2="884.18"/><path class="cls-14" d="M837.36,575.89a75.3,75.3,0,0,1,15-.4l-3.63,6.29Z"/><path class="cls-14" d="M889.75,604.08c1.71-8.71,19.65-36.59,4.22-27.4l-13.85,24.76Z"/><polygon id="Shadow-3" data-name="Shadow" class="cls-7" points="909.02 551.84 867.58 551.84 834.3 609.49 875.74 609.49 909.02 551.84"/><polygon id="Shining" class="cls-7" points="909.02 551.84 906.52 556.17 871.91 556.17 841.12 609.48 834.3 609.48 867.58 551.84 909.02 551.84"/><path id="Arm" class="cls-14" d="M828.89,656.48l-.79,152.25h-11L805.67,652h.12C813.15,651.25,816.8,656,828.89,656.48Z"/><path class="cls-15" d="M829.34,571.39l0,5.61c-2.22.36-22.17,6.19-28.28,11.11l-1.22-16.72Z"/><path class="cls-15" d="M829,644.05l-.07,12.43c-12.09-.45-15.74-5.23-23.1-4.5h-.12l-.89-12.17a5.74,5.74,0,0,1,1-.27C813.17,638.83,816.81,643.62,829,644.05Z"/><path id="Arm-2" data-name="Arm" class="cls-14" d="M877.64,593.75c-11.94,0-24.53,0-24.53,0-5.43-20-9.89-19.1-23.8-16.8l-.17,0c-2.18.36-22,6.17-28.12,11.09-9.26,7.46-17,17-25,21.38L649.6,638l14.15-62.68,2.81-12.43h-89.2V678.34a41.42,41.42,0,0,0,57.5,38.15s154.7-71.74,169.92-76.67a5.78,5.78,0,0,1,1-.27c7.34-.72,11,4,23,4.49H829a60.05,60.05,0,0,0,8.74-.38c19.53-2.17,48-33.58,49.07-34.76C893.57,601.37,888,593.75,877.64,593.75Zm-231.59,60,.73-.25-.73.25Z"/><polygon class="cls-15" points="577.36 562.93 661.26 586.4 666.56 562.93 577.36 562.93"/><polygon class="cls-15" points="666.56 562.93 649.59 638.06 646.04 638.86 646.04 562.93 666.56 562.93"/><polyline class="cls-20" points="621.96 644.32 646.04 638.86 649.59 638.06 665.32 634.49"/><path class="cls-14" d="M851.37,332.36c-.16,5.8-.32,11.5-.93,17.07-.1.85-1.17,8.4-1.17,8.4-8.3,49.62-40.36,86.6-78.64,86.6-29.5,0-55.3-21.95-69.38-54.73h0c3-8.36,12.49-38.19,12.49-38.93a79.89,79.89,0,0,1-10.37-37.49h0q0-1,0-2.07a80.48,80.48,0,0,1,98.87-78.29C803.42,232.4,853.44,255.76,851.37,332.36Z"/><ellipse id="Left_Eye" data-name="Left Eye" class="cls-16" cx="795.59" cy="371.06" rx="5.21" ry="3.15" transform="translate(52.35 838.23) rotate(-57.16)"/><ellipse id="Right_Eye" data-name="Right Eye" class="cls-16" cx="826.95" cy="378.77" rx="5.21" ry="3.15" transform="translate(60.23 868.1) rotate(-57.16)"/><polyline id="Nose" class="cls-20" points="817.08 368.13 814.37 411.22 796.13 397.87"/><path id="Smile" class="cls-20" d="M778.06,395.8a14.65,14.65,0,0,0-.26,2.75,14.86,14.86,0,0,0,14.86,14.87,14.17,14.17,0,0,0,2-.13"/><path id="Chick" class="cls-20" d="M773,396.6a14.75,14.75,0,0,1,4.81-.8,15,15,0,0,1,3.69.46"/><path class="cls-16" d="M876.66,275s-7.51-46.12-54.27-46.12a52.12,52.12,0,0,0-16.51,2.68c-1.25.43-2.46.89-3.67,1.4a80.48,80.48,0,0,0-98.87,78.29c0,.69-.14,24.13,10.4,39.56,0,.74-9.54,30.57-12.49,38.93l26.19-31.05c-9.22-17.73-4.89-33.7,7-28.16,7.13,3.32,10.45,13,12,20.26l-5.79,11.48,7.82,4.56,12.39-22.38c.43.29,6.74,2.9,9.8,2.9a18,18,0,0,0,18-17.82,51.82,51.82,0,0,0,61.76,19.95c-.09.85-2.46,15.33-3.28,18.69l14.61-24.73h0a35.8,35.8,0,0,0,7.45.8A35,35,0,0,0,876.66,275Z"/><path class="cls-10" d="M749.12,367.46l12.39-22.38s22.38,12.72,27.84-14.92c0,0,44,46.2,71.93,3.47"/><path class="cls-10" d="M904.26,314.63c0-34-26.25-47.87-56.71-39.56"/><path class="cls-14" d="M1216.45,653.54c7.61-6,25.3-8.45,25.3-8.45a41.43,41.43,0,0,0,15-7.11c7.12-5.65,5.15-21.62,2.21-21.86s-8.72,15.72-17.44,15.6-10.56,2.94-14.49,9.69C1225.08,644.71,1219.49,648.53,1216.45,653.54Z"/><polygon id="Shadow-4" data-name="Shadow" class="cls-7" points="1224.9 629.49 1275.69 629.49 1308.8 686.83 1258.01 686.83 1224.9 629.49"/><polygon id="Shining-2" data-name="Shining" class="cls-7" points="1224.9 629.49 1227.38 633.79 1271.38 633.79 1302.01 686.83 1308.8 686.83 1275.69 629.49 1224.9 629.49"/><path class="cls-14" d="M1324.73,619.47c-2.5-30.12-.15-88.13,4.19-99.46h14.88V747.14h-24.46Z"/><path class="cls-14" d="M1222.46,674.08c18.79,16.94,11.42,21,34.26,55.25s55.62,41.64,85.09,40.16V732.65L1258,687c-.24-1.19-.42-2.35-.55-3.46-1.47-12-8.6-12.28-1.47-14.62s16.93-3.44,19.51-6.63-8.22-4.67-15-4.67-15.59,4.55-15.59,4.55,4.55-7,20.63-7.25,16.57-6,15.84-8.12-6.14-2.93-16.46-3.91c-8.57-.82-19.69,1.42-23.19,2.2,0,0-17.69,2.41-25.3,8.45C1213.24,658.81,1212.84,665.39,1222.46,674.08Z"/><path class="cls-15" d="M1255.63,688.71s-11.07,7.84,6,24.79,23.85,14.91,32.69,26.52,47.52,12,47.52,12V718.84Z"/><path class="cls-11" d="M1450.82,1351.12c0,24.34-33.26,22.31-46,17.47-4.27-1.63-6.21-3.58-3.73-4.94a12.32,12.32,0,0,0,4.09-3.37c3.33-4.6-.94-9.16-.94-9.16Z"/><path class="cls-4" d="M1450.82,1351.12v41H1303.27l101-41s4.27,4.56.94,9.16a12.32,12.32,0,0,1-4.09,3.37c-2.48,1.36-.54,3.31,3.73,4.94C1417.56,1373.43,1450.82,1375.46,1450.82,1351.12Z"/><polygon class="cls-11" points="1283.92 1400 1450.82 1400 1450.82 1392.14 1303.27 1392.14 1283.92 1400"/><path class="cls-11" d="M1503.14,1351.12c0,19.41-30.57,39.79-36.47,30.94a7.8,7.8,0,0,1-1-2.15c-1.39-4.52.72-10.43,1.73-15.81,1-5.55.86-10.56-5.52-13Z"/><path class="cls-4" d="M1503.14,1351.12v41L1401.49,1417l-10.76,2.64,0,0,71.13-68.51c6.38,2.42,6.54,7.43,5.52,13-1,5.38-3.12,11.29-1.73,15.81a7.8,7.8,0,0,0,1,2.15C1472.57,1390.91,1503.14,1370.53,1503.14,1351.12Z"/><polygon class="cls-11" points="1379.95 1430.02 1503.14 1399.87 1503.14 1392.14 1390.73 1419.65 1390.7 1419.66 1379.95 1430.02"/><polygon class="cls-14" points="1450.82 1351.13 1404.29 1351.13 1404.29 1078.9 1463.73 1078.9 1450.82 1351.13"/><polygon class="cls-14" points="1503.14 1351.13 1461.88 1351.13 1432.86 1076.96 1503.14 1078.9 1503.14 1351.13"/><polygon class="cls-15" points="1454.7 1283.23 1452.71 1318.01 1447.99 1318.01 1413.87 918.71 1439.54 1140.07 1454.7 1283.23"/><polygon class="cls-21" points="1452.71 1318.01 1450.82 1351.12 1447.99 1318.01 1452.71 1318.01"/><polygon class="cls-11" points="1450.82 1351.12 1436.08 1358.75 1404.28 1351.12 1404.28 1318.01 1447.99 1318.01 1450.82 1351.12"/><rect class="cls-11" x="1400.4" y="1318.01" width="20.25" height="7.38"/><polygon class="cls-11" points="1509 1325.4 1459.16 1325.4 1458.38 1318.01 1509 1318.01 1509 1325.4"/><polygon class="cls-11" points="1461.88 1351.13 1459.16 1325.4 1503.14 1325.4 1503.14 1351.13 1482.23 1359.55 1461.88 1351.13"/><polygon class="cls-4" points="1341.81 786.43 1341.81 1140.08 1593.78 1140.08 1517.16 790.66 1341.81 786.43"/><circle class="cls-4" cx="1369.22" cy="639.91" r="60.41"/><circle class="cls-4" cx="1454.7" cy="859.57" r="108.86"/><polyline class="cls-4" points="1475.06 502.93 1341.81 502.93 1341.81 786.43 1517.16 790.66 1475.06 502.93"/><polygon class="cls-22" points="1454.89 609.48 1463.73 715.84 1485.23 720.35 1454.89 609.48"/><path class="cls-22" d="M1341.81,726.23V752s15-5.06,64.11,10.23h0c11.65,3.63,25.2,8.4,40.94,14.66,14.21,5.65,26,9.91,35.82,13,29.57,9.1,42.48,7.32,55.11-.57a108.65,108.65,0,0,0-15.52-15A47.39,47.39,0,0,1,1515,776c-10.41,1.75-23.92.88-41.33-3.61-14.34-3.7-32.77-8.88-53.87-16h0a724.85,724.85,0,0,1-74-29.5A26.06,26.06,0,0,0,1341.81,726.23Z"/><polygon class="cls-22" points="1413.88 918.71 1432.8 1140.07 1439.55 1140.07 1413.88 918.71"/><polygon class="cls-22" points="1510.79 725 1341.81 725 1341.81 751.99 1510.79 756.52 1510.79 725"/><g class="cls-23"><circle class="cls-1" cx="1566.76" cy="516.94" r="6.4"/><circle class="cls-1" cx="1538.59" cy="520.16" r="6.4"/><circle class="cls-1" cx="1510.43" cy="523.37" r="6.4"/><circle class="cls-1" cx="1482.26" cy="526.59" r="6.4"/><circle class="cls-1" cx="1454.09" cy="529.81" r="6.4"/><circle class="cls-1" cx="1425.92" cy="533.02" r="6.4"/><circle class="cls-1" cx="1397.75" cy="536.24" r="6.4"/><circle class="cls-1" cx="1369.58" cy="539.45" r="6.4"/><circle class="cls-1" cx="1341.41" cy="542.67" r="6.4"/><circle class="cls-1" cx="1313.24" cy="545.89" r="6.4"/><circle class="cls-1" cx="1285.07" cy="549.1" r="6.4"/><circle class="cls-1" cx="1256.9" cy="552.32" r="6.4"/><circle class="cls-1" cx="1571.14" cy="555.31" r="6.4"/><circle class="cls-1" cx="1542.97" cy="558.52" r="6.4"/><circle class="cls-1" cx="1514.81" cy="561.74" r="6.4"/><circle class="cls-1" cx="1486.64" cy="564.96" r="6.4"/><circle class="cls-1" cx="1458.47" cy="568.17" r="6.4"/><circle class="cls-1" cx="1430.3" cy="571.39" r="6.4"/><circle class="cls-1" cx="1402.13" cy="574.61" r="6.4"/><circle class="cls-1" cx="1373.96" cy="577.82" r="6.4"/><circle class="cls-1" cx="1345.79" cy="581.04" r="6.4"/><circle class="cls-1" cx="1317.62" cy="584.25" r="6.4"/><circle class="cls-1" cx="1289.45" cy="587.47" r="6.4"/><circle class="cls-1" cx="1261.28" cy="590.69" r="6.4"/><circle class="cls-1" cx="1575.52" cy="593.68" r="6.4"/><circle class="cls-1" cx="1547.36" cy="596.89" r="6.4"/><circle class="cls-1" cx="1519.19" cy="600.11" r="6.4"/><circle class="cls-1" cx="1491.02" cy="603.32" r="6.4"/><circle class="cls-1" cx="1462.85" cy="606.54" r="6.4"/><circle class="cls-1" cx="1434.68" cy="609.76" r="6.4"/><circle class="cls-1" cx="1406.51" cy="612.97" r="6.4"/><circle class="cls-1" cx="1378.34" cy="616.19" r="6.4"/><circle class="cls-1" cx="1350.17" cy="619.41" r="6.4"/><circle class="cls-1" cx="1322" cy="622.62" r="6.4"/><circle class="cls-1" cx="1293.83" cy="625.84" r="6.4"/><circle class="cls-1" cx="1265.66" cy="629.05" r="6.4"/><circle class="cls-1" cx="1579.91" cy="632.04" r="6.4"/><circle class="cls-1" cx="1551.74" cy="635.26" r="6.4"/><circle class="cls-1" cx="1523.57" cy="638.47" r="6.4"/><circle class="cls-1" cx="1495.4" cy="641.69" r="6.4"/><circle class="cls-1" cx="1467.23" cy="644.91" r="6.4"/><circle class="cls-1" cx="1439.06" cy="648.12" r="6.4"/><circle class="cls-1" cx="1410.89" cy="651.34" r="6.4"/><circle class="cls-1" cx="1382.72" cy="654.56" r="6.4"/><circle class="cls-1" cx="1354.55" cy="657.77" r="6.4"/><circle class="cls-1" cx="1326.38" cy="660.99" r="6.4"/><circle class="cls-1" cx="1298.21" cy="664.2" r="6.4"/><circle class="cls-1" cx="1270.04" cy="667.42" r="6.4"/><circle class="cls-1" cx="1584.29" cy="670.41" r="6.4"/><circle class="cls-1" cx="1556.12" cy="673.63" r="6.4"/><circle class="cls-1" cx="1527.95" cy="676.84" r="6.4"/><circle class="cls-1" cx="1499.78" cy="680.06" r="6.4"/><circle class="cls-1" cx="1471.61" cy="683.27" r="6.4"/><circle class="cls-1" cx="1443.44" cy="686.49" r="6.4"/><circle class="cls-1" cx="1415.27" cy="689.71" r="6.4"/><circle class="cls-1" cx="1387.1" cy="692.92" r="6.4"/><circle class="cls-1" cx="1358.93" cy="696.14" r="6.4"/><circle class="cls-1" cx="1330.76" cy="699.36" r="6.4"/><circle class="cls-1" cx="1302.59" cy="702.57" r="6.4"/><circle class="cls-1" cx="1274.42" cy="705.79" r="6.4"/><circle class="cls-1" cx="1588.67" cy="708.78" r="6.4"/><circle class="cls-1" cx="1560.5" cy="711.99" r="6.4"/><circle class="cls-1" cx="1532.33" cy="715.21" r="6.4"/><circle class="cls-1" cx="1504.16" cy="718.42" r="6.4"/><circle class="cls-1" cx="1475.99" cy="721.64" r="6.4"/><circle class="cls-1" cx="1447.82" cy="724.86" r="6.4"/><circle class="cls-1" cx="1419.65" cy="728.07" r="6.4"/><circle class="cls-1" cx="1391.48" cy="731.29" r="6.4"/><circle class="cls-1" cx="1363.31" cy="734.51" r="6.4"/><circle class="cls-1" cx="1335.14" cy="737.72" r="6.4"/><circle class="cls-1" cx="1306.97" cy="740.94" r="6.4"/><circle class="cls-1" cx="1278.8" cy="744.15" r="6.4"/><circle class="cls-1" cx="1593.05" cy="747.14" r="6.4"/><circle class="cls-1" cx="1564.88" cy="750.36" r="6.4"/><circle class="cls-1" cx="1536.71" cy="753.58" r="6.4"/><circle class="cls-1" cx="1508.54" cy="756.79" r="6.4"/><circle class="cls-1" cx="1480.37" cy="760.01" r="6.4"/><circle class="cls-1" cx="1452.2" cy="763.22" r="6.4"/><circle class="cls-1" cx="1424.03" cy="766.44" r="6.4"/><circle class="cls-1" cx="1395.86" cy="769.66" r="6.4"/><circle class="cls-1" cx="1367.69" cy="772.87" r="6.4"/><circle class="cls-1" cx="1339.52" cy="776.09" r="6.4"/><circle class="cls-1" cx="1311.35" cy="779.31" r="6.4"/><circle class="cls-1" cx="1283.18" cy="782.52" r="6.4"/><circle class="cls-1" cx="1597.43" cy="785.51" r="6.4"/><circle class="cls-1" cx="1569.26" cy="788.73" r="6.4"/><circle class="cls-1" cx="1541.09" cy="791.94" r="6.4"/><circle class="cls-1" cx="1512.92" cy="795.16" r="6.4"/><circle class="cls-1" cx="1484.75" cy="798.37" r="6.4"/><circle class="cls-1" cx="1456.58" cy="801.59" r="6.4"/><circle class="cls-1" cx="1428.41" cy="804.81" r="6.4"/><circle class="cls-1" cx="1400.24" cy="808.02" r="6.4"/><circle class="cls-1" cx="1372.07" cy="811.24" r="6.4"/><circle class="cls-1" cx="1343.9" cy="814.46" r="6.4"/><circle class="cls-1" cx="1315.73" cy="817.67" r="6.4"/><circle class="cls-1" cx="1287.56" cy="820.89" r="6.4"/><circle class="cls-1" cx="1601.81" cy="823.88" r="6.4"/><circle class="cls-1" cx="1573.64" cy="827.09" r="6.4"/><circle class="cls-1" cx="1545.47" cy="830.31" r="6.4"/><circle class="cls-1" cx="1517.3" cy="833.53" r="6.4"/><circle class="cls-1" cx="1489.13" cy="836.74" r="6.4"/><circle class="cls-1" cx="1460.96" cy="839.96" r="6.4"/><circle class="cls-1" cx="1432.79" cy="843.17" r="6.4"/><circle class="cls-1" cx="1404.62" cy="846.39" r="6.4"/><circle class="cls-1" cx="1376.45" cy="849.61" r="6.4"/><circle class="cls-1" cx="1348.28" cy="852.82" r="6.4"/><circle class="cls-1" cx="1320.11" cy="856.04" r="6.4"/><circle class="cls-1" cx="1291.95" cy="859.26" r="6.4"/><circle class="cls-1" cx="1606.19" cy="862.24" r="6.4"/><circle class="cls-1" cx="1578.02" cy="865.46" r="6.4"/><circle class="cls-1" cx="1549.85" cy="868.68" r="6.4"/><circle class="cls-1" cx="1521.68" cy="871.89" r="6.4"/><circle class="cls-1" cx="1493.51" cy="875.11" r="6.4"/><circle class="cls-1" cx="1465.34" cy="878.32" r="6.4"/><circle class="cls-1" cx="1437.17" cy="881.54" r="6.4"/><circle class="cls-1" cx="1409" cy="884.76" r="6.4"/><circle class="cls-1" cx="1380.83" cy="887.97" r="6.4"/><circle class="cls-1" cx="1352.66" cy="891.19" r="6.4"/><circle class="cls-1" cx="1324.5" cy="894.41" r="6.4"/><circle class="cls-1" cx="1296.33" cy="897.62" r="6.4"/><circle class="cls-1" cx="1610.57" cy="900.61" r="6.4"/><circle class="cls-1" cx="1582.4" cy="903.83" r="6.4"/><circle class="cls-1" cx="1554.23" cy="907.04" r="6.4"/><circle class="cls-1" cx="1526.06" cy="910.26" r="6.4"/><circle class="cls-1" cx="1497.89" cy="913.48" r="6.4"/><circle class="cls-1" cx="1469.72" cy="916.69" r="6.4"/><circle class="cls-1" cx="1441.55" cy="919.91" r="6.4"/><circle class="cls-1" cx="1413.38" cy="923.12" r="6.4"/><circle class="cls-1" cx="1385.21" cy="926.34" r="6.4"/><circle class="cls-1" cx="1357.05" cy="929.56" r="6.4"/><circle class="cls-1" cx="1328.88" cy="932.77" r="6.4"/><circle class="cls-1" cx="1300.71" cy="935.99" r="6.4"/><circle class="cls-1" cx="1614.95" cy="938.98" r="6.4"/><circle class="cls-1" cx="1586.78" cy="942.19" r="6.4"/><circle class="cls-1" cx="1558.61" cy="945.41" r="6.4"/><circle class="cls-1" cx="1530.44" cy="948.63" r="6.4"/><circle class="cls-1" cx="1502.27" cy="951.84" r="6.4"/><circle class="cls-1" cx="1474.1" cy="955.06" r="6.4"/><circle class="cls-1" cx="1445.93" cy="958.28" r="6.4"/><circle class="cls-1" cx="1417.76" cy="961.49" r="6.4"/><circle class="cls-1" cx="1389.6" cy="964.71" r="6.4"/><circle class="cls-1" cx="1361.43" cy="967.92" r="6.4"/><circle class="cls-1" cx="1333.26" cy="971.14" r="6.4"/><circle class="cls-1" cx="1305.09" cy="974.36" r="6.4"/><circle class="cls-1" cx="1619.33" cy="977.34" r="6.4"/><circle class="cls-1" cx="1591.16" cy="980.56" r="6.4"/><circle class="cls-1" cx="1562.99" cy="983.78" r="6.4"/><circle class="cls-1" cx="1534.82" cy="986.99" r="6.4"/><circle class="cls-1" cx="1506.65" cy="990.21" r="6.4"/><circle class="cls-1" cx="1478.48" cy="993.43" r="6.4"/><circle class="cls-1" cx="1450.31" cy="996.64" r="6.4"/><circle class="cls-1" cx="1422.15" cy="999.86" r="6.4"/><circle class="cls-1" cx="1393.98" cy="1003.07" r="6.4"/><circle class="cls-1" cx="1365.81" cy="1006.29" r="6.4"/><circle class="cls-1" cx="1337.64" cy="1009.51" r="6.4"/><circle class="cls-1" cx="1309.47" cy="1012.72" r="6.4"/><circle class="cls-1" cx="1623.71" cy="1015.71" r="6.4"/><circle class="cls-1" cx="1595.54" cy="1018.93" r="6.4"/><circle class="cls-1" cx="1567.37" cy="1022.14" r="6.4"/><circle class="cls-1" cx="1539.2" cy="1025.36" r="6.4"/><circle class="cls-1" cx="1511.03" cy="1028.58" r="6.4"/><circle class="cls-1" cx="1482.86" cy="1031.79" r="6.4"/><circle class="cls-1" cx="1454.7" cy="1035.01" r="6.4"/><circle class="cls-1" cx="1426.53" cy="1038.23" r="6.4"/><circle class="cls-1" cx="1398.36" cy="1041.44" r="6.4"/><circle class="cls-1" cx="1370.19" cy="1044.66" r="6.4"/><circle class="cls-1" cx="1342.02" cy="1047.87" r="6.4"/><circle class="cls-1" cx="1313.85" cy="1051.09" r="6.4"/><circle class="cls-1" cx="1628.09" cy="1054.08" r="6.4"/><circle class="cls-1" cx="1599.92" cy="1057.29" r="6.4"/><circle class="cls-1" cx="1571.75" cy="1060.51" r="6.4"/><circle class="cls-1" cx="1543.58" cy="1063.73" r="6.4"/><circle class="cls-1" cx="1515.41" cy="1066.94" r="6.4"/><circle class="cls-1" cx="1487.25" cy="1070.16" r="6.4"/><circle class="cls-1" cx="1459.08" cy="1073.38" r="6.4"/><circle class="cls-1" cx="1430.91" cy="1076.59" r="6.4"/><circle class="cls-1" cx="1402.74" cy="1079.81" r="6.4"/><circle class="cls-1" cx="1374.57" cy="1083.02" r="6.4"/><circle class="cls-1" cx="1346.4" cy="1086.24" r="6.4"/><circle class="cls-1" cx="1318.23" cy="1089.46" r="6.4"/><circle class="cls-1" cx="1632.47" cy="1092.45" r="6.4"/><circle class="cls-1" cx="1604.3" cy="1095.66" r="6.4"/><circle class="cls-1" cx="1576.13" cy="1098.88" r="6.4"/><circle class="cls-1" cx="1547.96" cy="1102.09" r="6.4"/><circle class="cls-1" cx="1519.8" cy="1105.31" r="6.4"/><circle class="cls-1" cx="1491.63" cy="1108.53" r="6.4"/><circle class="cls-1" cx="1463.46" cy="1111.74" r="6.4"/><circle class="cls-1" cx="1435.29" cy="1114.96" r="6.4"/><circle class="cls-1" cx="1407.12" cy="1118.18" r="6.4"/><circle class="cls-1" cx="1378.95" cy="1121.39" r="6.4"/><circle class="cls-1" cx="1350.78" cy="1124.61" r="6.4"/><circle class="cls-1" cx="1322.61" cy="1127.82" r="6.4"/><circle class="cls-1" cx="1636.85" cy="1130.81" r="6.4"/><circle class="cls-1" cx="1608.68" cy="1134.03" r="6.4"/><circle class="cls-1" cx="1580.51" cy="1137.24" r="6.4"/><circle class="cls-1" cx="1552.34" cy="1140.46" r="6.4"/><circle class="cls-1" cx="1524.18" cy="1143.68" r="6.4"/><circle class="cls-1" cx="1496.01" cy="1146.89" r="6.4"/><circle class="cls-1" cx="1467.84" cy="1150.11" r="6.4"/><circle class="cls-1" cx="1439.67" cy="1153.33" r="6.4"/><circle class="cls-1" cx="1411.5" cy="1156.54" r="6.4"/><circle class="cls-1" cx="1383.33" cy="1159.76" r="6.4"/><circle class="cls-1" cx="1355.16" cy="1162.97" r="6.4"/><circle class="cls-1" cx="1326.99" cy="1166.19" r="6.4"/></g><circle class="cls-14" cx="1399.13" cy="481.92" r="67.17"/><path class="cls-15" d="M1374,511.33l2.07,8.68c13.47-4.85,25.21-14.12,33.93-26.33A67.14,67.14,0,0,1,1374,511.33Z"/><path class="cls-14" d="M1345.84,726.93a749.65,749.65,0,0,0,127.85,45.51c92.1,23.74,74.85-53.8,69.17-85-7.38-40.53-21.11-116.68-21.11-116.68-3.45-28.69-19.46-52.54-41.76-67.8-9.68,18.32-28.31,57.44-27.49,85.86,1.1,38.31,32.73,131.56,32.73,131.56l-126.66-26.58Z"/><path class="cls-15" d="M1452.5,588.78c1,35.44,28.68,119.43,32.73,131.57L1507.1,725s-36.82-90.94-45.72-128.22c-3.88-16.22-2-37.4,1.47-56.16C1456.82,556.64,1452.08,574.13,1452.5,588.78Z"/><path class="cls-14" d="M1358.57,693.77s-37.65-20.61-49.77-25.4S1292.27,682,1292.27,682s-26.71-4.24-35.55,5.16S1279,710,1289.5,721.78s41.58,1.27,56.34,5.15L1361,701.71Z"/><line class="cls-24" x1="1463.73" y1="715.84" x2="1507.1" y2="725"/><path class="cls-16" d="M1286.23,430.21v95.05h76.13v-130H1291c-1,3.72-1.91,7.53-2.61,11.38A130.1,130.1,0,0,0,1286.23,430.21Z"/><path class="cls-24" d="M1295.39,504.62a158.88,158.88,0,0,1,4.53-146.42"/><ellipse class="cls-14" cx="1364.88" cy="430.21" rx="71.61" ry="81.78"/><ellipse id="Left_Eye-2" data-name="Left Eye" class="cls-16" cx="1336.67" cy="446.2" rx="3.8" ry="6.3" transform="translate(-61.97 274.23) rotate(-11.45)"/><ellipse id="Left_Eye-3" data-name="Left Eye" class="cls-16" cx="1310.33" cy="452.42" rx="3.8" ry="6.3" transform="translate(-63.73 269.12) rotate(-11.45)"/><polyline id="Nose-2" data-name="Nose" class="cls-24" points="1319.34 451.83 1320.98 477.79 1331.96 469.75"/><path id="Smile-2" data-name="Smile" class="cls-24" d="M1364.85,469.12a10.2,10.2,0,0,1,.19,2,10.8,10.8,0,0,1-10.79,10.8,9.77,9.77,0,0,1-1.44-.1"/><path id="Chick-2" data-name="Chick" class="cls-24" d="M1368.53,469.7a10.6,10.6,0,0,0-3.49-.58,10.81,10.81,0,0,0-2.68.34"/><path class="cls-16" d="M1286.29,420.16l.33,0c.73.07,1.47.12,2.24.12s1.64,0,2.48,0a25,25,0,0,0,2.49-.25c15.34-2.22,24.92-17.33,28.74-24.75,1.29-2.48,1.93-4.1,1.93-4.1q1,2.1,2.13,4.1c12.94,23.15,35.53,33,54.65,37.16a127.37,127.37,0,0,0,21.3,2.7,104.05,104.05,0,0,0,12.54-.13l3,90.26H1480s1.44-192.3-85.13-214a129.48,129.48,0,0,0-30.3-4.13c-17.37.09-35.22,7.54-50.93,20.17l-.13.1C1292.94,345.4,1287,371.44,1286.29,420.16Z"/><rect class="cls-16" x="1397.44" y="416.18" width="40.23" height="109.08" transform="translate(2835.11 941.44) rotate(-180)"/><path class="cls-16" d="M1286.22,430.21l2.64-9.91,6.66-25,18.11-68h0l-.13.11c-20.56,18-26.54,44.07-27.21,92.79Q1286.22,425,1286.22,430.21Z"/><path class="cls-24" d="M1287.59,429.86h.09a40.76,40.76,0,0,0,10.25-79.28"/><path class="cls-25" d="M1243,618.85c-23.73-55.39-80.17-117.63-135.56-131.87s-74.46-49.72-73.84-70.8c.52-18.08,27.42-31,39-4.1,0,0,7.84-25.24,25.32-17.71,26.37,11.38,19.51,99.68-71.21,99.31S899.9,509.13,882,547.9"/></svg>