<svg width="338" height="445" viewBox="0 0 338 445" fill="none" xmlns="http://www.w3.org/2000/svg">
<rect width="337.845" height="444.357" rx="20" fill="white"/>
<mask id="mask0" mask-type="alpha" maskUnits="userSpaceOnUse" x="0" y="0" width="338" height="445">
<rect width="337.845" height="444.357" rx="20" fill="white"/>
</mask>
<g mask="url(#mask0)">
<rect x="-39" y="341" width="415" height="93" fill="url(#paint0_radial)"/>
<path fill-rule="evenodd" clip-rule="evenodd" d="M111 343H276V76H111V343Z" fill="#E9EDEF"/>
<path fill-rule="evenodd" clip-rule="evenodd" d="M126 87H267V343H126.751L126 87" fill="#CED1D6"/>
<path fill-rule="evenodd" clip-rule="evenodd" d="M121 86.5L254.033 83L256 348L121 342.526V87.6345" fill="#F2F4F5"/>
<circle cx="237" cy="218" r="6" fill="#CED1D6"/>
<path fill-rule="evenodd" clip-rule="evenodd" d="M167.323 216.748C173.974 218.671 177.15 229.601 176.124 238.718C174.707 251.32 165.732 265.693 159.789 275.211C158.482 277.305 157.322 279.163 156.42 280.717C156.841 285.364 156.285 290.694 155.707 295.185C155.302 298.337 154.16 300.455 152.533 303.471C149.476 309.138 144.707 317.978 139.898 342.823C138.194 351.626 131.057 346.502 131.412 340.392C131.44 339.921 131.477 339.207 131.524 338.287C132.022 328.657 133.692 296.367 137.914 281.65C137.275 272.994 139.96 246.872 144.4 231.894C148.991 216.411 160.672 214.825 167.323 216.748Z" fill="url(#paint1_linear)"/>
<path fill-rule="evenodd" clip-rule="evenodd" d="M184.515 220.023C192.041 221.921 194.538 233.941 190.689 244.484C186.303 256.499 174.027 266.386 162.753 272.596C164.401 273.767 165.828 274.963 166.913 276.102C169.899 279.237 171.258 281.499 172.87 284.18C175.677 288.851 179.251 294.796 193.52 308.849C199.652 314.888 193.695 319.22 188.736 316.018C187.82 315.427 185.68 314.202 182.761 312.532C169.874 305.158 141.807 289.1 136.919 280.501C136.269 279.356 135.704 278.326 135.238 277.383C133.554 275.773 132.928 273.363 133.885 270.27C136.237 262.675 150.698 243.323 158.727 234.35C165.685 226.573 176.989 218.125 184.515 220.023Z" fill="url(#paint2_linear)"/>
<path d="M129.064 354.249C125.599 355.329 115.182 358.3 109.12 354.249C106.087 352.222 107.821 348.847 111.718 348.397C115.615 347.947 122.085 344.69 123.681 343.445C127.146 340.744 128.878 336.243 131.043 338.493C134.94 342.545 139.704 338.493 141.436 338.493C143.168 338.493 143.601 351.098 141.436 352.898C139.271 354.699 134.693 352.493 129.064 354.249Z" fill="#2F4F59"/>
<path d="M203.703 320.464C204.301 324.074 205.168 334.376 200.479 339.958C198.133 342.75 195.5 340.649 195.567 336.683C195.633 332.717 193.967 326.945 192.292 323.994C190.131 320.184 185.875 317.265 188.608 315.807C194.748 312.532 191.251 308.13 191.474 306.392C191.696 304.655 202.244 305.635 203.703 308.03C205.163 310.425 202.733 314.599 203.703 320.464Z" fill="#2F4F59"/>
<path d="M162.216 145.331C163.64 141.497 164.353 135.612 164.353 133.349C167.914 130.153 172.899 128.955 177.885 131.751C177.885 138.142 177.885 141.337 180.733 146.13C179.665 148.127 174.324 150.923 170.406 150.923C166.489 150.923 162.216 149.326 162.216 145.331Z" fill="#E3B695"/>
<path d="M177.026 135.386C174.056 138.418 167.913 140.554 163.189 140.554C158.801 138.142 156.928 129.327 158.126 119.538C159.139 111.269 164.933 107.917 172.301 108.857C180.4 109.891 181.075 116.781 181.413 121.949C181.75 127.117 180.738 131.596 177.026 135.386Z" fill="#F6C8A6"/>
<path d="M155.526 114.718C153.012 113.588 151.336 108.363 153.78 105.891C156.224 103.419 158.319 106.95 164.604 106.244C170.173 105.619 175.08 104.479 179.27 107.656C183.46 110.834 184.158 116.836 183.46 121.779C182.778 126.606 181.365 128.488 179.968 131.665C180.317 128.605 182.412 122.838 179.27 122.132C176.27 121.458 176.476 125.31 176.127 128.135L174.731 127.075C175.429 124.957 176.127 119.072 174.731 117.189C172.594 114.309 168.701 113.762 164.604 114.718C160.065 115.777 158.668 116.13 155.526 114.718Z" fill="#4B4034"/>
<path d="M91.5155 174.974C79.7091 170.487 84.6185 211.976 84.7917 218.106C84.9648 224.236 89.1606 220.612 89.3856 215.347C89.6669 208.766 86.26 187.392 89.8956 183.783" stroke="#CC7728"/>
<path d="M99.7501 170.284C100.087 171.628 103.892 179.384 105.07 181.23C108.901 182.839 106.69 188.821 104.54 188.219C102.389 187.616 99.702 188.291 97.0483 188.529C94.3946 188.767 88.7499 187.899 86.6986 185.987C84.6473 184.074 82.6563 175.577 84.8401 175.742C87.0239 175.908 90.8553 177.517 97.9429 176.736C95.4819 168.643 99.4128 168.941 99.7501 170.284Z" fill="#F6C8A6"/>
<path fill-rule="evenodd" clip-rule="evenodd" d="M157.089 145.933C164.867 147.415 162.116 160.239 160.364 166.809C158.17 175.035 148.187 194.158 144.658 199.94C143.819 204.238 139.555 206.512 133.757 205.287C129.579 204.404 117.386 197.148 109.018 192.168C106.399 190.609 104.154 189.274 102.648 188.426C105.03 185.972 105.724 184.166 105.922 181.545C109.803 182.573 113.271 183.47 116.402 184.28C122.653 185.898 127.559 187.168 131.71 188.426C131.735 188.434 131.759 188.441 131.783 188.448C132.466 180.364 133.896 170.475 136.213 163.125C139.638 152.264 149.312 144.452 157.089 145.933Z" fill="url(#paint3_linear)"/>
<path d="M180.408 145.124C174.287 149.631 164.086 150.45 162.045 145.124C140.01 145.124 139.958 170.429 142.459 179.131C148.96 201.757 151.028 202.895 149.804 221.743C161.507 228.27 172.073 229.499 188.977 222.972C186.376 196.43 202.035 188.084 202.035 168.068C202.035 149.773 195.578 145.124 180.408 145.124Z" fill="url(#paint4_linear)"/>
<path d="M111.415 157.721C117.332 165.26 119.173 176.023 121.277 181.71C124.565 183.562 131.095 182.45 132.041 182.133C132.988 181.815 127.467 166.451 126.678 157.722C124.203 157.308 116.365 157.308 111.415 157.721Z" fill="#79EDA1"/>
<path d="M115.255 159.715C119.01 165.786 120.739 173.75 122.348 177.928C124.862 179.289 129.051 178.92 129.775 178.686C130.499 178.453 125.455 166.128 124.851 159.715C121.931 159.715 118.593 159.715 115.255 159.715Z" stroke="#41B869"/>
<path d="M129.634 155.875L126.774 157.565C127.101 161.959 129.634 171.931 130.86 176.156C131.405 176.578 132.413 177.085 132.086 175.733C131.759 174.381 130.315 161.79 129.634 155.875Z" fill="#3D8D58"/>
<path d="M126.914 158.179C121.887 157.746 115.744 157.89 111.415 158.179C112.392 157.457 114.347 156.447 115.604 156.014C116.876 155.576 125.657 156.303 129.846 156.447C129.008 156.88 128.59 157.313 126.914 158.179Z" fill="#41B869"/>
<ellipse cx="122.882" cy="169.748" rx="2.456" ry="2.86534" transform="rotate(-13.116 122.882 169.748)" fill="#41B869"/>
<path d="M133.91 166.577C133.91 167.804 134.327 174.345 135.187 177.923C139.443 180.024 137.386 188.158 133.059 186.328C127.101 183.806 121.684 185.794 118.589 181.705C116.671 179.171 117.067 175.345 116.035 173.3C115.003 171.256 113.636 169.371 115.184 167.837C116.732 166.304 125.798 172.369 128.377 172.88C130.957 173.391 130.788 173.097 130.788 169.518C130.788 165.94 133.91 165.043 133.91 166.577Z" fill="#F6C8A6"/>
<path fill-rule="evenodd" clip-rule="evenodd" d="M197.932 149.208C207.569 153.588 206.619 174.996 197.205 186.457C196.983 186.728 196.762 186.997 196.542 187.264C189.132 196.287 183.282 203.411 178.991 205.943C177.432 207.421 174.672 207.566 169.369 206.515C164.53 205.556 154.962 199.875 144.87 193.884C140.608 191.353 136.252 188.767 132.12 186.458C132.151 186.308 132.182 186.154 132.214 185.997C132.702 183.602 133.353 180.41 135.804 177.862C143.927 181.67 151.649 183.219 158.35 184.564C162.453 185.388 166.174 186.135 169.369 187.276C169.616 187.365 169.859 187.454 170.099 187.543C172.486 179.33 177.093 169.572 180.013 163.535C180.201 163.145 180.394 162.741 180.593 162.325C183.948 155.303 188.835 145.073 197.932 149.208Z" fill="url(#paint5_linear)"/>
<path d="M99.4684 180.259C100.471 184.287 98.3383 188.086 94.9824 188.921C91.6264 189.757 87.961 187.402 86.9579 183.374C85.9549 179.345 88.088 175.546 91.444 174.711C94.8 173.875 98.4654 176.23 99.4684 180.259Z" fill="white" stroke="#724D2B" stroke-width="2"/>
<path d="M95.2872 178.914L96.0552 177.378" stroke="#E9E9E9"/>
<path d="M93.7513 178.146V176.61" stroke="#E9E9E9"/>
<path d="M97.5916 178.914L96.8237 179.682" stroke="#E9E9E9"/>
<path d="M98.2092 182.351L96.9176 182.266" stroke="#E9E9E9"/>
<path d="M95.2874 186.594L94.5195 185.826" stroke="#E9E9E9"/>
<path d="M92.2153 186.594L92.9833 185.826" stroke="#E9E9E9"/>
<path d="M90.6798 185.826L91.4478 185.058" stroke="#E9E9E9"/>
<path d="M88.3756 183.522H89.9115" stroke="#E9E9E9"/>
<path d="M88.3756 181.218H89.9115" stroke="#E9E9E9"/>
<path d="M89.9116 178.146L90.6796 178.914" stroke="#E9E9E9"/>
<path d="M91.4475 176.61L92.2155 178.146" stroke="#E9E9E9"/>
<path d="M96.8237 184.29L97.5916 185.058" stroke="#E9E9E9"/>
<path d="M92.9835 181.986L91.4475 175.842" stroke="black" stroke-linecap="round" stroke-linejoin="round"/>
<path d="M92.984 181.986H96.8238" stroke="black" stroke-linecap="round" stroke-linejoin="round"/>
</g>
<defs>
<radialGradient id="paint0_radial" cx="0" cy="0" r="1" gradientUnits="userSpaceOnUse" gradientTransform="translate(169.053 324.152) rotate(90) scale(95.6957 185.743)">
<stop stop-color="#2B485C" stop-opacity="0.06"/>
<stop offset="1" stop-color="#2B485C" stop-opacity="0"/>
</radialGradient>
<linearGradient id="paint1_linear" x1="148.897" y1="214.436" x2="169.897" y2="267.55" gradientUnits="userSpaceOnUse">
<stop stop-color="#D96760"/>
<stop offset="1" stop-color="#BD463E"/>
</linearGradient>
<linearGradient id="paint2_linear" x1="160.14" y1="229.372" x2="181.744" y2="316.633" gradientUnits="userSpaceOnUse">
<stop stop-color="#D96760"/>
<stop offset="1" stop-color="#BD463E"/>
</linearGradient>
<linearGradient id="paint3_linear" x1="79.7207" y1="207.839" x2="153.062" y2="167.784" gradientUnits="userSpaceOnUse">
<stop stop-color="#549ADB"/>
<stop offset="1" stop-color="#2C679D"/>
</linearGradient>
<linearGradient id="paint4_linear" x1="171.431" y1="145.124" x2="171.431" y2="229.935" gradientUnits="userSpaceOnUse">
<stop stop-color="#549ADB"/>
<stop offset="1" stop-color="#2C679D"/>
</linearGradient>
<linearGradient id="paint5_linear" x1="177.147" y1="148.39" x2="174.282" y2="194.644" gradientUnits="userSpaceOnUse">
<stop stop-color="#549ADB"/>
<stop offset="1" stop-color="#2C679D"/>
</linearGradient>
</defs>
</svg>
