<svg width="338" height="445" viewBox="0 0 338 445" fill="none" xmlns="http://www.w3.org/2000/svg">
<rect width="337.845" height="444.357" rx="20" fill="white"/>
<mask id="mask0" mask-type="alpha" maskUnits="userSpaceOnUse" x="0" y="0" width="338" height="445">
<rect width="337.845" height="444.357" rx="20" fill="white"/>
</mask>
<g mask="url(#mask0)">
<path fill-rule="evenodd" clip-rule="evenodd" d="M127.25 127.164L229.148 196.817H203.986V289.293H51.3013V196.817H25.3521L70.1897 166.168V144.479H94.5877V149.491L127.25 127.164ZM421.128 206.657H470.34L356.757 163.456L246.499 205.392H243.893V206.383L243.174 206.657H243.893V289.732H421.128V206.657Z" fill="url(#paint0_linear)"/>
<rect x="-3.01465" y="288.509" width="363.026" height="74.561" fill="url(#paint1_radial)"/>
<rect x="77.6582" y="202.948" width="34.2247" height="45.2255" fill="url(#paint2_linear)"/>
<rect x="141.219" y="202.948" width="34.2247" height="45.2255" fill="url(#paint3_linear)"/>
<rect x="272.006" y="222.505" width="45.2255" height="44.0032" fill="url(#paint4_linear)"/>
<path opacity="0.2" fill-rule="evenodd" clip-rule="evenodd" d="M311.119 294.621C311.119 285.129 305.001 277.23 296.923 275.563C292.997 267.057 285.046 261.24 275.878 261.24C275.585 261.24 275.294 261.246 275.004 261.258C272.371 254.288 266.188 249.395 258.981 249.395C251.018 249.395 244.306 255.368 242.25 263.516C241.561 263.435 240.862 263.394 240.153 263.394C234.499 263.394 229.398 266.038 225.791 270.279C224.34 270 222.848 269.855 221.326 269.855C206.928 269.855 196.222 278.564 196.222 294.621C232.912 294.621 261.878 294.621 311.119 294.621Z" fill="url(#paint5_radial)"/>
<path opacity="0.2" fill-rule="evenodd" clip-rule="evenodd" d="M-27.4606 294.621C-27.4606 283.076 -20.0407 273.47 -10.2435 271.442C-5.48182 261.098 4.15994 254.023 15.2792 254.023C15.6339 254.023 15.9872 254.03 16.3388 254.044C19.5321 245.568 27.0301 239.617 35.7709 239.617C45.4283 239.617 53.5687 246.881 56.0621 256.791C56.8975 256.692 57.7457 256.642 58.6044 256.642C65.4625 256.642 71.6488 259.859 76.0232 265.016C77.7826 264.677 79.5918 264.5 81.438 264.5C98.8989 264.5 111.883 275.092 111.883 294.621C67.3866 294.621 32.258 294.621 -27.4606 294.621Z" fill="url(#paint6_radial)"/>
<path d="M146.975 115.482C146.563 120.522 145.226 124.471 142.541 126.281C144.756 128.153 150.286 132.088 154.688 132.854C160.19 133.81 167.153 129.306 165.641 129.182C164.633 129.1 163.32 122.398 162.854 119.823C158.401 118.445 147.079 114.207 146.975 115.482Z" fill="#E9A99C"/>
<path d="M168.665 119.795C169.233 117.086 169.083 109.355 168.592 104.723C168.006 98.219 164.751 93.2183 156.655 91.2659C148.558 89.3134 144.877 93.738 143.509 97.9402C141.189 105.068 145.273 113.58 148.085 116.392C150.897 119.205 167.954 123.18 168.665 119.795Z" fill="#F6B3A6"/>
<path d="M144.814 103.935C146.557 103.405 148.125 105.923 148.348 108.517L151.332 109.693C149.792 107.278 147.221 100.506 148.787 97.82C151.168 93.7361 153.023 93.3627 159.451 94.827C163.695 95.7939 166.769 96.6828 168.98 94.827C171.777 92.4795 171.999 89.1475 170.915 86.4829C169.45 82.8861 167.747 82.0401 165.596 83.5817C162.368 85.8941 157.859 83.0981 151.332 84.0908C141.525 85.5822 140.475 93.2774 140.196 96.6892C139.848 100.954 142.24 108.877 144.292 110.332C144.035 108.165 142.588 104.612 144.814 103.935Z" fill="#52385E"/>
<path d="M176.208 188.975L176.208 188.939C176.123 184.146 180.89 180.615 185.526 178.784C190.161 176.953 226.496 176.791 230.225 176.791C232.293 177.817 232.293 180.071 232.293 182.626C207.638 190.873 193.602 198.183 182.977 197.159C176.342 196.519 176.293 193.746 176.208 188.975Z" fill="url(#paint7_linear)"/>
<path fill-rule="evenodd" clip-rule="evenodd" d="M168.981 208.856C174.3 208.856 180.834 210.306 182.334 232.673C183.633 252.048 171.502 288.814 162.287 294.269C151.557 304.533 118.125 330.519 114.206 328.4C110.257 326.265 113.394 321.716 116.761 316.831C117.147 316.271 117.536 315.707 117.918 315.141C119.159 313.302 120.625 310.966 122.236 308.397C128.061 299.109 135.8 286.771 141.785 283.85C143.69 282.919 145.641 282.108 147.551 281.467C145.776 265.047 148.445 231.142 151.089 222.395C154.135 212.323 160.277 208.856 168.981 208.856Z" fill="url(#paint8_linear)"/>
<path fill-rule="evenodd" clip-rule="evenodd" d="M152.54 216.592C159.793 223.846 166.129 231.171 171.398 238.836C172.197 239.997 173.498 241.772 175.106 243.964C183.003 254.733 198.284 275.571 197.577 283.212C201.288 295.819 208.603 337.47 204.683 339.9C201.423 341.921 200.339 340.241 199.297 338.625C198.973 338.123 198.653 337.628 198.273 337.251C192.658 331.681 175.304 299.632 175.838 291.155C175.953 289.322 176.129 287.529 176.382 285.831C176.201 285.794 176.021 285.758 175.841 285.722L175.75 285.703C167.854 284.109 144.865 273.876 132.231 249.957C126.239 238.613 127.395 226.263 131.747 218.527C136.099 210.79 145.287 209.339 152.54 216.592Z" fill="url(#paint9_linear)"/>
<path d="M210.279 348.403C207.63 343.972 208.446 339.235 208.446 327.623C203.556 328.846 197.445 330.068 191.333 331.29C194.389 339.846 196.834 343.513 196.223 349.625C195.612 355.737 196.731 358.854 199.893 358.854C208.616 358.854 223.36 365.942 230.447 358.854C234.114 355.187 212.929 352.833 210.279 348.403Z" fill="#5F3B2C"/>
<path d="M110.66 338.624C113.716 334.246 116.772 331.901 124.106 327.836C121.661 323.956 117.994 319.678 114.939 316.011C110.66 321.512 108.486 324.703 100.613 327.836C94.4471 330.289 92.7374 335.553 95.9927 339.235C99.2481 342.917 97.8262 353.292 102.104 356.959C104.393 358.921 114.354 358.715 118.605 358.181C122.857 357.647 120.439 353.903 113.105 351.458C108.924 350.065 108.617 341.552 110.66 338.624Z" fill="#5F3B2C"/>
<path d="M154.474 131.453C147.221 130.486 144.983 125.865 141.902 126.134C134.34 126.793 125.406 128.427 122.077 132.42C115.79 148.377 117.725 155.146 119.659 163.85C122.894 178.408 132.231 203.984 134.649 214.622C145.256 220.456 170.193 221.954 179.135 215.589C180.726 210.286 180.816 207.229 184.454 192.379C187.847 178.527 192.762 169.169 190.256 150.794C188.806 140.156 178.651 129.035 164.628 129.035C160.385 132.217 159.1 132.07 154.474 131.453Z" fill="url(#paint10_linear)"/>
<path d="M244.413 123.232C242.58 123.232 211.443 117.43 196.543 117.43V87.4501C209.724 87.4501 230.56 91.1609 243.454 94.8822C243.454 103.47 244.413 112.641 244.413 123.232Z" fill="url(#paint11_linear)"/>
<path d="M181.069 94.2197C182.184 93.0747 193.289 88.4997 196.542 87.4501L196.542 120.331H181.069C180.325 110.789 179.954 95.3647 181.069 94.2197Z" fill="url(#paint12_linear)"/>
<path d="M256.343 176.725C252.949 176.725 212.323 181.498 184.744 181.498L184.744 115.203C204.279 115.203 241.512 119.364 254.568 124.199C254.568 140.11 256.343 157.102 256.343 176.725Z" fill="url(#paint13_linear)"/>
<path d="M163.529 123.689C165.651 121.567 178.556 117.147 184.744 115.203V181.498L165.121 179.377C163.706 161.698 161.408 125.81 163.529 123.689Z" fill="url(#paint14_linear)"/>
<path fill-rule="evenodd" clip-rule="evenodd" d="M117.725 134.837C125.461 126.989 132.757 128.942 138.034 134.837C146.847 144.685 150.596 168.276 151.59 179.561C157.017 179.315 167.841 179.924 177.371 180.46C186.621 180.981 194.654 181.433 195.351 180.968C197.993 181.258 199.443 184.159 198.533 187.863C196.927 187.863 191.475 189.545 184.503 191.697C172.813 195.304 156.85 200.23 147.579 200.753C142.985 202.309 137.168 199.364 132.57 194.062C127.628 188.363 118.494 177.25 113.856 167.235C109.174 157.124 109.988 142.686 117.725 134.837Z" fill="url(#paint15_linear)"/>
<path d="M201.862 176.906C200.572 178.84 197.187 180.452 195.576 181.258C197.993 182.708 197.51 185.126 197.993 187.544C198.38 187.544 205.246 186.415 208.631 186.093C209.276 185.61 211.436 184.933 212.983 182.225C214.917 178.84 213.95 171.587 212.983 171.103C212.209 170.716 206.214 171.426 203.312 172.07C202.668 172.554 203.151 174.972 201.862 176.906Z" fill="#F6B3A6"/>
<path d="M235.226 176.422C234.082 178.118 233.272 178.134 231.841 178.84C232.325 179.807 232.325 180.774 231.841 182.708C232.185 182.708 238.974 181.236 241.978 180.953C242.55 180.53 244.467 179.936 245.84 177.563C247.557 174.596 246.698 168.239 245.84 167.815C245.153 167.476 239.832 168.097 237.257 168.662C236.685 169.086 236.37 174.727 235.226 176.422Z" fill="#F6B3A6"/>
</g>
<defs>
<linearGradient id="paint0_linear" x1="247.846" y1="127.164" x2="247.783" y2="300.813" gradientUnits="userSpaceOnUse">
<stop stop-color="#2B485C" stop-opacity="0.06"/>
<stop offset="1" stop-color="#2B485C" stop-opacity="0"/>
</linearGradient>
<radialGradient id="paint1_radial" cx="0" cy="0" r="1" gradientUnits="userSpaceOnUse" gradientTransform="translate(178.499 271.564) rotate(90) scale(80.3709 192.743)">
<stop stop-color="#325362" stop-opacity="0.1"/>
<stop offset="1" stop-color="#517281" stop-opacity="0"/>
</radialGradient>
<linearGradient id="paint2_linear" x1="94.7706" y1="202.948" x2="94.7066" y2="251.387" gradientUnits="userSpaceOnUse">
<stop stop-color="white"/>
<stop offset="1" stop-color="white" stop-opacity="0"/>
</linearGradient>
<linearGradient id="paint3_linear" x1="158.331" y1="202.948" x2="158.267" y2="251.387" gradientUnits="userSpaceOnUse">
<stop stop-color="white"/>
<stop offset="1" stop-color="white" stop-opacity="0"/>
</linearGradient>
<linearGradient id="paint4_linear" x1="294.619" y1="222.505" x2="294.573" y2="269.635" gradientUnits="userSpaceOnUse">
<stop stop-color="white"/>
<stop offset="1" stop-color="white" stop-opacity="0"/>
</linearGradient>
<radialGradient id="paint5_radial" cx="0" cy="0" r="1" gradientUnits="userSpaceOnUse" gradientTransform="translate(253.669 223.913) rotate(90) scale(67.0871 259.015)">
<stop stop-color="#3EB366"/>
<stop offset="1" stop-color="#3EB366" stop-opacity="0"/>
</radialGradient>
<radialGradient id="paint6_radial" cx="0" cy="0" r="1" gradientUnits="userSpaceOnUse" gradientTransform="translate(42.2127 208.624) rotate(90) scale(81.5924 314.125)">
<stop stop-color="#3EB366"/>
<stop offset="1" stop-color="#3EB366" stop-opacity="0"/>
</radialGradient>
<linearGradient id="paint7_linear" x1="226.013" y1="201.603" x2="183.609" y2="190.644" gradientUnits="userSpaceOnUse">
<stop stop-color="#753CD3"/>
<stop offset="1" stop-color="#4C259D"/>
</linearGradient>
<linearGradient id="paint8_linear" x1="163.831" y1="223.116" x2="104.198" y2="320.804" gradientUnits="userSpaceOnUse">
<stop stop-color="#FFBD59"/>
<stop offset="1" stop-color="#EC882C"/>
</linearGradient>
<linearGradient id="paint9_linear" x1="113.105" y1="221.282" x2="188.615" y2="300.751" gradientUnits="userSpaceOnUse">
<stop stop-color="#FFBD59"/>
<stop offset="1" stop-color="#EC882C"/>
</linearGradient>
<linearGradient id="paint10_linear" x1="165.43" y1="181.912" x2="185.79" y2="235.282" gradientUnits="userSpaceOnUse">
<stop stop-color="#753CD3"/>
<stop offset="1" stop-color="#4C259D"/>
</linearGradient>
<linearGradient id="paint11_linear" x1="229.042" y1="81.6054" x2="205.304" y2="123.123" gradientUnits="userSpaceOnUse">
<stop stop-color="#FACB85"/>
<stop offset="1" stop-color="#DCA470"/>
</linearGradient>
<linearGradient id="paint12_linear" x1="196.644" y1="87.6081" x2="175.618" y2="92.9949" gradientUnits="userSpaceOnUse">
<stop stop-color="#FACB85"/>
<stop offset="1" stop-color="#DCA470"/>
</linearGradient>
<linearGradient id="paint13_linear" x1="244.897" y1="104.374" x2="220.72" y2="181.258" gradientUnits="userSpaceOnUse">
<stop stop-color="#FACB85"/>
<stop offset="1" stop-color="#D99D65"/>
</linearGradient>
<linearGradient id="paint14_linear" x1="184.937" y1="115.496" x2="145.075" y2="125.98" gradientUnits="userSpaceOnUse">
<stop stop-color="#FACB85"/>
<stop offset="1" stop-color="#DCA470"/>
</linearGradient>
<linearGradient id="paint15_linear" x1="118.666" y1="151.798" x2="180.623" y2="189.614" gradientUnits="userSpaceOnUse">
<stop stop-color="#753CD3"/>
<stop offset="1" stop-color="#4C259D"/>
</linearGradient>
</defs>
</svg>
