<svg width="338" height="445" viewBox="0 0 338 445" fill="none" xmlns="http://www.w3.org/2000/svg">
<rect y="0.642578" width="337.845" height="444.357" rx="20" fill="white"/>
<mask id="mask0" mask-type="alpha" maskUnits="userSpaceOnUse" x="0" y="0" width="338" height="445">
<rect y="0.642578" width="337.845" height="444.357" rx="20" fill="white"/>
</mask>
<g mask="url(#mask0)">
<rect opacity="0.12" x="19" y="44" width="300" height="279" fill="url(#paint0_radial)"/>
<rect opacity="0.12" width="300" height="81" transform="matrix(1 0 0 -1 19 404)" fill="url(#paint1_radial)"/>
<rect opacity="0.15" x="187" y="72" width="98" height="249" fill="url(#paint2_radial)" stroke="#A6B6C7" stroke-width="4"/>
<path opacity="0.25" fill-rule="evenodd" clip-rule="evenodd" d="M27.3503 207.494C29.8836 195.631 41.1547 192.856 50.4024 191.768C50.8886 191.711 51.3883 191.649 51.8989 191.586C61.1011 190.45 73.8502 188.875 74.8811 205.367C75.9692 222.774 54.2102 228.214 54.2102 228.214C54.0035 228.245 53.7976 228.274 53.5927 228.302C54.4777 240.552 57.0828 257.783 63.1537 264.826C67.7243 263.062 72.4517 262.18 72.4517 262.18C72.4517 262.18 117.307 246.862 124.451 265.799C128.595 276.783 108.54 281.744 89.0496 282.132L88.7291 323.679C95.2915 323.854 100.517 325.015 101.421 326.487L101.435 326.471C103.682 326.606 105.973 326.75 108.066 327.573C110.16 328.396 112.063 330.027 112.615 332.2C113.168 334.374 111.964 337.013 109.778 337.547C107.591 338.081 105.128 335.688 106 333.621C106.17 333.219 106.435 332.866 106.7 332.514C107.004 332.109 107.307 331.705 107.465 331.229C107.958 329.734 107.049 328.515 105.57 327.965C104.526 327.578 102.479 327.499 101.362 327.486C100.413 328.774 96.1439 329.809 90.6063 330.128C92.9536 330.629 94.9679 332.841 94.8951 335.278C94.8039 338.33 91.465 340.837 88.4937 340.085C85.5349 339.337 83.8204 335.434 85.4583 332.867C86.4378 331.332 88.4497 330.745 90.2092 331.093L88.9361 330.2C88.3047 330.219 87.6605 330.229 87.0062 330.229C80.4501 330.229 74.9064 329.25 73.0854 327.904C70.0566 327.866 67.4112 328.271 65.8916 329.973C66.7664 330.211 67.5963 330.574 68.3154 331.124C69.7294 332.206 70.6046 334.124 70.0492 335.811C69.2861 338.129 65.9477 338.922 63.9709 337.482C61.9945 336.042 61.5653 333.053 62.6813 330.882C62.9207 330.416 63.6221 329.534 63.6221 329.534C64.8733 328.148 66.7024 327.269 68.5717 326.972C69.8971 326.762 71.2409 326.551 72.5688 326.525C73.4328 324.987 79.0063 323.781 85.9237 323.666L86.2439 282.156C73.144 282.123 60.8462 280.032 56.9997 276.331C52.2798 271.79 55.6777 268.343 60.4751 265.988C57.1467 261.712 54.5775 254.609 52.7967 244.726C51.7511 238.924 51.1619 233.101 50.8312 228.565C34.846 229.444 24.9799 218.593 27.3503 207.494Z" fill="url(#paint3_radial)"/>
<path d="M169.161 131.458C170.556 127.972 170.207 122.628 169.859 119.258C173.693 116.47 178.224 114.727 184.15 114.727C184.15 121.001 185.893 127.275 187.636 130.064C182.407 132.155 177.527 133.898 169.161 131.458Z" fill="#E9A99C"/>
<path d="M164.691 122.066C162.994 119.897 160.751 110.518 160.448 106.702C160.448 96.7612 164.085 91.3387 172.875 90.435C181.665 89.5312 186.212 94.3512 187.424 102.485C188.637 110.619 184.393 117.246 181.059 119.054C176.481 121.536 166.813 124.777 164.691 122.066Z" fill="#F6B3A6"/>
<path d="M160.099 98.3437C156.311 96.8285 154.173 92.7667 154.522 88.2352C154.871 83.7038 158.152 83.9651 163.585 85.4467C167.419 86.4923 176.482 84.5868 181.013 85.7952C186.242 87.1895 189.728 91.3723 190.076 96.9495C190.355 101.411 188.682 111.938 186.242 113.681C186.242 109.498 189.031 104.27 184.499 102.178C181.892 100.975 181.013 106.71 180.316 107.755C178.573 107.755 181.252 99.0266 177.876 96.9495C173.345 94.1609 165.328 100.435 160.099 98.3437Z" fill="#714949"/>
<path fill-rule="evenodd" clip-rule="evenodd" d="M158.167 212.931C166.747 208.027 178.666 212.203 185.504 223.033C191.561 232.626 194.673 262.826 194.797 274.25C199.538 276.377 204.657 279.988 207.552 283.377C209.765 285.97 212.329 290.69 215.25 296.068C219.497 303.887 224.498 313.095 230.275 319.171C233.35 322.406 231.908 327.644 225.949 325.157C220.538 322.899 195.043 299.325 186.789 291.692C185.954 290.921 185.296 290.312 184.852 289.905C182.898 288.11 181.733 286.317 181.15 284.587C173.041 278.216 161.056 259.054 154.624 245.708C149.268 234.595 149.588 217.836 158.167 212.931Z" fill="url(#paint4_linear)"/>
<path fill-rule="evenodd" clip-rule="evenodd" d="M198.397 214.574C206.206 222.415 203.182 234.819 195.374 245.708C188.995 254.604 168.48 270.186 157.562 276.306C157.119 281.979 155.698 288.488 154.189 293.418C152.433 299.154 146.449 307.885 140.027 317.255C134.781 324.909 129.242 332.989 125.477 340.212C122.836 345.279 115.906 348.897 116.704 340.212C117.239 334.383 125.896 310.132 132.254 292.321C135.368 283.598 137.93 276.42 138.717 273.707C139.155 272.197 139.75 270.85 140.467 269.667C140.508 269.384 140.556 269.094 140.612 268.796C142.564 258.342 153.106 237.104 164.038 225.238C172.659 215.88 190.588 206.734 198.397 214.574Z" fill="url(#paint5_linear)"/>
<path d="M97.6294 205.402C104.306 205.982 109.045 204.574 110.414 203.993L109.278 198.855C108.494 197.248 104.123 195.688 101.604 196.089C94.7827 197.176 87.8944 194.478 83.6104 193.686C79.3265 192.894 78.5003 194.625 80.8919 197.649C84.8138 202.609 92.5087 204.957 97.6294 205.402Z" fill="#F6B3A6"/>
<path fill-rule="evenodd" clip-rule="evenodd" d="M161.186 129.423C169.226 130.138 171.023 138.79 170.647 146.374C170.259 154.218 160.491 176.928 154.958 184.99C153.833 188.157 150.258 191.269 146.036 193.51C139.42 197.02 113.681 204.474 107.879 205.255C105.486 203.298 105.681 201.076 105.882 198.783C105.939 198.137 105.996 197.486 105.996 196.834C110.473 194.721 116.848 191.137 122.965 187.699C128.856 184.387 134.508 181.21 137.995 179.61C136.936 170.424 138.953 157.293 140.687 150.317C143.819 137.716 153.146 128.708 161.186 129.423Z" fill="url(#paint6_linear)"/>
<path d="M122.409 353.113C126.118 352.771 127.522 345.282 128.738 338.571C126.952 335.394 125.124 332.838 119.87 331.9C113.302 330.727 117.313 333.171 108.095 338.947C100.024 344.004 80.9488 343.564 84.1985 348.468C87.5281 353.493 95.2718 356.744 107.854 353.309C115.111 351.328 118.7 353.454 122.409 353.113Z" fill="#38342F"/>
<path d="M241.214 330.869C242.315 327.38 234.752 319.392 229.781 315.1C226.236 315.06 222.177 318.614 218.743 322.59C222.291 328.109 222.685 332.84 221.503 337.965C219.418 346.999 209.609 352.839 215.195 354.128C220.32 355.311 229.781 354.522 232.935 345.061C236.617 334.016 239.346 336.782 241.214 330.869Z" fill="#38342F"/>
<path d="M202.186 219.699C209.282 193.681 213.62 177.134 205.339 146.769C202.045 134.689 198.1 127.21 185.628 125.481C180.109 129.029 174.59 128.634 169.86 126.269C143.447 129.029 144.873 151.951 145.812 162.931C147.372 181.165 158.611 188.57 154.624 216.918C161.644 221.58 185.333 224.785 202.186 219.699Z" fill="url(#paint7_linear)"/>
<ellipse cx="230.551" cy="219.553" rx="20.7952" ry="4.24393" transform="rotate(-30 230.551 219.553)" fill="#181818"/>
<rect x="217.089" y="210.664" width="14.4294" height="13.5806" transform="rotate(-30 217.089 210.664)" fill="#181818"/>
<rect x="156.85" y="182.717" width="90.82" height="56.8686" rx="3" transform="rotate(-30 156.85 182.717)" fill="url(#paint8_linear)"/>
<rect x="161.487" y="183.96" width="84.0298" height="50.0783" rx="3" transform="rotate(-30 161.487 183.96)" fill="url(#paint9_linear)"/>
<path d="M167.897 205.732C169.596 203.404 178.513 199.214 183.609 199.679C186.299 201.076 191.168 204.242 189.13 205.732C186.582 207.594 184.883 213.182 181.911 215.51C180.528 216.592 177.239 220.166 173.842 216.906C169.838 213.065 166.198 208.06 167.897 205.732Z" fill="#F6B3A6"/>
<path fill-rule="evenodd" clip-rule="evenodd" d="M193.775 129.565C206.943 124.411 217.345 138.512 220.097 144.882C222.849 151.253 232.73 176.473 232.47 182.032C232.339 184.828 230.206 187.337 227.284 188.543C218.825 194.677 196.756 203.258 188.782 206.296C186.383 205.663 183.309 202.42 182.869 200.382C192.978 191.647 202.278 184.823 209.174 179.89C201.459 172.153 192.362 161.485 189.57 157.018C185.628 150.711 180.606 134.718 193.775 129.565Z" fill="url(#paint10_linear)"/>
<path d="M70.9104 103.237C86.413 112.095 97.0433 146.201 93.9428 167.904C97.4862 169.233 99.701 144.429 97.9292 133.799C96.1574 123.169 85.5271 106.78 70.9104 103.237Z" fill="url(#paint11_linear)"/>
<path d="M122.953 134.101C104.64 142.414 102.762 152.842 98.2231 162.187C97.0063 162.919 94.8242 154.132 98.1002 146.07C100.176 140.961 107.914 132.741 122.953 134.101Z" fill="url(#paint12_linear)"/>
<path d="M51.4216 140C70.4676 140.886 85.5272 154.174 91.7282 167.018C93.5 168.347 92.1712 153.288 87.2989 146.644C82.0997 139.554 69.5817 134.242 51.4216 140Z" fill="url(#paint13_linear)"/>
<path d="M128.048 111.652C108.559 115.639 98.372 150.63 96.6003 169.233C95.5807 171.924 93.3566 151.327 95.7145 140.885C98.8149 127.155 109.445 112.981 128.048 111.652Z" fill="url(#paint14_linear)"/>
<path d="M58.5082 122.283C85.9698 128.926 87.7415 155.059 93.0567 167.018C94.8284 168.347 96.1572 155.945 92.1708 142.657C89.6445 134.236 79.3259 121.397 58.5082 122.283Z" fill="url(#paint15_linear)"/>
<path d="M127.418 147.071C108.116 150.187 103.438 159.697 96.6003 167.461C95.2673 167.84 95.7234 158.827 101.03 151.959C104.392 147.606 113.875 141.771 127.418 147.071Z" fill="url(#paint16_linear)"/>
<path d="M76.0877 172.952C75.2777 170.375 77.2023 167.753 79.9036 167.753H110.032C112.649 167.753 114.561 170.225 113.903 172.758L108.39 193.991C107.932 195.755 106.34 196.986 104.518 196.986H86.5777C84.8306 196.986 83.2857 195.852 82.7618 194.185L76.0877 172.952Z" fill="url(#paint17_linear)"/>
<path d="M81.0979 162.88C78.8832 162.88 76.6686 164.209 76.2256 165.538H112.989C112.546 165.095 111.45 163.825 109.445 163.323C107.441 162.822 105.902 162.88 102.358 163.766C101.473 162.88 97.8005 161.342 94.8287 163.323C93.9428 162.585 92.614 161.552 89.9565 161.552C87.2989 161.552 85.6748 162.733 85.0842 163.766C84.4937 163.471 82.2184 162.88 81.0979 162.88Z" fill="#383838"/>
<rect x="70.9107" y="165.095" width="46.9505" height="7.97273" rx="3.98637" fill="url(#paint18_linear)"/>
</g>
<defs>
<radialGradient id="paint0_radial" cx="0" cy="0" r="1" gradientUnits="userSpaceOnUse" gradientTransform="translate(79 354) rotate(-51.5463) scale(477.582 218.146)">
<stop stop-color="#485E80" stop-opacity="0.51"/>
<stop offset="1" stop-color="#495F80" stop-opacity="0"/>
</radialGradient>
<radialGradient id="paint1_radial" cx="0" cy="0" r="1" gradientUnits="userSpaceOnUse" gradientTransform="translate(142 94) rotate(-90.2677) scale(107.001 128.294)">
<stop stop-color="#485E80" stop-opacity="0.51"/>
<stop offset="1" stop-color="#495F80" stop-opacity="0"/>
</radialGradient>
<radialGradient id="paint2_radial" cx="0" cy="0" r="1" gradientUnits="userSpaceOnUse" gradientTransform="translate(246.5 114.5) rotate(107.554) scale(256.965 105.9)">
<stop stop-color="#485E80" stop-opacity="0.51"/>
<stop offset="1" stop-color="#495F80" stop-opacity="0"/>
</radialGradient>
<radialGradient id="paint3_radial" cx="0" cy="0" r="1" gradientUnits="userSpaceOnUse" gradientTransform="translate(36.8036 339.727) rotate(-51.4678) scale(228.78 133.472)">
<stop stop-color="#485E80" stop-opacity="0.51"/>
<stop offset="1" stop-color="#495F80" stop-opacity="0"/>
</radialGradient>
<linearGradient id="paint4_linear" x1="166.915" y1="205.279" x2="167.887" y2="305.571" gradientUnits="userSpaceOnUse">
<stop stop-color="#5495AA"/>
<stop offset="1" stop-color="#215880"/>
</linearGradient>
<linearGradient id="paint5_linear" x1="163.634" y1="223.641" x2="136.462" y2="345.285" gradientUnits="userSpaceOnUse">
<stop stop-color="#5495AA"/>
<stop offset="1" stop-color="#215880"/>
</linearGradient>
<linearGradient id="paint6_linear" x1="160.107" y1="142.038" x2="144.175" y2="202.913" gradientUnits="userSpaceOnUse">
<stop stop-color="#53C46C"/>
<stop offset="1" stop-color="#1F964F"/>
</linearGradient>
<linearGradient id="paint7_linear" x1="197.849" y1="142.826" x2="162.689" y2="197.157" gradientUnits="userSpaceOnUse">
<stop stop-color="#53C46C"/>
<stop offset="1" stop-color="#1F964F"/>
</linearGradient>
<linearGradient id="paint8_linear" x1="247.642" y1="171.321" x2="156.762" y2="243.578" gradientUnits="userSpaceOnUse">
<stop/>
<stop offset="1" stop-color="#606060"/>
</linearGradient>
<linearGradient id="paint9_linear" x1="242.739" y1="165.621" x2="172.031" y2="243.151" gradientUnits="userSpaceOnUse">
<stop stop-color="#6F6F6F"/>
<stop offset="1" stop-color="#242424"/>
</linearGradient>
<linearGradient id="paint10_linear" x1="232.54" y1="150.981" x2="199.196" y2="202.353" gradientUnits="userSpaceOnUse">
<stop stop-color="#53C46C"/>
<stop offset="1" stop-color="#2D9D5A"/>
</linearGradient>
<linearGradient id="paint11_linear" x1="88.2225" y1="140.578" x2="96.6633" y2="117.002" gradientUnits="userSpaceOnUse">
<stop stop-color="#2D8E4E"/>
<stop offset="1" stop-color="#8AD05F"/>
</linearGradient>
<linearGradient id="paint12_linear" x1="99.4338" y1="158.529" x2="121.432" y2="143.238" gradientUnits="userSpaceOnUse">
<stop stop-color="#3DAA62"/>
<stop offset="1" stop-color="#8AD05F"/>
</linearGradient>
<linearGradient id="paint13_linear" x1="85.4753" y1="163.681" x2="64.8383" y2="136.921" gradientUnits="userSpaceOnUse">
<stop stop-color="#3DAA62"/>
<stop offset="1" stop-color="#8AD05F"/>
</linearGradient>
<linearGradient id="paint14_linear" x1="99.2259" y1="164.436" x2="91.0705" y2="136.176" gradientUnits="userSpaceOnUse">
<stop stop-color="#2D8E4E"/>
<stop offset="1" stop-color="#8AD05F"/>
</linearGradient>
<linearGradient id="paint15_linear" x1="85.7852" y1="164.28" x2="71.6032" y2="134.992" gradientUnits="userSpaceOnUse">
<stop stop-color="#2E824A"/>
<stop offset="1" stop-color="#8AD05F"/>
</linearGradient>
<linearGradient id="paint16_linear" x1="100.533" y1="166.99" x2="116.517" y2="152.213" gradientUnits="userSpaceOnUse">
<stop stop-color="#2E824A"/>
<stop offset="1" stop-color="#8AD05F"/>
</linearGradient>
<linearGradient id="paint17_linear" x1="107.23" y1="168.639" x2="99.7004" y2="197.872" gradientUnits="userSpaceOnUse">
<stop stop-color="#FFC875"/>
<stop offset="1" stop-color="#E09147"/>
</linearGradient>
<linearGradient id="paint18_linear" x1="73.5683" y1="185.913" x2="76.0999" y2="159.113" gradientUnits="userSpaceOnUse">
<stop stop-color="#FFC875"/>
<stop offset="1" stop-color="#E09147"/>
</linearGradient>
</defs>
</svg>
