<svg width="338" height="445" viewBox="0 0 338 445" fill="none" xmlns="http://www.w3.org/2000/svg">
<rect width="337.845" height="444.357" rx="20" fill="white"/>
<mask id="mask0" mask-type="alpha" maskUnits="userSpaceOnUse" x="0" y="0" width="338" height="445">
<rect width="337.845" height="444.357" rx="20" fill="white"/>
</mask>
<g mask="url(#mask0)">
<rect width="338" height="92" transform="matrix(-1 0 0 1 374 290)" fill="url(#paint0_radial)"/>
<path opacity="0.2" fill-rule="evenodd" clip-rule="evenodd" d="M172 290H-106C-94.5 244 -37.3803 199 48.5 199C115.6 199 168.501 231.355 192.244 263.63C215.285 243.407 252.029 228 286.5 228C335 228 386 256.5 396 290H205H172Z" fill="url(#paint1_radial)"/>
<path opacity="0.2" fill-rule="evenodd" clip-rule="evenodd" d="M125.928 166.968C123.158 167.125 120.96 169.421 120.96 172.23C120.96 172.671 121.014 173.099 121.116 173.508C119.14 174.976 117.86 177.329 117.86 179.98C117.86 181.528 118.297 182.975 119.054 184.203C117.193 185.679 116 187.96 116 190.52C116 194.611 119.048 197.99 122.997 198.51C124.306 201.601 127.1 203.819 130.406 204.124L128.4 230.2H134.6L132.588 204.044C135.939 203.485 138.676 200.948 139.722 197.585C142.213 196.214 143.9 193.564 143.9 190.52C143.9 189.977 143.846 189.446 143.744 188.933C145.72 187.464 147 185.111 147 182.46C147 178.43 144.042 175.091 140.179 174.495C140.18 174.463 140.18 174.432 140.18 174.4C140.18 171.542 138.693 169.032 136.45 167.601C136.457 167.491 136.46 167.381 136.46 167.27C136.46 164.359 134.101 162 131.19 162C128.381 162 126.085 164.198 125.928 166.968Z" fill="url(#paint2_radial)"/>
<path opacity="0.2" fill-rule="evenodd" clip-rule="evenodd" d="M89.6761 135.207C86.2153 135.402 83.4691 138.27 83.4691 141.78C83.4691 142.33 83.5366 142.865 83.6639 143.376C81.1955 145.211 79.5964 148.15 79.5964 151.462C79.5964 153.396 80.1419 155.203 81.0876 156.738C78.7635 158.582 77.2731 161.432 77.2731 164.629C77.2731 169.74 81.0805 173.961 86.0135 174.611C87.6491 178.472 91.1396 181.242 95.2694 181.624L92.7636 214.2H100.509L97.9955 181.525C102.182 180.826 105.602 177.656 106.909 173.455C110.02 171.742 112.127 168.432 112.127 164.629C112.127 163.95 112.06 163.287 111.932 162.646C114.401 160.811 116 157.872 116 154.56C116 149.526 112.305 145.354 107.48 144.609C107.48 144.57 107.48 144.53 107.48 144.491C107.48 140.921 105.622 137.784 102.82 135.996C102.828 135.86 102.833 135.722 102.833 135.584C102.833 131.948 99.8852 129 96.2491 129C92.7395 129 89.8713 131.746 89.6761 135.207Z" fill="url(#paint3_radial)"/>
<path opacity="0.2" fill-rule="evenodd" clip-rule="evenodd" d="M329.58 124.839C329.593 124.628 329.599 124.415 329.599 124.2C329.599 118.567 325.033 114 319.399 114C313.962 114 309.518 118.255 309.216 123.617C303.854 123.919 299.599 128.363 299.599 133.8C299.599 134.653 299.704 135.481 299.901 136.273C296.077 139.116 293.6 143.669 293.6 148.8C293.6 151.797 294.445 154.597 295.91 156.974C292.309 159.832 290 164.246 290 169.2C290 177.118 295.899 183.659 303.542 184.666C306.076 190.647 311.483 194.939 317.882 195.531L313.999 246.001H325.999L322.105 195.377C328.591 194.295 333.89 189.384 335.915 182.874C340.735 180.22 344 175.092 344 169.2C344 168.149 343.896 167.121 343.698 166.128C347.522 163.285 350 158.732 350 153.6C350 145.801 344.276 139.338 336.799 138.184C336.8 138.123 336.8 138.061 336.8 138C336.8 132.469 333.921 127.609 329.58 124.839Z" fill="url(#paint4_radial)"/>
<path opacity="0.2" fill-rule="evenodd" clip-rule="evenodd" d="M264.213 162.062C264.205 161.924 264.2 161.785 264.2 161.646C264.2 157.975 267.176 155 270.846 155C274.389 155 277.284 157.772 277.481 161.265C280.974 161.462 283.746 164.358 283.746 167.9C283.746 168.456 283.678 168.995 283.549 169.511C286.041 171.364 287.655 174.33 287.655 177.673C287.655 179.626 287.104 181.45 286.15 182.998C288.496 184.86 290 187.736 290 190.964C290 196.123 286.157 200.384 281.178 201.04C279.527 204.937 276.003 207.733 271.835 208.119L274.364 241.001H266.546L269.083 208.019C264.858 207.314 261.405 204.114 260.086 199.873C256.946 198.143 254.818 194.802 254.818 190.964C254.818 190.279 254.886 189.61 255.015 188.962C252.524 187.11 250.909 184.144 250.909 180.8C250.909 175.719 254.639 171.508 259.51 170.756C259.509 170.716 259.509 170.676 259.509 170.637C259.509 167.033 261.385 163.867 264.213 162.062Z" fill="url(#paint5_radial)"/>
<path opacity="0.2" fill-rule="evenodd" clip-rule="evenodd" d="M216.265 202.371C218.703 202.509 220.637 204.528 220.637 207C220.637 207.388 220.589 207.764 220.499 208.124C222.238 209.417 223.364 211.486 223.364 213.818C223.364 215.181 222.98 216.453 222.314 217.534C223.95 218.833 225 220.839 225 223.091C225 226.69 222.319 229.663 218.844 230.121C217.693 232.84 215.234 234.791 212.326 235.06L214.091 258.001H208.636L210.406 234.99C207.458 234.498 205.05 232.265 204.129 229.307C201.939 228.1 200.454 225.769 200.454 223.091C200.454 222.613 200.502 222.146 200.592 221.695C198.853 220.402 197.727 218.333 197.727 216C197.727 212.455 200.329 209.517 203.727 208.993C203.727 208.965 203.727 208.937 203.727 208.909C203.727 206.395 205.035 204.186 207.009 202.927C207.003 202.831 207 202.734 207 202.636C207 200.076 209.076 198 211.636 198C214.108 198 216.128 199.934 216.265 202.371Z" fill="url(#paint6_radial)"/>
<path opacity="0.2" fill-rule="evenodd" clip-rule="evenodd" d="M63.955 155.027C66.7577 155.185 68.9816 157.508 68.9816 160.35C68.9816 160.796 68.9269 161.229 68.8239 161.643C70.8229 163.129 72.118 165.509 72.118 168.191C72.118 169.758 71.6763 171.221 70.9105 172.463C72.7928 173.957 73.9999 176.265 73.9999 178.855C73.9999 182.994 70.9161 186.413 66.9206 186.939C65.5961 190.065 62.7695 192.309 59.4252 192.618L61.4545 219H55.1818L57.2174 192.538C53.8271 191.972 51.057 189.405 49.9984 186.002C47.4792 184.615 45.7724 181.934 45.7724 178.855C45.7724 178.305 45.8268 177.768 45.9305 177.248C43.9314 175.762 42.6362 173.382 42.6362 170.7C42.6362 166.623 45.6282 163.245 49.5362 162.641C49.5358 162.609 49.5356 162.577 49.5356 162.545C49.5356 159.654 51.0407 157.114 53.3102 155.666C53.3034 155.555 53.2999 155.444 53.2999 155.332C53.2999 152.387 55.6871 150 58.6317 150C61.4741 150 63.7969 152.224 63.955 155.027Z" fill="url(#paint7_radial)"/>
<path fill-rule="evenodd" clip-rule="evenodd" d="M150.001 123.39C139.019 120.314 130.585 129.871 126.67 137.529C114.756 160.83 114.129 178.085 116.721 182.665C116.824 182.846 116.93 183.023 117.04 183.195C117.283 183.84 117.591 184.517 117.968 185.226C122.283 193.333 138.389 212.687 151.823 224.086C152.362 223.957 153.105 223.854 153.932 223.739C156.622 223.365 160.19 222.87 160.421 220.977C155.15 212.15 151.288 203.783 147.836 196.305C144.601 189.297 141.726 183.068 138.389 177.972C137.738 176.977 137.109 176.092 136.501 175.307C144.478 166.259 151.405 157.151 155.683 149.276C162.199 137.279 160.982 126.466 150.001 123.39Z" fill="url(#paint8_linear)"/>
<path fill-rule="evenodd" clip-rule="evenodd" d="M138.378 209.789C149.601 202.631 164.57 209.34 174.559 221.061C188.56 237.491 201.727 259.818 203.927 270.646C205.607 273.444 206.94 277.523 207.913 282.567C208.787 287.099 210.004 293.075 211.331 299.593C214.504 315.168 218.305 333.835 219.553 343.268C220.406 349.717 211.382 353.136 208.628 343.404C206.152 334.654 200.952 326.108 196.015 317.995C190.142 308.342 184.641 299.302 184.547 291.261C184.477 285.311 185.211 280.477 186.801 276.598C186.348 276.373 185.891 276.139 185.433 275.898C161.073 263.053 138.378 248.594 132.136 233.966C129.172 227.018 127.155 216.947 138.378 209.789Z" fill="url(#paint9_linear)"/>
<path fill-rule="evenodd" clip-rule="evenodd" d="M164.777 206.085C172.985 213.558 172.795 219.118 168.482 236.3C164.816 250.905 157.813 270.482 151.398 281.572C151.453 284.014 149.871 287.285 146.384 291.99C137.296 304.252 110.668 337.249 101.541 344.501C96.6808 348.361 92.8471 343.483 97.589 334.673C101.673 327.085 105.429 318.422 108.962 310.273C113.847 299.005 118.305 288.72 122.616 283.623C125.97 279.658 129.442 277.051 132.911 275.648C132.732 275.011 132.548 274.363 132.356 273.707C128.377 260.142 120.777 226.464 134.672 213.495C145.032 203.825 156.57 198.611 164.777 206.085Z" fill="url(#paint10_linear)"/>
<path d="M139.436 125.921C141.537 120.564 142.88 111.08 142.305 102.243C148.749 103.39 155.486 106.737 157.81 112.328C156.617 116.582 157.023 122.82 158.757 126.883C156.873 128.05 145.629 130.738 139.436 125.921Z" fill="#EBB89C"/>
<path d="M162.462 119.472C165.006 117.507 167.591 109.779 168.483 100.946C169.375 92.1125 167.014 86.2183 157.487 84.4228C149.879 82.9889 143.491 86.7535 141.496 94.7479C139.611 102.298 141.171 107.999 143.472 111.502C146.383 115.934 159.918 121.438 162.462 119.472Z" fill="#F6C3A6"/>
<path d="M138.547 92.6221C137.92 97.5632 139.054 103.635 141.624 107.851C141.288 104.632 139.752 98.8068 142.444 97.8029C145.136 96.799 147.364 99.8142 147.248 103.017L149.044 103.54C148.512 101.536 146.548 97.4782 148.521 92.985C149.51 90.7306 151.368 88.0452 156.847 88.7074C162.27 89.3628 164.478 93.365 169.98 91.2194C173.203 89.9625 175.9 83.7011 175.075 79.1771C170.907 81.0298 167.26 80.6602 164.422 80.1034C161.585 79.5467 160.09 77.6658 150.99 78.2508C141.89 78.8358 139.184 87.6065 138.547 92.6221Z" fill="#714949"/>
<path d="M171.668 216.599C165.957 187.778 175.179 181.647 177.603 157.316C179.04 142.887 169.428 129.578 158.293 124.568C153.662 125.494 149.493 125.494 140.693 122.715C131.893 125.957 124.625 131.365 122.603 149.353C119.725 174.943 135.554 184.43 130.826 217.655C143.721 222.849 160.918 222.843 171.668 216.599Z" fill="url(#paint11_linear)"/>
<path fill-rule="evenodd" clip-rule="evenodd" d="M141.101 126.937C128.768 130.899 128.974 145.012 131.182 154.198C135.158 170.742 142.75 182.502 149.829 189.335C149.932 189.631 150.059 189.929 150.21 190.231C152.897 195.605 158.553 198.774 164.719 197.217C173.969 194.882 200.173 181.727 215.339 172.683C215.228 170.394 213.984 166.718 211.484 165.894C200.414 169.672 190.986 171.136 182.686 172.425C178.049 173.146 173.765 173.811 169.742 174.794C169.586 163.772 168.531 154.693 166.036 145.636C162.064 131.222 153.434 122.976 141.101 126.937Z" fill="url(#paint12_linear)"/>
<path d="M201.83 73.6191L235.642 140.315L220.357 160.231L146.25 131.978L201.83 73.6191Z" fill="url(#paint13_linear)"/>
<path d="M238.349 142.483C239.098 141.486 239.677 139.792 238.402 139.092C237.127 138.391 236.382 139.289 236.008 139.788C235.06 141.048 217.385 164.159 216.637 165.156C215.888 166.153 217.981 167.102 219.179 166.754C220.376 166.406 237.6 143.48 238.349 142.483Z" fill="#3E3E3E"/>
<path d="M216.742 158.374C214.123 158.745 214.195 163.009 211.4 165.9C212.096 168.294 212.792 170.688 215.334 172.286C222.217 171.843 227.534 171.685 231.499 164.47C234.895 158.289 233.503 153.5 231.857 153.2C228.566 152.598 227.123 160.497 222.575 160.573C219.732 160.62 219.651 157.96 216.742 158.374Z" fill="#F6C3A6"/>
<path d="M207.767 356.088C206.474 354.75 204.533 344.939 206.15 343.267C207.767 341.594 209.384 344.939 213.695 343.267C218.007 341.594 216.929 334.348 219.623 336.02C222.318 337.692 226.09 341.594 235.791 342.152C246.553 342.77 252.1 342.769 249.264 347.169C244.953 353.858 233.097 353.858 228.785 353.858H228.785C224.474 353.858 220.162 357.203 216.39 357.76C212.078 358.398 209.384 357.76 207.767 356.088Z" fill="#2E3642"/>
<path d="M92.1942 337.641C93.1184 336.069 97.1133 330.607 99.3881 330.76C101.663 330.913 100.296 334.249 104.339 336.425C108.381 338.601 112.934 333.195 113.489 336.279C114.043 339.363 111.745 342.597 118.883 349.147C121.419 351.473 133.799 359.53 131.596 360.243C124.222 362.627 114.33 360.687 107.115 355.889C103.535 353.508 102.617 350.736 93.7933 345.829C89.9981 343.718 90.9764 339.713 92.1942 337.641Z" fill="#2E3642"/>
</g>
<defs>
<radialGradient id="paint0_radial" cx="0" cy="0" r="1" gradientUnits="userSpaceOnUse" gradientTransform="translate(169 -20.9091) rotate(90) scale(99.1688 179.455)">
<stop stop-color="#325362" stop-opacity="0.1"/>
<stop offset="1" stop-color="#517281" stop-opacity="0"/>
</radialGradient>
<radialGradient id="paint1_radial" cx="0" cy="0" r="1" gradientUnits="userSpaceOnUse" gradientTransform="translate(145.006 147.725) rotate(90) scale(134.989 1131.67)">
<stop stop-color="#3EB366"/>
<stop offset="1" stop-color="#3EB366" stop-opacity="0"/>
</radialGradient>
<radialGradient id="paint2_radial" cx="0" cy="0" r="1" gradientUnits="userSpaceOnUse" gradientTransform="translate(131.5 123.572) rotate(90) scale(101.167 69.8839)">
<stop stop-color="#3EB366"/>
<stop offset="1" stop-color="#3EB366" stop-opacity="0"/>
</radialGradient>
<radialGradient id="paint3_radial" cx="0" cy="0" r="1" gradientUnits="userSpaceOnUse" gradientTransform="translate(96.637 80.9933) rotate(90) scale(126.385 87.3029)">
<stop stop-color="#3EB366"/>
<stop offset="1" stop-color="#3EB366" stop-opacity="0"/>
</radialGradient>
<radialGradient id="paint4_radial" cx="0" cy="0" r="1" gradientUnits="userSpaceOnUse" gradientTransform="translate(320.001 39.6231) rotate(90) scale(195.809 135.259)">
<stop stop-color="#3EB366"/>
<stop offset="1" stop-color="#3EB366" stop-opacity="0"/>
</radialGradient>
<radialGradient id="paint5_radial" cx="0" cy="0" r="1" gradientUnits="userSpaceOnUse" gradientTransform="translate(270.454 106.542) rotate(90) scale(127.573 88.1236)">
<stop stop-color="#3EB366"/>
<stop offset="1" stop-color="#3EB366" stop-opacity="0"/>
</radialGradient>
<radialGradient id="paint6_radial" cx="0" cy="0" r="1" gradientUnits="userSpaceOnUse" gradientTransform="translate(211.363 164.192) rotate(90) scale(89.0045 61.482)">
<stop stop-color="#3EB366"/>
<stop offset="1" stop-color="#3EB366" stop-opacity="0"/>
</radialGradient>
<radialGradient id="paint7_radial" cx="0" cy="0" r="1" gradientUnits="userSpaceOnUse" gradientTransform="translate(58.3177 111.121) rotate(90) scale(102.354 70.7038)">
<stop stop-color="#3EB366"/>
<stop offset="1" stop-color="#3EB366" stop-opacity="0"/>
</radialGradient>
<linearGradient id="paint8_linear" x1="185.644" y1="172.196" x2="149.498" y2="203.268" gradientUnits="userSpaceOnUse">
<stop stop-color="#EC5642"/>
<stop offset="1" stop-color="#BF2C2C"/>
</linearGradient>
<linearGradient id="paint9_linear" x1="174.712" y1="206.843" x2="174.712" y2="349.476" gradientUnits="userSpaceOnUse">
<stop stop-color="#4380B8"/>
<stop offset="1" stop-color="#1D568A"/>
</linearGradient>
<linearGradient id="paint10_linear" x1="146.634" y1="211.877" x2="151.235" y2="289.985" gradientUnits="userSpaceOnUse">
<stop stop-color="#4380B8"/>
<stop offset="1" stop-color="#1D568A"/>
</linearGradient>
<linearGradient id="paint11_linear" x1="164.72" y1="123.058" x2="167.541" y2="178.643" gradientUnits="userSpaceOnUse">
<stop stop-color="#EC5642"/>
<stop offset="1" stop-color="#D03838"/>
</linearGradient>
<linearGradient id="paint12_linear" x1="153.435" y1="169.827" x2="224.315" y2="172.375" gradientUnits="userSpaceOnUse">
<stop stop-color="#EC5642"/>
<stop offset="1" stop-color="#D03838"/>
</linearGradient>
<linearGradient id="paint13_linear" x1="231.473" y1="152.357" x2="188.399" y2="112.988" gradientUnits="userSpaceOnUse">
<stop stop-color="#A8EAFF" stop-opacity="0.22"/>
<stop offset="1" stop-color="#A8EAFF" stop-opacity="0"/>
</linearGradient>
</defs>
</svg>
