<svg width="338" height="445" viewBox="0 0 338 445" fill="none" xmlns="http://www.w3.org/2000/svg">
<rect y="0.642578" width="337.845" height="444.357" rx="20" fill="white"/>
<mask id="mask0" mask-type="alpha" maskUnits="userSpaceOnUse" x="0" y="0" width="338" height="445">
<rect y="0.642578" width="337.845" height="444.357" rx="20" fill="white"/>
</mask>
<g mask="url(#mask0)">
<path fill-rule="evenodd" clip-rule="evenodd" d="M376 354C376 354 336.081 330.834 336.537 312.381C336.993 293.927 344.109 285.281 352.619 272.421C370.864 244.85 368.463 203.603 344.788 180.841C329.245 165.898 307.103 160.03 285.854 160.328C264.605 160.625 243.843 166.474 223.352 172.282C231.013 141.015 236.411 106.22 221.504 77.8691C206.66 49.6383 172.714 34.6351 142.028 40.119C111.342 45.6028 85.1981 69.7136 73.5967 99.5156C66.5154 117.707 64.4166 137.561 58.2612 156.106C52.1052 174.652 40.3166 193.021 22.1224 198.702C5.9416 203.754 -14.3027 198.706 -26.1377 211.155C-36.1155 221.65 -34.0099 239.293 -27.4582 252.345C-20.9065 265.397 -10.7528 276.429 -5.50279 290.092C-0.253312 303.756 -0.418228 327.059 -14.5089 329.267C-25.9928 331.068 -32.0182 337.226 -30.0792 344.926C-28.7163 350.34 -23.8053 354 -18.3811 354H376Z" fill="url(#paint0_radial)"/>
<path fill-rule="evenodd" clip-rule="evenodd" d="M112.868 340.202H103.548V308.212H67V300.514H67.0047C67.0033 300.514 67.0019 300.514 67.0005 300.514L81.8199 290.094H103.548V278.124H81.9648V261.441H103.548V251.413H81.9648V234.73H103.548V223H112.868V234.73H251.912V223H261.231V234.73H294.56V251.413H261.231V261.441H294.56V278.124H261.231V290.094H296.998L311.446 300.514C310.806 300.536 310.165 300.557 309.524 300.578V308.212H261.231V340.202H251.912V308.212H112.868V340.202ZM251.912 278.124V290.094H112.868V278.124H251.912ZM251.912 251.413H112.868V261.441H251.912V251.413Z" fill="url(#paint1_radial)"/>
<path d="M120.617 142.652C120.081 144.933 120.488 146.879 122.342 147.298C123.268 147.508 125.138 147.383 125.646 146.021C126.327 144.192 125.716 143.726 126.759 140.082C127.803 136.439 133.746 131.702 134.475 130.21C136.465 126.136 132.43 122.339 129.55 125.007C126.67 127.676 121.247 139.968 120.617 142.652Z" fill="url(#paint2_linear)"/>
<path d="M161.894 128.696C163.767 130.814 164.785 132.407 163.62 133.935C163.038 134.699 161.599 135.052 160.309 134.306C158.578 133.304 157.76 131.702 156.198 129.938C154.637 128.173 146.539 127.003 144.993 126.297C140.771 124.37 141.202 119.459 145.194 119.702C149.185 119.946 160.02 126.579 161.894 128.696Z" fill="url(#paint3_linear)"/>
<path d="M144.942 119.527C143.403 118.942 140.424 118.446 136.289 119.737C134.453 120.249 129.369 122.831 128.814 126.119C128.259 129.407 134.578 141.249 137.363 144.32C140.005 147.233 146.134 147.271 148.772 143.25C152.112 138.158 150.34 121.58 144.942 119.527Z" fill="url(#paint4_linear)"/>
<path fill-rule="evenodd" clip-rule="evenodd" d="M139.241 105.424L139.241 105.424L139.241 105.424C138.935 106.185 138.549 107.144 138.08 108.06C136.594 107.99 134.845 108.175 132.821 108.684C131.273 109.074 129.969 109.735 128.9 110.56C127.938 109.925 126.932 109.175 126.114 108.566C125.376 108.016 124.79 107.58 124.526 107.443C123.858 107.098 124.603 113.918 125.146 117.497C125.104 118.574 125.308 119.555 125.747 120.304C128.192 124.47 133.562 124.223 136.619 124.082H136.619C137.092 124.06 137.509 124.041 137.851 124.041C139.419 124.041 146.377 117.584 144.329 111.851C144.157 111.369 143.916 110.916 143.602 110.501L143.471 110.233L143.471 110.232C142.121 107.455 140.191 103.487 139.811 104.122C139.667 104.362 139.478 104.834 139.241 105.424Z" fill="url(#paint5_linear)"/>
<path fill-rule="evenodd" clip-rule="evenodd" d="M130.747 116.086C130.397 116.263 130.188 116.537 130.039 116.833C129.992 116.928 129.865 116.97 129.756 116.928C129.647 116.885 129.598 116.774 129.646 116.679C129.814 116.345 130.071 115.992 130.528 115.76C130.986 115.527 131.614 115.43 132.487 115.552C132.605 115.568 132.686 115.665 132.668 115.767C132.65 115.87 132.541 115.94 132.423 115.924C131.616 115.811 131.095 115.908 130.747 116.086Z" fill="#423325"/>
<path fill-rule="evenodd" clip-rule="evenodd" d="M138.551 114.417C138.161 114.549 137.888 114.819 137.669 115.126C137.599 115.224 137.462 115.247 137.364 115.177C137.266 115.107 137.243 114.97 137.313 114.872C137.56 114.525 137.9 114.176 138.411 114.003C138.923 113.83 139.571 113.845 140.413 114.158C140.526 114.2 140.584 114.326 140.542 114.439C140.5 114.552 140.374 114.61 140.261 114.568C139.483 114.279 138.941 114.285 138.551 114.417Z" fill="#423325"/>
<path d="M142.162 116.884C144.118 115.311 149.219 114.037 150.749 114.377" stroke="#584236" stroke-width="0.5" stroke-linecap="round" stroke-linejoin="round"/>
<path d="M142.29 118.117C145.86 116.502 148.538 117.097 150.834 117.607" stroke="#584236" stroke-width="0.5" stroke-linecap="round" stroke-linejoin="round"/>
<path d="M129.658 119.728C127.172 119.38 122.139 120.902 121 121.979" stroke="#584236" stroke-width="0.5" stroke-linecap="round" stroke-linejoin="round"/>
<path d="M130.18 120.851C126.286 121.296 124.293 123.18 122.584 124.795" stroke="#584236" stroke-width="0.5" stroke-linecap="round" stroke-linejoin="round"/>
<path fill-rule="evenodd" clip-rule="evenodd" d="M182.57 131.879C176.251 136.19 178.582 146.999 182.57 158.918C185.834 168.671 191.205 184.2 194.576 191.248C195.15 192.449 196.256 193.493 197.624 194.277C197.953 194.514 198.306 194.746 198.686 194.973C201.497 196.657 204.296 196.436 206.84 195.029C207.138 194.879 207.423 194.706 207.69 194.508C210.197 192.826 212.415 190.018 214.096 186.822C216.03 183.145 217.787 179.339 219.594 175.425C222.501 169.127 225.537 162.551 229.645 155.784C226.51 155.784 223.375 154.608 221.807 152.257C218.54 156.976 213.791 161.863 209.229 166.451C208.414 159.298 206.976 151.658 204.564 144.027C201.324 133.777 188.888 127.568 182.57 131.879Z" fill="url(#paint6_linear)"/>
<path d="M153.18 129.067C154.881 126.232 158.142 118.435 157.433 112.411C162.394 111.348 169.836 113.474 174.443 119.499C173.38 124.105 174.443 128.358 175.86 132.965C171.253 138.635 156.015 135.091 153.18 129.067Z" fill="#E3B695"/>
<path d="M174.797 123.409C177.221 122.108 179.321 111.238 179.713 103.599C180.105 95.9602 175.92 90.9707 166.99 90.4572C158.059 89.9437 154.374 96.359 153.48 102.724C152.586 109.088 154.902 115.957 158.5 118.842C162.825 122.309 171.867 124.982 174.797 123.409Z" fill="#F6C8A6"/>
<path d="M151.054 101.951C151.054 105.919 153.329 111.208 155.279 114.183C153.654 108.563 153.004 103.549 156.254 103.274C158.854 103.053 159.829 104.266 160.154 108.233L162.104 108.563C161.454 103.274 160.35 98.3346 162.754 96.001C166.292 92.5663 172.784 93.3 175.506 94.3382C178.106 95.33 179.144 97.9846 179.404 99.3069C180.054 102.613 179.793 105.714 182.593 99.3069C185.074 93.6295 180.456 85.5353 172.316 84.4156C166.004 83.5473 161.129 83.7694 156.254 87.7364C151.054 91.968 151.054 97.2714 151.054 101.884L151.054 101.951Z" fill="#4B4034"/>
<path fill-rule="evenodd" clip-rule="evenodd" d="M164.45 207.991C171.63 204.273 179.629 206.565 186.747 215.012C199.975 230.709 206.335 256.733 206.022 266.646C206.017 266.816 206.01 266.983 206.001 267.148C206.528 268.262 206.819 269.364 206.785 270.244C206.76 270.857 206.682 272.325 206.569 274.458C205.998 285.197 204.531 312.78 204.531 332.833C204.531 356.869 194.391 340.878 194.391 332.833C194.391 321.898 191.823 311.151 189.57 301.728C187.414 292.705 185.548 284.897 186.504 279.299C187.232 275.046 188.11 272.231 189.142 270.208C180.377 264.716 163.635 250.249 157.269 234.014C151.6 219.556 157.269 211.709 164.45 207.991Z" fill="url(#paint7_linear)"/>
<path fill-rule="evenodd" clip-rule="evenodd" d="M155.708 207.267C163.023 207.872 172.002 211.849 172.608 222.908C172.928 228.731 168.829 243.69 164.998 257.673C162.741 265.909 160.577 273.807 159.464 279.3C159.34 279.911 159.197 280.492 159.036 281.042C159.321 282.381 159.464 283.765 159.464 285.138C159.464 295.843 157.572 305.113 155.323 316.133C153.692 324.129 151.872 333.046 150.451 344.1C149.946 348.026 142.188 346.138 142.188 340.344C142.188 332.014 141.089 321.321 140.08 311.506C139.224 303.178 138.433 295.482 138.433 290.395C138.433 286.832 138.965 282.501 140.229 278.825C137.252 261.453 134.697 239.573 136.93 226.175C139.462 210.987 148.393 206.663 155.708 207.267Z" fill="url(#paint8_linear)"/>
<path d="M129.771 157.361C128.852 134.825 133.419 127.108 153.405 127.108C160.46 134.946 172.038 133.054 174.781 128.352C191.24 128.352 195.159 139.324 195.159 157.361C195.159 179.237 184.673 180.484 187.322 213.784C179.484 222.406 152.835 221.23 141.47 213.784C144.605 183.216 130.504 175.314 129.771 157.361Z" fill="url(#paint9_linear)"/>
<path fill-rule="evenodd" clip-rule="evenodd" d="M142.629 130.361C152.421 132.726 155.138 143.484 150.448 152.782C143.459 166.637 136.382 176.892 131.671 182.452C132.667 183.661 133.486 184.997 134.024 186.352C137.263 194.505 138.844 201.409 140.302 207.774C141.438 212.737 142.5 217.372 144.213 222.014C142.324 224.533 141.699 226.547 140.917 229.071C140.726 229.688 140.525 230.335 140.294 231.027C131.356 220.478 124.559 210.257 117.956 195.757C116.434 192.413 115.721 189.013 116.06 185.914C113.552 175.752 115.67 162.054 120.555 149.021C125.451 135.96 132.837 127.996 142.629 130.361Z" fill="url(#paint10_linear)"/>
<rect x="218.71" y="119.301" width="17.2433" height="31.3514" rx="3" transform="rotate(6.49356 218.71 119.301)" fill="url(#paint11_linear)"/>
<rect x="219.968" y="120.905" width="6.3093" height="6.76679" rx="2" transform="rotate(6.49356 219.968 120.905)" fill="#393030"/>
<path d="M234.74 150.298C234.113 151.865 231.213 154.216 228.862 156.176C226.118 156.176 223.375 155 221.808 152.257C223.375 150.298 222.2 147.554 220.632 145.595C219.652 143.635 220.632 135.406 223.375 135.406C226.118 135.406 233.564 137.757 235.132 140.108C235.819 141.139 235.524 148.338 234.74 150.298Z" fill="#F6C8A6"/>
<path d="M206.476 328.081C205.088 328.674 197.453 329.563 192.942 328.081C194.33 333.637 192.595 341.416 192.595 345.49C192.595 349.565 194.273 353.601 202.312 352.528C210.64 351.417 213.764 355.862 222.093 355.492C228.756 355.195 234.239 350.306 226.257 348.083C218.275 345.861 213.438 342.55 210.64 339.564C208.211 336.971 207.517 335.86 206.476 328.081Z" fill="#14474A"/>
<path d="M139.359 328.865C140.719 329.46 149.9 330.352 154.32 328.865C154.32 335.557 155.68 337.788 155.68 343.365C155.68 345.596 156.943 350.947 149.22 352.288C142.797 353.404 144.119 358.981 133.238 360.84C126.783 361.943 118.516 358.308 125.758 353.404C133 348.5 133.714 346.5 136 342.5C137.7 339.526 138.339 336.673 139.359 328.865Z" fill="#14474A"/>
</g>
<defs>
<radialGradient id="paint0_radial" cx="0" cy="0" r="1" gradientUnits="userSpaceOnUse" gradientTransform="translate(54 38.9999) rotate(46.2276) scale(396.071 228.029)">
<stop stop-color="#2B485C" stop-opacity="0.06"/>
<stop offset="1" stop-color="#2B485C" stop-opacity="0"/>
</radialGradient>
<radialGradient id="paint1_radial" cx="0" cy="0" r="1" gradientUnits="userSpaceOnUse" gradientTransform="translate(175.5 340) rotate(-79.843) scale(311.888 282.945)">
<stop stop-color="#2B485C" stop-opacity="0.06"/>
<stop offset="1" stop-color="#2B485C" stop-opacity="0"/>
</radialGradient>
<linearGradient id="paint2_linear" x1="128.072" y1="124.007" x2="127.358" y2="147.509" gradientUnits="userSpaceOnUse">
<stop stop-color="#F6D5A3"/>
<stop offset="1" stop-color="#C79B59"/>
</linearGradient>
<linearGradient id="paint3_linear" x1="145.068" y1="118.427" x2="160.93" y2="136.355" gradientUnits="userSpaceOnUse">
<stop stop-color="#F6D5A3"/>
<stop offset="1" stop-color="#C79B59"/>
</linearGradient>
<linearGradient id="paint4_linear" x1="139.99" y1="118.88" x2="139.157" y2="146.299" gradientUnits="userSpaceOnUse">
<stop stop-color="#F6D5A3"/>
<stop offset="1" stop-color="#C79B59"/>
</linearGradient>
<linearGradient id="paint5_linear" x1="147.214" y1="116.984" x2="118.658" y2="116.203" gradientUnits="userSpaceOnUse">
<stop stop-color="#F6D5A3"/>
<stop offset="1" stop-color="#C79B59"/>
</linearGradient>
<linearGradient id="paint6_linear" x1="218.38" y1="181.033" x2="198.576" y2="121.72" gradientUnits="userSpaceOnUse">
<stop stop-color="#152428"/>
<stop offset="1" stop-color="#597984"/>
</linearGradient>
<linearGradient id="paint7_linear" x1="177.115" y1="218.288" x2="150.826" y2="248.709" gradientUnits="userSpaceOnUse">
<stop stop-color="#FFB054"/>
<stop offset="1" stop-color="#E27A3F"/>
</linearGradient>
<linearGradient id="paint8_linear" x1="168.853" y1="211.153" x2="149.324" y2="290.02" gradientUnits="userSpaceOnUse">
<stop stop-color="#FFB054"/>
<stop offset="1" stop-color="#E27A3F"/>
</linearGradient>
<linearGradient id="paint9_linear" x1="154.403" y1="200.46" x2="175.205" y2="122.482" gradientUnits="userSpaceOnUse">
<stop stop-color="#152428"/>
<stop offset="1" stop-color="#597984"/>
</linearGradient>
<linearGradient id="paint10_linear" x1="139.931" y1="187.613" x2="114.933" y2="120.651" gradientUnits="userSpaceOnUse">
<stop stop-color="#152428"/>
<stop offset="1" stop-color="#597984"/>
</linearGradient>
<linearGradient id="paint11_linear" x1="221.225" y1="118.871" x2="235.396" y2="148.253" gradientUnits="userSpaceOnUse">
<stop stop-color="#EB4D4D"/>
<stop offset="1" stop-color="#B51E1E"/>
</linearGradient>
</defs>
</svg>
