<svg width="338" height="445" viewBox="0 0 338 445" fill="none" xmlns="http://www.w3.org/2000/svg">
<rect y="0.642578" width="337.845" height="444.357" rx="20" fill="white"/>
<mask id="mask0" mask-type="alpha" maskUnits="userSpaceOnUse" x="0" y="0" width="338" height="445">
<rect y="0.642578" width="337.845" height="444.357" rx="20" fill="white"/>
</mask>
<g mask="url(#mask0)">
<rect y="298" width="338" height="92" fill="url(#paint0_radial)"/>
<path opacity="0.2" fill-rule="evenodd" clip-rule="evenodd" d="M202 298H480C468.5 252 411.38 207 325.5 207C258.4 207 205.499 239.355 181.756 271.63C158.715 251.407 121.971 236 87.5 236C39 236 -12 264.5 -22 298H169H202Z" fill="url(#paint1_radial)"/>
<path opacity="0.2" fill-rule="evenodd" clip-rule="evenodd" d="M248.072 174.968C250.842 175.125 253.04 177.421 253.04 180.23C253.04 180.671 252.986 181.099 252.884 181.508C254.86 182.976 256.14 185.329 256.14 187.98C256.14 189.528 255.703 190.975 254.946 192.203C256.807 193.679 258 195.96 258 198.52C258 202.611 254.952 205.99 251.003 206.51C249.694 209.601 246.9 211.819 243.594 212.124L245.6 238.2H239.4L241.412 212.044C238.061 211.485 235.324 208.948 234.278 205.585C231.787 204.214 230.1 201.564 230.1 198.52C230.1 197.977 230.154 197.446 230.256 196.933C228.28 195.464 227 193.111 227 190.46C227 186.43 229.958 183.091 233.821 182.495C233.82 182.463 233.82 182.432 233.82 182.4C233.82 179.542 235.307 177.032 237.55 175.601C237.543 175.491 237.54 175.381 237.54 175.27C237.54 172.359 239.899 170 242.81 170C245.619 170 247.915 172.198 248.072 174.968Z" fill="url(#paint2_radial)"/>
<path opacity="0.2" fill-rule="evenodd" clip-rule="evenodd" d="M284.324 143.207C287.785 143.402 290.531 146.27 290.531 149.78C290.531 150.33 290.463 150.865 290.336 151.376C292.804 153.211 294.404 156.15 294.404 159.462C294.404 161.396 293.858 163.203 292.912 164.738C295.236 166.582 296.727 169.432 296.727 172.629C296.727 177.74 292.92 181.961 287.986 182.611C286.351 186.472 282.86 189.242 278.731 189.624L281.236 222.2H273.491L276.004 189.525C271.818 188.826 268.398 185.656 267.091 181.455C263.98 179.742 261.873 176.432 261.873 172.629C261.873 171.95 261.94 171.287 262.068 170.646C259.599 168.811 258 165.872 258 162.56C258 157.526 261.695 153.354 266.52 152.609C266.52 152.57 266.52 152.53 266.52 152.491C266.52 148.921 268.378 145.784 271.18 143.996C271.172 143.86 271.167 143.722 271.167 143.584C271.167 139.948 274.115 137 277.751 137C281.261 137 284.129 139.746 284.324 143.207Z" fill="url(#paint3_radial)"/>
<path opacity="0.2" fill-rule="evenodd" clip-rule="evenodd" d="M44.4202 132.839C44.4072 132.628 44.4005 132.415 44.4005 132.2C44.4005 126.567 48.9672 122 54.6006 122C60.0381 122 64.4818 126.255 64.7842 131.617C70.146 131.919 74.4006 136.363 74.4006 141.8C74.4006 142.653 74.2959 143.481 74.0988 144.273C77.9229 147.116 80.4004 151.669 80.4004 156.8C80.4004 159.797 79.5552 162.597 78.0901 164.974C81.6909 167.832 84 172.246 84 177.2C84 185.118 78.101 191.659 70.4581 192.666C67.9242 198.647 62.5166 202.939 56.1185 203.531L60.0008 254.001H48.0007L51.8948 203.377C45.4093 202.295 40.1103 197.384 38.0851 190.874C33.2653 188.22 29.9998 183.092 29.9998 177.2C29.9998 176.149 30.1038 175.121 30.3022 174.128C26.4778 171.285 24 166.732 24 161.6C24 153.801 29.7241 147.338 37.2006 146.184C37.1999 146.123 37.1996 146.061 37.1996 146C37.1996 140.469 40.0787 135.609 44.4202 132.839Z" fill="url(#paint4_radial)"/>
<path opacity="0.2" fill-rule="evenodd" clip-rule="evenodd" d="M109.787 170.062C109.795 169.924 109.8 169.785 109.8 169.646C109.8 165.975 106.824 163 103.154 163C99.6115 163 96.7163 165.772 96.5193 169.265C93.026 169.462 90.254 172.358 90.254 175.9C90.254 176.456 90.3221 176.995 90.4506 177.511C87.9591 179.364 86.345 182.33 86.345 185.673C86.345 187.626 86.8957 189.45 87.8502 190.998C85.5043 192.86 83.9998 195.736 83.9998 198.964C83.9998 204.123 87.843 208.384 92.8225 209.04C94.4734 212.937 97.9967 215.733 102.165 216.119L99.6358 249.001H107.454L104.917 216.019C109.142 215.314 112.595 212.114 113.914 207.873C117.054 206.143 119.182 202.802 119.182 198.964C119.182 198.279 119.114 197.61 118.985 196.962C121.476 195.11 123.091 192.144 123.091 188.8C123.091 183.719 119.361 179.508 114.49 178.756C114.491 178.716 114.491 178.676 114.491 178.637C114.491 175.033 112.615 171.867 109.787 170.062Z" fill="url(#paint5_radial)"/>
<path opacity="0.2" fill-rule="evenodd" clip-rule="evenodd" d="M157.735 210.371C155.297 210.509 153.363 212.528 153.363 215C153.363 215.388 153.411 215.764 153.501 216.124C151.762 217.417 150.636 219.486 150.636 221.818C150.636 223.181 151.02 224.453 151.686 225.534C150.05 226.833 149 228.839 149 231.091C149 234.69 151.681 237.663 155.156 238.121C156.307 240.84 158.766 242.791 161.674 243.06L159.909 266.001H165.364L163.594 242.99C166.542 242.498 168.95 240.265 169.871 237.307C172.061 236.1 173.546 233.769 173.546 231.091C173.546 230.613 173.498 230.146 173.408 229.695C175.147 228.402 176.273 226.333 176.273 224C176.273 220.455 173.671 217.517 170.273 216.993C170.273 216.965 170.273 216.937 170.273 216.909C170.273 214.395 168.965 212.186 166.991 210.927C166.997 210.831 167 210.734 167 210.636C167 208.076 164.924 206 162.364 206C159.892 206 157.872 207.934 157.735 210.371Z" fill="url(#paint6_radial)"/>
<path opacity="0.2" fill-rule="evenodd" clip-rule="evenodd" d="M310.045 163.027C307.242 163.185 305.018 165.508 305.018 168.35C305.018 168.796 305.073 169.229 305.176 169.643C303.177 171.129 301.882 173.509 301.882 176.191C301.882 177.758 302.324 179.221 303.09 180.463C301.207 181.957 300 184.265 300 186.855C300 190.994 303.084 194.413 307.079 194.939C308.404 198.065 311.23 200.309 314.575 200.618L312.545 227H318.818L316.783 200.538C320.173 199.972 322.943 197.405 324.002 194.002C326.521 192.615 328.228 189.934 328.228 186.855C328.228 186.305 328.173 185.768 328.07 185.248C330.069 183.762 331.364 181.382 331.364 178.7C331.364 174.623 328.372 171.245 324.464 170.641C324.464 170.609 324.464 170.577 324.464 170.545C324.464 167.654 322.959 165.114 320.69 163.666C320.697 163.555 320.7 163.444 320.7 163.332C320.7 160.387 318.313 158 315.368 158C312.526 158 310.203 160.224 310.045 163.027Z" fill="url(#paint7_radial)"/>
<path fill-rule="evenodd" clip-rule="evenodd" d="M124.713 228.767C130.222 237.312 124.713 248.907 117.783 258.446C112.433 265.811 96.4708 281.077 89.6022 285.53C88.4292 286.839 86.7583 287.309 84.5188 286.275C77.6609 283.11 41.0414 257.183 38.6472 252.65C36.253 248.117 37.1522 245.981 51.9611 251.225C54.6472 252.176 57.5854 253.112 60.6071 254.075C70.132 257.11 80.4865 260.41 86.3905 265.271C89.11 250.233 95.9519 227.982 103.114 223.575C109.679 219.534 119.204 220.222 124.713 228.767Z" fill="url(#paint8_linear)"/>
<path fill-rule="evenodd" clip-rule="evenodd" d="M100.006 227.14C105.334 216.457 120.432 223.575 131.534 229.178C142.635 234.781 173.72 255.667 173.72 261.27C173.72 261.311 173.72 261.351 173.719 261.391C173.995 262.178 174.083 263.171 173.928 264.405C172.877 272.798 157.814 323.708 154.181 326.982C153.91 327.226 153.644 327.474 153.382 327.718C150.741 330.179 148.649 332.128 148.852 323.416C148.363 308.485 149.376 279.428 156.262 266.89C141.175 265.764 113.605 260.943 107.111 257.704C96.8971 252.61 94.6769 237.824 100.006 227.14Z" fill="url(#paint9_linear)"/>
<path d="M128.517 145.908C131.413 142.806 132.24 138.375 132.24 132.614C136.238 133.944 145.014 138.364 144.235 140.591C142.994 144.136 144.235 147.681 144.649 149.897C142.581 151.669 139.272 152.556 135.135 151.669C131.865 150.969 127.277 147.238 128.517 145.908Z" fill="#E9A99C"/>
<path d="M151.517 142.263C152.973 140.589 153.64 131.107 153.792 126.365C154.055 121.345 153.337 116.743 148.787 114.233C144.236 111.723 138.321 111.305 134.225 114.233C128.309 118.463 128.31 123.387 128.31 126.733L128.31 126.784C128.31 131.804 131.04 136.406 134.68 138.497C137.409 140.065 149.697 144.354 151.517 142.263Z" fill="#F6B3A6"/>
<path d="M126.267 119.874C126.267 124.562 130.138 129.333 131.18 132.614C132.52 132.614 128.501 125.883 131.627 125.03C133.489 124.522 135.2 128.311 135.2 130.186L136.986 130.655C136.688 127.218 135.2 121.281 136.54 118.468C138.013 115.375 140.113 114.718 144.579 114.718C149.045 114.718 149.938 117.146 153.958 114.803C157.007 113.025 155.733 101.927 154.851 103.084C153.064 105.428 148.152 106.281 145.025 106.281C141.899 106.281 135.646 105.334 132.52 107.303C128.054 110.115 126.267 116.124 126.267 119.874Z" fill="#573A29"/>
<path d="M174.449 333.261C166.08 333.261 160.875 330.816 159.233 328.461C157.711 326.279 158.472 322.352 158.092 319.734C156.19 318.425 148.787 318.137 146.68 319.297C146.299 322.788 145.158 330.643 144.778 334.57C144.593 336.482 145.389 341.768 148.582 341.116C159.253 338.934 162.656 343.297 171.405 340.243C182.99 336.198 178.633 333.261 174.449 333.261Z" fill="#513F25"/>
<path d="M20.9113 266.567C25.7429 262.437 30.0147 259.2 33.6602 258.292C35.2545 257.895 39.4202 256.01 42.4513 256.897C42.7689 253.534 44.6237 249.849 46.6356 249.479C45.6406 246.766 43.6543 243.74 41.3024 240.686C40.1376 239.174 37.1875 239.662 35.3784 242.162C29.1374 250.788 26.2895 248.476 21.9099 255.588C17.5303 262.701 19.3549 267.618 20.9113 266.567Z" fill="#513F25"/>
<path fill-rule="evenodd" clip-rule="evenodd" d="M135.268 161.342C136.26 154.518 138.943 148.849 149.117 149.851C158.293 150.755 177.852 157.91 183.457 160.575C184.523 160.463 185.666 160.407 186.876 160.407C191.849 160.407 211.299 162.705 219.736 163.854C220.328 165.167 219.292 169.253 219.292 169.253C219.292 169.253 187.749 173.883 181.991 173.211C181.536 173.158 181.106 173.095 180.699 173.022C170.429 174.164 151.522 173.225 147.31 172.415C142.042 171.402 137.215 170.432 135.268 161.342Z" fill="url(#paint10_linear)"/>
<path d="M157.289 177.853C158.178 171.943 158.621 151.26 144.856 149.783C139.085 152.983 131.085 149.617 128.421 145.185C117.77 145.185 112.444 148.061 107.499 154.044C102.554 160.026 100.17 169.531 101.793 183.573C103.695 200.025 102.67 211.415 102.67 223.651C110.663 228.575 120.432 230.053 132.866 229.56C136.863 217.742 137.933 217.701 145.3 204.445C150.226 195.581 155.537 189.511 157.289 177.853Z" fill="url(#paint11_linear)"/>
<path d="M180.39 221.458L274.952 278.197" stroke="#886D61" stroke-width="2" stroke-linecap="round" stroke-linejoin="round"/>
<path fill-rule="evenodd" clip-rule="evenodd" d="M109.782 151.513C116.629 145.789 122.805 149.642 126.139 154.888C132.164 164.368 133.915 183.215 133.849 190.372C134.441 190.444 135.024 190.541 135.589 190.66C138.306 191.234 149.987 198.322 159.149 203.882C165.047 207.461 169.9 210.407 170.645 210.572C171.406 211.837 171.07 214.432 169.124 216.9C167.606 216.346 163.713 215.573 158.78 214.594C147.058 212.267 129.463 208.775 123.91 204.282C122.638 203.253 121.831 202.193 121.373 201.138C120.412 200.129 119.504 198.937 118.686 197.606C117.94 196.392 116.962 194.952 115.873 193.347C112.426 188.27 107.862 181.548 105.978 175.136C103.474 166.618 102.935 157.236 109.782 151.513Z" fill="url(#paint12_linear)"/>
<path d="M225.8 161.381C221.922 161.686 219.319 162.638 218.175 163.894C218.937 165.57 219.319 168.082 218.937 169.339C220.462 170.176 222.368 171.014 226.562 169.758C230.756 168.501 229.231 165.988 230.375 165.151C231.518 164.313 236.856 163.894 238.762 163.894C239.906 163.894 239.906 162.219 238.762 161.8C237.618 161.381 231.137 160.962 225.8 161.381Z" fill="#F6B3A6"/>
<path d="M175.41 212.058C173.641 211.39 171.096 211.036 170.643 211.378C171.015 213.878 170.515 215.257 169.158 216.794C171.42 217.818 171.791 223.326 174.053 224.35C175.785 225.135 179.03 225.887 179.935 225.375C180.839 224.862 181.744 220.253 181.292 218.204C180.839 216.155 178.125 213.082 175.41 212.058Z" fill="#F6B3A6"/>
<path d="M203.687 284.244C207.814 292.015 223.805 296.16 225.868 294.606C228.447 293.051 229.995 290.979 224.836 290.461C219.678 289.943 214.52 285.798 211.94 278.027C208.845 268.702 211.94 255.75 216.583 250.569C214.863 251.26 206.782 253.16 202.655 261.449C199.044 268.702 199.56 276.473 203.687 284.244Z" fill="#EEBB8D"/>
<path d="M239.038 300.061C236.79 293.957 226.082 288.892 219.827 292.019C213.572 295.146 213.531 304.934 219.827 310.784C224.271 314.913 228.423 314.556 231.898 320.575C235.373 326.594 234.994 332.59 236.804 334.463C238.615 336.336 242.123 337.653 245.059 337.053C247.996 336.452 247.857 331.789 245.268 331.095C242.679 330.402 240.899 326.687 240.529 322.887C240.16 319.088 242.166 308.55 239.038 300.061Z" fill="#D9A77A"/>
<path d="M291.144 327.135C286.367 322.435 275.781 310.643 276.232 303.941C276.683 297.24 286.986 297.724 288.928 303.395C290.677 308.502 297.965 326.7 301.005 327.56C304.045 328.419 307.706 328.01 308.439 332.617C309.098 336.763 303.092 335.504 300.495 334.704C298.317 334.033 293.993 329.937 291.144 327.135Z" fill="#D9A77A"/>
<path d="M254.263 289.463C244 290.814 237.753 286.763 227.043 287.663C216.334 288.563 213.324 296.989 215.887 304.316C218.565 311.968 227.49 316.468 245.785 318.719C256.144 319.993 282.152 317.866 288.845 308.414C294.616 300.265 296.656 292.614 295.763 282.262C295.247 276.28 286.392 257.057 278.806 273.26C274.457 282.55 268.43 287.6 254.263 289.463Z" fill="url(#paint13_linear)"/>
<path d="M270.229 319.462C272.737 313.247 274.819 298.386 281.56 294.801C288.301 291.216 290.058 298.263 289.094 304.18C287.594 313.387 272.684 326.57 273.057 329.707C273.429 332.844 274.47 335.258 270.497 337.701C266.921 339.901 265.786 333.784 266.026 331.077C266.391 326.974 268.733 323.168 270.229 319.462Z" fill="url(#paint14_linear)"/>
<path d="M232.05 317.025C236.973 312.573 237.42 300.109 232.945 295.657C228.469 291.205 219.07 289.425 215.042 296.993C212.199 302.335 212.804 312.128 207.881 317.025C202.958 321.922 198.035 321.922 196.692 324.148C195.349 326.374 194.006 331.271 195.349 333.942C196.692 336.613 201.167 335.277 201.167 332.606C201.167 329.935 204.3 327.264 207.881 325.929C211.462 324.593 227.126 321.477 232.05 317.025Z" fill="url(#paint15_linear)"/>
<path d="M289.573 252.816C288.798 253.639 286.925 264.556 286.085 269.911C289.358 272.412 300.876 269.87 298.631 268.338C296.387 266.806 290.542 251.788 289.573 252.816Z" fill="#D9A77A"/>
<path d="M318.567 267.742C321.691 268.197 319.459 274.109 316.781 276.383C314.252 277.444 308.033 278.748 305.177 279.112C301.606 279.567 299.821 284.569 292.233 285.479C284.645 286.389 278.843 281.624 278.843 274.564C278.843 267.287 282.414 262.284 289.555 260.92C296.696 259.555 301.16 264.558 302.945 265.923C304.73 267.287 315.442 267.287 318.567 267.742Z" fill="#EEBB8D"/>
<path d="M283.318 251.029C282.543 251.852 280.669 262.769 279.829 268.124C283.102 270.625 294.62 268.083 292.376 266.551C290.131 265.019 284.287 250.001 283.318 251.029Z" fill="#EEBB8D"/>
<path d="M277.266 277.306C276.559 276.457 275.298 276.342 274.45 277.049C273.601 277.757 273.486 279.018 274.194 279.866L277.266 277.306ZM295.964 287.979C297.069 287.979 297.964 287.084 297.964 285.979C297.964 284.875 297.069 283.979 295.964 283.979V287.979ZM274.194 279.866C276.454 282.579 279.934 284.589 283.725 285.921C287.544 287.263 291.855 287.979 295.964 287.979V283.979C292.291 283.979 288.43 283.334 285.051 282.147C281.643 280.949 278.897 279.263 277.266 277.306L274.194 279.866Z" fill="#D83E3E"/>
</g>
<defs>
<radialGradient id="paint0_radial" cx="0" cy="0" r="1" gradientUnits="userSpaceOnUse" gradientTransform="translate(169 277.091) rotate(90) scale(99.1688 179.455)">
<stop stop-color="#325362" stop-opacity="0.1"/>
<stop offset="1" stop-color="#517281" stop-opacity="0"/>
</radialGradient>
<radialGradient id="paint1_radial" cx="0" cy="0" r="1" gradientUnits="userSpaceOnUse" gradientTransform="translate(228.994 155.725) rotate(90) scale(134.989 1131.67)">
<stop stop-color="#3EB366"/>
<stop offset="1" stop-color="#3EB366" stop-opacity="0"/>
</radialGradient>
<radialGradient id="paint2_radial" cx="0" cy="0" r="1" gradientUnits="userSpaceOnUse" gradientTransform="translate(242.5 131.572) rotate(90) scale(101.167 69.8839)">
<stop stop-color="#3EB366"/>
<stop offset="1" stop-color="#3EB366" stop-opacity="0"/>
</radialGradient>
<radialGradient id="paint3_radial" cx="0" cy="0" r="1" gradientUnits="userSpaceOnUse" gradientTransform="translate(277.363 88.9933) rotate(90) scale(126.385 87.3029)">
<stop stop-color="#3EB366"/>
<stop offset="1" stop-color="#3EB366" stop-opacity="0"/>
</radialGradient>
<radialGradient id="paint4_radial" cx="0" cy="0" r="1" gradientUnits="userSpaceOnUse" gradientTransform="translate(53.9993 47.6231) rotate(90) scale(195.809 135.259)">
<stop stop-color="#3EB366"/>
<stop offset="1" stop-color="#3EB366" stop-opacity="0"/>
</radialGradient>
<radialGradient id="paint5_radial" cx="0" cy="0" r="1" gradientUnits="userSpaceOnUse" gradientTransform="translate(103.546 114.542) rotate(90) scale(127.573 88.1236)">
<stop stop-color="#3EB366"/>
<stop offset="1" stop-color="#3EB366" stop-opacity="0"/>
</radialGradient>
<radialGradient id="paint6_radial" cx="0" cy="0" r="1" gradientUnits="userSpaceOnUse" gradientTransform="translate(162.637 172.192) rotate(90) scale(89.0045 61.482)">
<stop stop-color="#3EB366"/>
<stop offset="1" stop-color="#3EB366" stop-opacity="0"/>
</radialGradient>
<radialGradient id="paint7_radial" cx="0" cy="0" r="1" gradientUnits="userSpaceOnUse" gradientTransform="translate(315.682 119.121) rotate(90) scale(102.354 70.7038)">
<stop stop-color="#3EB366"/>
<stop offset="1" stop-color="#3EB366" stop-opacity="0"/>
</radialGradient>
<linearGradient id="paint8_linear" x1="104.717" y1="255.157" x2="45.8282" y2="261.575" gradientUnits="userSpaceOnUse">
<stop stop-color="#319583"/>
<stop offset="1" stop-color="#43B7A3"/>
</linearGradient>
<linearGradient id="paint9_linear" x1="129.042" y1="229.687" x2="170.303" y2="305.439" gradientUnits="userSpaceOnUse">
<stop stop-color="#44B9A4"/>
<stop offset="1" stop-color="#309381"/>
</linearGradient>
<linearGradient id="paint10_linear" x1="208.635" y1="144.156" x2="200.772" y2="202.284" gradientUnits="userSpaceOnUse">
<stop stop-color="#A732D0"/>
<stop offset="1" stop-color="#6F0993"/>
</linearGradient>
<linearGradient id="paint11_linear" x1="142.488" y1="204.33" x2="145.866" y2="262.388" gradientUnits="userSpaceOnUse">
<stop stop-color="#A732D0"/>
<stop offset="1" stop-color="#6F0993"/>
</linearGradient>
<linearGradient id="paint12_linear" x1="132.428" y1="148.337" x2="147.919" y2="227.966" gradientUnits="userSpaceOnUse">
<stop stop-color="#A732D0"/>
<stop offset="1" stop-color="#6F0993"/>
</linearGradient>
<linearGradient id="paint13_linear" x1="227.868" y1="301.544" x2="295.964" y2="301.544" gradientUnits="userSpaceOnUse">
<stop stop-color="#EEBB8D"/>
<stop offset="1" stop-color="#F8C597"/>
</linearGradient>
<linearGradient id="paint14_linear" x1="270.282" y1="315.941" x2="290.905" y2="299.209" gradientUnits="userSpaceOnUse">
<stop stop-color="#EEBB8D"/>
<stop offset="1" stop-color="#F7C596"/>
</linearGradient>
<linearGradient id="paint15_linear" x1="242.266" y1="316.72" x2="219.308" y2="301.155" gradientUnits="userSpaceOnUse">
<stop stop-color="#FCC99B"/>
<stop offset="1" stop-color="#EEBB8D"/>
</linearGradient>
</defs>
</svg>
