<svg width="338" height="445" viewBox="0 0 338 445" fill="none" xmlns="http://www.w3.org/2000/svg">
<rect width="337.845" height="444.357" rx="20" fill="white"/>
<mask id="mask0" mask-type="alpha" maskUnits="userSpaceOnUse" x="0" y="0" width="338" height="445">
<rect width="337.845" height="444.357" rx="20" fill="white"/>
</mask>
<g mask="url(#mask0)">
<rect y="314" width="338" height="116" fill="url(#paint0_radial)"/>
<rect width="266" height="176" transform="matrix(1 0 0 -1 40 283)" fill="url(#paint1_radial)"/>
<path fill-rule="evenodd" clip-rule="evenodd" d="M283 47.5L258.5 54L241.5 44L239 54L255.807 61.797L239 69L250 84.5L265 71.5L259.5 91.5L265 94.5L268 76.5L277.5 71.2447V322L239 334.5L277.5 327L318.5 334.5L280.5 322V69.5851L291.5 63.5L283 47.5Z" fill="url(#paint2_linear)"/>
<path fill-rule="evenodd" clip-rule="evenodd" d="M60.1698 48.566L85.1321 55.1887L102.453 45L105 55.1887L87.876 63.1328L105 70.4717L93.7925 86.2642L78.5094 73.0189L84.1132 93.3962L78.5094 96.4528L75.4528 78.1132L65.7736 72.7587V328.245L105 340.981L65.7736 333.34L24 340.981L62.717 328.245V71.0678L51.5094 64.8679L60.1698 48.566Z" fill="url(#paint3_linear)"/>
<rect width="4.88205" height="109.366" rx="2.44103" transform="matrix(0.989563 0.144098 -0.103126 0.994668 145.618 245.302)" fill="#5B3D33"/>
<rect width="4.87013" height="84.8346" rx="2.43506" transform="matrix(0.998077 0.0619874 -0.0441768 0.999024 156.025 247.609)" fill="#5B3D33"/>
<rect width="4.88205" height="109.366" rx="2.44103" transform="matrix(-0.989563 0.144098 0.103126 0.994668 212.182 245.302)" fill="#5B3D33"/>
<rect width="4.87013" height="84.8346" rx="2.43506" transform="matrix(-0.998077 0.0619874 0.0441768 0.999024 201.503 247.609)" fill="#5B3D33"/>
<rect width="4.87013" height="84.8346" rx="2.43506" transform="matrix(-0.991652 -0.128945 -0.14661 0.989194 216.077 157.686)" fill="#5B3D33"/>
<rect width="4.87013" height="84.8346" rx="2.43506" transform="matrix(0.991652 -0.128945 0.14661 0.989194 137.183 157.686)" fill="#5B3D33"/>
<rect x="139.079" y="241.439" width="79.6401" height="9.48096" rx="4.74048" fill="#714D42"/>
<path fill-rule="evenodd" clip-rule="evenodd" d="M172.5 214C181.681 223.824 178.5 240 166 247.5C155.451 253.829 142.595 260.31 129.645 266.075C131.067 270.023 132.252 274.757 133.08 280.136C134.873 291.778 134.561 308.644 134.336 320.822C134.238 326.139 134.156 330.563 134.273 333.268C134.659 342.164 129.15 343.142 125.547 334.02C121.944 324.897 107.342 278.331 107.152 268.254C107.123 266.723 107.232 265.304 107.459 263.997C106.915 261.636 107.591 258.552 110.162 254.712C119.111 241.348 133.078 228.19 148.14 217.17C149.043 216.51 149.913 215.856 150.755 215.224C158.689 209.26 164.2 205.118 172.5 214Z" fill="url(#paint4_linear)"/>
<path fill-rule="evenodd" clip-rule="evenodd" d="M181.045 205.609C168.193 206.842 165.137 219.686 169 233.5C171.778 243.435 179.587 258.678 185 269.245C186.871 272.897 188.456 275.991 189.448 278.114C188.705 281.196 188.459 285.332 188.766 290.734C189.436 302.521 193.847 323.722 196.613 337.021C197.532 341.439 198.269 344.984 198.628 347.023C200.066 355.196 203.906 359.274 206.084 347.542C208.263 335.809 209.735 295.876 209.496 286.475C209.402 282.804 208.879 279.745 207.903 277.318C208.897 262.884 207.792 242.922 205.615 231.424C203.645 221.016 193.898 204.376 181.045 205.609Z" fill="url(#paint5_linear)"/>
<path d="M187.385 102.152C187.456 108.762 181.019 121.523 174.244 121.597C167.469 121.67 159.969 113.104 159.54 103.227C158.903 88.5649 160.819 81.6249 173.812 81.8509C186.805 82.0769 187.313 95.5424 187.385 102.152Z" fill="#F6C8A6"/>
<path d="M173.358 95.0159C164.421 95.4368 160.861 96.9647 159.443 98.0679C159.427 96.6177 158.967 87.1953 161.085 84.6341C163.14 82.1494 171.026 80.175 173.554 80.1475C176.415 80.1164 184.395 82.8722 185.403 84.3698C186.857 86.5295 186.817 93.7817 187.325 96.6769C185.167 95.6127 179.078 94.7465 173.358 95.0159Z" fill="#E45A5A"/>
<path d="M173.078 94.5355C164.539 94.6284 158.74 96.7731 156.045 98.8841C156.077 101.798 161.845 96.7394 173.101 96.617C184.357 96.4946 189.055 100.191 189.033 98.1092C187.846 96.0404 181.617 94.4427 173.078 94.5355Z" fill="#D74040"/>
<path d="M185.5 129.884C181.601 134.668 168.284 133.783 163.5 129.884C166.596 123.923 166.248 120.097 166.214 116.936C170.195 119.659 177.276 118.568 182 116.936C182.43 120.092 182 126 185.5 129.884Z" fill="#E8B896"/>
<path d="M160.7 111.692C160.124 110.253 159.504 105.738 159.48 103.533C159.526 107.813 163.718 111.66 165.227 111.643C167.868 111.615 167.847 109.669 169.352 109.263C170.856 108.858 175.388 109.198 177.274 109.177C179.16 109.157 181.078 112.094 184.09 111.438C185.595 111.11 186.918 105.57 187.392 102.84C187.289 104.917 187.01 109.383 186.722 110.631C186.181 112.972 182.284 118.852 181.542 120.028C180.8 121.204 175.909 122.424 174.4 122.441C172.891 122.457 169.11 121.72 166.834 120.577C164.557 119.434 161.476 113.63 160.7 111.692Z" fill="#59422D"/>
<path d="M171.19 112.323C170.267 112.333 169.279 113.498 168.903 114.27C168.92 115.808 171.62 116.549 173.928 116.524C176.236 116.499 179.067 115.313 179.054 114.159C179.046 113.39 177.434 112.255 176.574 112.265L171.19 112.323Z" fill="#F6C8A6"/>
<path d="M175.242 131.075C169.903 131.075 166.761 129.98 164.021 128.437C140.717 128.437 138.765 136.553 138.993 157.512C139.166 173.441 147.5 194.5 144 220C162.5 225.5 194 226.5 201 220C198.5 184.5 211.441 178.734 209.349 147.314C208.597 136.022 196.911 128.31 185.168 128.437C182.969 129.684 180.162 131.075 175.242 131.075Z" fill="#CF3535"/>
<path d="M154.387 154.62C159.785 143.122 159.65 129.821 150.751 129.821C141.852 129.821 132.555 136.495 127.614 146.284C123.191 155.048 118.941 172.982 118.056 183.886C117.17 194.791 127.397 194.145 134.137 185.346C142.552 174.359 148.99 166.118 154.387 154.62Z" fill="#CF3535"/>
<path d="M167.427 137.146C167.254 139.276 166.247 143.749 164.192 146.147C162.137 148.546 159.909 150.441 157.165 152.514C157.692 155.712 158.907 159.235 161.836 161.04C166.473 159.441 168.024 160.595 170.432 160.891C173.682 161.289 179.71 159.379 182.113 157.987C184.515 156.594 183.378 145.997 181.719 143.479C180.509 141.644 176.046 143.747 171.41 145.346C171.348 144.054 171.843 141.255 171.56 139.099C171.207 136.405 167.757 133.09 167.427 137.146Z" fill="#F6C8A6"/>
<path d="M214.823 140.5C209.324 130.574 200.109 129.376 194.34 129.376C188.571 129.376 191.114 142.798 194.34 151.734C198.289 162.672 205.789 179.024 212.655 189.539C217.43 196.851 227.51 185.009 226.562 178.212C225.47 170.386 221.096 151.827 214.823 140.5Z" fill="#CF3535"/>
<path d="M216.788 192.247C220.931 191.669 227.922 184.591 227.151 179.067C226.058 171.241 222.911 168.866 216.07 170.29C212.421 171.049 208.961 173.159 209.004 180.193C209.031 184.602 212.645 192.825 216.788 192.247Z" fill="#E24B4B"/>
<path d="M163.197 160.5C161.196 160.203 158.103 154.904 157.988 151.725C148.217 156.6 120.263 171.275 118.33 180.976C116.567 189.827 120.317 192.659 124.737 193.314C130.329 194.144 134.613 191.543 138.392 187.73C141.817 184.274 151.714 173.175 163.197 160.5Z" fill="#E24B4B"/>
<path d="M227.987 154.146C228.264 156.127 225.901 166.051 223.683 170.905C221.318 176.284 218.998 192.262 216.561 193.107C214.124 193.952 197.53 192.228 186.883 189.169C186.641 180.115 193.918 170.01 195.734 150.063C208.524 153.833 227.642 151.669 227.987 154.146Z" fill="#E8E8E8"/>
<path d="M210.048 183.153C206.027 180.616 209.119 172.785 209.703 169.554C210.288 166.323 216.372 172.823 222.831 170.871C224.384 170.402 224.431 167.498 226.463 167.215C228.494 166.931 229.731 169.493 229.356 173.11C228.695 179.5 225.935 181.985 222.596 184.026C218.553 186.496 213.454 185.302 210.048 183.153Z" fill="#F6C8A6"/>
<path d="M136.895 323.198C130.394 326.697 124.745 327.251 120.735 327.072C121.179 331.606 122.836 339.454 121.272 344.185C119.513 349.508 114.894 354.588 109.725 360.196C105.085 365.228 108.752 367.73 117.226 366.898C125.719 366.065 129.895 356.5 131.988 354.578C134.081 352.656 138.434 350.513 140.527 348.591C142.62 346.669 140.369 341.168 139.526 338.389C138.93 336.425 137.618 330.566 136.895 323.198Z" fill="#1F1B19"/>
<path d="M193.121 330.709C199.44 332.5 205.835 331.402 209.856 329.612C210.661 339.093 210.689 340.794 215.875 348.574C220.616 355.684 239.656 362.998 230.097 366.113C217.902 370.088 211.88 363.852 206.395 361.847C199.824 359.446 198.638 360.491 196.341 358.701C194.043 356.911 194.92 350.496 195.495 347.513C195.901 345.403 194.845 337.87 193.121 330.709Z" fill="#1F1B19"/>
</g>
<defs>
<radialGradient id="paint0_radial" cx="0" cy="0" r="1" gradientUnits="userSpaceOnUse" gradientTransform="translate(169 302.5) rotate(90) scale(102.5 299.472)">
<stop stop-color="#2B485C" stop-opacity="0.06"/>
<stop offset="1" stop-color="#2B485C" stop-opacity="0"/>
</radialGradient>
<radialGradient id="paint1_radial" cx="0" cy="0" r="1" gradientUnits="userSpaceOnUse" gradientTransform="translate(133 -17.4483) rotate(90) scale(155.517 235.679)">
<stop stop-color="#2B485C" stop-opacity="0.06"/>
<stop offset="1" stop-color="#2B485C" stop-opacity="0"/>
</radialGradient>
<linearGradient id="paint2_linear" x1="315.5" y1="52" x2="183.353" y2="370.524" gradientUnits="userSpaceOnUse">
<stop stop-color="#2B485C" stop-opacity="0.06"/>
<stop offset="1" stop-color="#2B485C" stop-opacity="0"/>
</linearGradient>
<linearGradient id="paint3_linear" x1="24" y1="179.5" x2="276.524" y2="186.09" gradientUnits="userSpaceOnUse">
<stop stop-color="#2B485C" stop-opacity="0.06"/>
<stop offset="1" stop-color="#2B485C" stop-opacity="0"/>
</linearGradient>
<linearGradient id="paint4_linear" x1="151.329" y1="217.799" x2="149.043" y2="324.727" gradientUnits="userSpaceOnUse">
<stop stop-color="#5495AA"/>
<stop offset="1" stop-color="#215880"/>
</linearGradient>
<linearGradient id="paint5_linear" x1="187.927" y1="205.197" x2="189.554" y2="354.858" gradientUnits="userSpaceOnUse">
<stop stop-color="#5495AA"/>
<stop offset="1" stop-color="#215880"/>
</linearGradient>
</defs>
</svg>
