<svg width="339" height="445" viewBox="0 0 339 445" fill="none" xmlns="http://www.w3.org/2000/svg">
<rect x="0.259766" width="337.845" height="444.357" rx="20" fill="white"/>
<mask id="mask0" mask-type="alpha" maskUnits="userSpaceOnUse" x="0" y="0" width="339" height="445">
<rect x="0.259766" width="337.845" height="444.357" rx="20" fill="white"/>
</mask>
<g mask="url(#mask0)">
<rect x="-38.8501" y="315.099" width="415.233" height="76.8525" fill="url(#paint0_radial)"/>
<rect x="48.5234" y="52.4243" width="276.267" height="5.82491" fill="#4A657D" fill-opacity="0.06"/>
<rect x="61.0054" y="58.2493" width="39.9422" height="242.982" fill="url(#paint1_linear)"/>
<rect x="272.367" y="58.2493" width="41.6065" height="242.982" fill="url(#paint2_linear)"/>
<rect x="119.274" y="89.2089" width="135.285" height="150.776" fill="url(#paint3_linear)" fill-opacity="0.5" stroke="#757575" stroke-width="5"/>
<rect x="210.291" y="96.0608" width="39.7202" height="31.105" transform="rotate(16.7686 210.291 96.0608)" fill="url(#paint4_linear)"/>
<rect x="222.323" y="132.654" width="30.6766" height="4.41067" rx="2" transform="rotate(106.874 222.323 132.654)" fill="#5CB13D"/>
<rect x="201.269" y="125.336" width="40.1336" height="3.9476" rx="1.9738" transform="rotate(16.8738 201.269 125.336)" fill="#6ACB48"/>
<rect x="201.269" y="125.336" width="40.1336" height="1.55495" rx="0.777473" transform="rotate(16.8738 201.269 125.336)" fill="#343434"/>
<rect x="182.183" y="86.7089" width="9.46708" height="155.776" fill="#757575"/>
<rect x="101.282" y="240.764" width="170.407" height="10.3277" fill="#C8C8C8"/>
<path d="M218.332 156.064C217.536 157.279 212.027 158.258 209.372 158.596C208.708 158.258 207.082 157.279 205.887 156.064C204.393 154.545 208.509 145.608 210.003 144.595C211.496 143.582 212.826 144.693 213.488 146.949C213.985 148.646 219.703 146.157 220.323 146.949C222.448 149.659 219.328 154.545 218.332 156.064Z" fill="#F6B3A6"/>
<path fill-rule="evenodd" clip-rule="evenodd" d="M109.166 182.222C109.137 182.386 109.109 182.54 109.083 182.684C107.779 190.01 102.739 200.699 98.5714 208.806C106.069 211.318 119.124 215.907 125.025 218.293C130.907 220.672 130.417 224.953 125.025 224.953C120.505 224.953 92.6705 222.574 87.7684 220.672C83.46 218.999 81.0449 214.388 81.8541 210.389C81.1304 204.029 83.103 191.175 84.4997 182.074C84.7379 180.522 84.9593 179.079 85.1478 177.796C86.5839 168.019 95.2007 157.264 104.296 158.731C113.131 160.155 110.163 176.674 109.166 182.222Z" fill="url(#paint5_linear)"/>
<path fill-rule="evenodd" clip-rule="evenodd" d="M123.551 231.625C132.921 235.302 133.861 245.068 131.415 254.938C127.99 268.764 120.166 294.198 116.828 300.733C116.19 302.223 115.388 303.689 114.483 305.045C110.269 311.352 88.5811 337.71 84.1595 342.541C79.738 347.371 76.6459 348.651 79.7002 339.322C79.9 338.712 80.1505 337.936 80.4454 337.023C83.5357 327.453 91.5011 302.786 97.0915 295.234C97.9382 294.091 98.7653 293.073 99.5785 292.174C94.0838 276.776 92.2305 257.365 98.6648 244.319C103.587 234.339 114.181 227.948 123.551 231.625Z" fill="url(#paint6_linear)"/>
<path d="M73.5005 348C75.0562 346.519 79.1014 333.822 81.4998 327L94.9999 332C91.5843 337.735 86.1267 344.731 85.4998 351.5C84.541 361.852 96.6694 364.682 96.1998 367.368C95.7302 370.054 84.3165 371.451 80.1456 365C76.5782 359.483 72.4329 361.146 70.155 357.842C67.2144 353.575 69.3834 351.921 73.5005 348Z" fill="#775A4E"/>
<path fill-rule="evenodd" clip-rule="evenodd" d="M127.781 232.971C137.716 230.926 147.079 240.569 150.134 250.351C154.295 263.671 156.575 284.202 156.871 291.791C158.351 294.217 159.116 297.515 159.116 300.814C159.116 307.878 156.907 343.284 156.377 346.482C155.847 349.681 151.265 350.138 149.507 344.39C149.319 343.775 148.808 342.369 148.101 340.424C144.908 331.639 137.709 311.834 138.12 303.986C138.325 300.052 139.111 296.944 140.416 294.542C136.089 289.252 131.733 284.626 127.735 280.38C118.045 270.088 110.454 262.026 110.454 252.15C110.454 236.537 117.82 235.021 127.728 232.982L127.781 232.971Z" fill="url(#paint7_linear)"/>
<path d="M149.155 358.893C149.699 356.809 146.179 342.363 144.738 335.342L159.313 333.336C158.353 338.685 158.64 349.224 161.522 355.242C165.928 364.445 179.111 362.775 180.071 365.282C181.032 367.789 169.709 370.947 162.506 369.442C157.88 368.476 156.149 368.476 152.447 368.477L152.247 368.477C148.405 368.477 147.714 364.409 149.155 358.893Z" fill="#775A4E"/>
<path d="M108.242 158.409C110.54 154.455 111.057 146.152 109.851 141.012C115.481 140.221 122.72 143.78 123.122 146.943C123.122 149.71 123.122 153.269 125.937 157.223C121.916 159.595 114.275 160.781 108.242 158.409Z" fill="#E9A99C"/>
<path d="M130.16 147.686C130.872 146.45 131.609 139.941 129.977 129.781C128.345 119.622 118.589 118.018 112.451 119.959C106.312 121.899 104.577 127.289 105.387 133.963C106.198 140.637 107.757 143.635 113.778 147.285C119.799 150.936 129.173 149.399 130.16 147.686Z" fill="#F6B3A6"/>
<path d="M102.825 128.764C102.08 134.661 105.235 141.482 106.44 143.867C107.645 146.251 109.654 148.636 111.261 148.636C112.867 148.636 114.017 148.884 115.679 146.251C117.688 143.072 113.269 135.123 117.286 133.136C119.873 131.856 121.705 135.123 121.705 137.905H123.714C123.312 133.136 120.098 129.559 123.714 125.982C126.27 123.453 129.137 124.392 130.543 122.007C132.953 117.92 130.405 113.94 125.722 116.046C121.303 118.033 117.688 115.999 112.064 117.636C105.235 119.623 103.327 124.79 102.825 128.764Z" fill="#52385E"/>
<path d="M140.612 236.423C140.612 208.854 149.162 205.258 149.162 184.137C149.162 168.045 142.477 157.457 124.994 156.384C119.623 158.99 113.357 158.072 109.777 156.384C99.6314 158.367 94.8056 163.707 93.217 176.048C90.6717 195.821 99.4362 205.415 102.168 237.615C102.542 242.022 127.633 244.063 140.612 236.423Z" fill="url(#paint8_linear)"/>
<path fill-rule="evenodd" clip-rule="evenodd" d="M182.768 182.582C183.198 182.415 183.636 182.21 184.079 181.968C188.985 179.293 200.579 169.483 209.497 157.888C208.735 155.962 207.714 154.681 205.39 154.681C204.378 155.266 201.98 156.459 198.975 157.955C191.615 161.618 180.616 167.092 177.429 169.871C177.384 169.852 177.339 169.833 177.295 169.815C167.118 165.562 150.529 158.63 139.009 158.334C129.059 158.079 125.411 162.09 123.24 172.865C122.081 187.746 134.409 188.583 142.894 188.62C157.681 188.683 170.624 186.254 180.112 183.681C181.043 183.428 181.944 183.051 182.768 182.582Z" fill="url(#paint9_linear)"/>
<path d="M222.511 207.814L225.461 197.486L228.043 198.224L224.355 208.182L222.511 207.814Z" fill="#455F77"/>
<path d="M224.354 223.674C223.174 226.33 223.986 229.576 223.986 242.854H240.953V213.346C240.953 210.986 239.477 204.248 238.74 201.174H232.469C232.469 203.019 232.469 209.658 231.731 212.24C230.718 215.786 225.83 220.354 224.354 223.674Z" fill="#37C299"/>
<path d="M231.673 200.931C230.478 198.167 222.511 198.167 222.511 195.403V193.429H240.835L242.428 195.798L239.242 202.905H232.502C232.568 203.085 232.53 203.025 232.469 202.905H232.502C232.422 202.69 232.193 202.134 231.673 200.931Z" fill="white"/>
<rect x="221.773" y="193.429" width="2.21308" height="3.68847" fill="#455F77"/>
</g>
<defs>
<radialGradient id="paint0_radial" cx="0" cy="0" r="1" gradientUnits="userSpaceOnUse" gradientTransform="translate(169.32 301.177) rotate(90) scale(79.0801 185.847)">
<stop stop-color="#2B485C" stop-opacity="0.06"/>
<stop offset="1" stop-color="#2B485C" stop-opacity="0"/>
</radialGradient>
<linearGradient id="paint1_linear" x1="80.9765" y1="58.2493" x2="79.4042" y2="317.785" gradientUnits="userSpaceOnUse">
<stop stop-color="#2B485C" stop-opacity="0.06"/>
<stop offset="1" stop-color="#2B485C" stop-opacity="0"/>
</linearGradient>
<linearGradient id="paint2_linear" x1="293.17" y1="58.2493" x2="291.661" y2="317.786" gradientUnits="userSpaceOnUse">
<stop stop-color="#2B485C" stop-opacity="0.06"/>
<stop offset="1" stop-color="#2B485C" stop-opacity="0"/>
</linearGradient>
<linearGradient id="paint3_linear" x1="72.8295" y1="242.485" x2="280.323" y2="117.622" gradientUnits="userSpaceOnUse">
<stop stop-color="#B6D8E3"/>
<stop offset="1" stop-color="#E2F8FF"/>
</linearGradient>
<linearGradient id="paint4_linear" x1="230.151" y1="96.0608" x2="230.151" y2="127.166" gradientUnits="userSpaceOnUse">
<stop stop-color="white" stop-opacity="0"/>
<stop offset="1" stop-color="white"/>
</linearGradient>
<linearGradient id="paint5_linear" x1="103.004" y1="165.888" x2="79.7663" y2="203.756" gradientUnits="userSpaceOnUse">
<stop stop-color="#548BCB"/>
<stop offset="1" stop-color="#285D9A"/>
</linearGradient>
<linearGradient id="paint6_linear" x1="103.004" y1="250.475" x2="113.5" y2="301.819" gradientUnits="userSpaceOnUse">
<stop stop-color="#57426B"/>
<stop offset="1" stop-color="#392948"/>
</linearGradient>
<linearGradient id="paint7_linear" x1="138.841" y1="269.11" x2="143.494" y2="349.936" gradientUnits="userSpaceOnUse">
<stop stop-color="#57426B"/>
<stop offset="1" stop-color="#392948"/>
</linearGradient>
<linearGradient id="paint8_linear" x1="121.889" y1="155.376" x2="121.889" y2="247.228" gradientUnits="userSpaceOnUse">
<stop stop-color="#548BCB"/>
<stop offset="1" stop-color="#285D9A"/>
</linearGradient>
<linearGradient id="paint9_linear" x1="145.895" y1="162.492" x2="158.54" y2="191.409" gradientUnits="userSpaceOnUse">
<stop stop-color="#548BCB"/>
<stop offset="1" stop-color="#285D9A"/>
</linearGradient>
</defs>
</svg>
