<svg width="338" height="445" viewBox="0 0 338 445" fill="none" xmlns="http://www.w3.org/2000/svg">
<rect x="0.129883" width="337.845" height="444.357" rx="20" fill="white"/>
<mask id="mask0" mask-type="alpha" maskUnits="userSpaceOnUse" x="0" y="0" width="338" height="445">
<rect x="0.129883" width="337.845" height="444.357" rx="20" fill="white"/>
</mask>
<g mask="url(#mask0)">
<path opacity="0.12" fill-rule="evenodd" clip-rule="evenodd" d="M180.395 104.43H154.773V171.384H154.668V230.67H144.708V194.105H144.448L131.897 149.268L119.346 194.105H119.086V230.67H107.191V130.052H87.9751V148.796L76.9943 158.985V168.516H38.0088V337.768H77.214L106.857 337.768L119.086 337.768H144.708L157.537 337.768L180.486 337.768H222.56L261.834 337.768H264.634H303.839H303.927H330.614V208.199L303.927 188.66V122.731H261.834V223.021H256.344V175.804H237.128V223.021H222.56V206.765H220.684L222.56 206.287L205.348 190.509L205.348 171.384H180.395V104.43ZM38.0087 195.29H8.36572V337.768H38.0087V195.29Z" fill="url(#paint0_radial)"/>
<path opacity="0.2" fill-rule="evenodd" clip-rule="evenodd" d="M94.0019 253.032C94.0884 252.49 94.1334 251.933 94.1334 251.365C94.1334 245.877 89.9372 241.429 84.761 241.429C82.1499 241.429 79.7882 242.561 78.0887 244.387C75.8058 243.897 73.4252 243.637 70.978 243.637C61.1101 243.637 52.3235 247.858 46.6716 254.428C45.5073 253.878 44.2177 253.573 42.8608 253.573C38.5788 253.573 34.9676 256.617 33.8476 260.775C33.0622 260.922 32.2878 261.097 31.5255 261.297C28.2615 255.974 22.7042 252.469 16.3975 252.469C8.8538 252.469 2.38242 257.483 -0.374747 264.627C-4.88475 264.797 -9.03068 266.433 -12.3752 269.084C-12.7033 269.047 -13.0364 269.028 -13.3737 269.028C-18.55 269.028 -22.7461 273.476 -22.7461 278.964C-22.7461 281.41 -21.9118 283.651 -20.5281 285.382C-20.5366 285.633 -48.4491 282.431 -57.6287 298.343C-66.8083 314.254 -83.2158 399.319 -48.4491 400.543C-13.6825 401.767 296.701 400.543 402.577 400.543C411.407 400.543 418.488 268.356 359.869 276.756C359.869 268.142 353.52 261.065 345.404 260.27C344.253 250.91 335.618 243.637 325.136 243.637C316.71 243.637 309.478 248.337 306.367 255.042C299.879 256.002 294.07 258.806 289.607 262.845C287.935 261.201 285.696 260.196 283.236 260.196C280.728 260.196 278.45 261.24 276.768 262.941C276.169 262.191 275.529 261.47 274.853 260.779C274.241 256.407 271.196 252.868 267.215 251.742C264.427 246.889 259.312 243.637 253.464 243.637C246.728 243.637 240.964 247.953 238.61 254.06C232.538 256.683 227.554 261.059 224.444 266.471C222.24 265.283 219.734 264.612 217.077 264.612C214.024 264.612 211.171 265.499 208.744 267.037C205.785 264.983 202.406 263.405 198.746 262.429C197.714 254.315 191.011 248.053 182.896 248.053C178.641 248.053 174.774 249.774 171.91 252.581C171.172 252.507 170.423 252.469 169.664 252.469C160.049 252.469 151.989 258.588 149.832 266.825C149.643 266.822 149.455 266.82 149.265 266.82C148.214 266.82 147.175 266.868 146.151 266.961C144.646 263.619 141.431 261.308 137.706 261.3C136.419 257.441 132.947 254.677 128.866 254.677C123.69 254.677 119.494 259.125 119.494 264.612C119.494 264.661 119.494 264.709 119.495 264.758C119.497 264.871 119.5 264.983 119.505 265.095C115.173 266.204 111.537 269.142 109.405 273.073C107.401 270.467 104.656 268.501 101.499 267.519C100.578 262 97.9003 257.008 94.0019 253.032Z" fill="url(#paint1_radial)"/>
<path d="M181.754 140.101C190.575 135.831 195.477 141.186 203.184 140.429C211.467 140.589 210.465 135.338 216.916 136.651C220.236 137.326 237.47 167.698 239.786 191.305C242.385 217.798 219.719 234.611 209.889 263.295C203.657 281.481 212.745 307.27 214.417 314.4C211.206 314.715 196.185 313.952 185.1 308.037C171.244 300.643 140.939 275.154 113.412 271.302C88.265 267.783 66.019 274.007 35.9951 285.22C54.844 249.329 96.2837 240.466 120.105 220.555C143.926 200.644 165.378 148.027 181.754 140.101Z" fill="url(#paint2_linear)"/>
<path d="M193.474 130.683C193.946 135.5 193.361 139.448 191.142 141.611C193.547 142.996 199.427 145.759 203.704 145.728C209.049 145.69 214.839 140.259 213.394 140.4C212.43 140.495 210.05 134.406 209.171 132.061C204.741 131.523 193.354 129.465 193.474 130.683Z" fill="#E9A99C"/>
<path d="M215.047 133.298C215.121 130.65 213.659 123.394 212.406 119.115C210.745 113.089 206.826 108.935 198.867 108.478C190.908 108.021 188.195 112.817 187.624 117.008C186.655 124.117 191.955 131.437 195.084 133.606C198.213 135.775 214.956 136.608 215.047 133.298Z" fill="#F6B3A6"/>
<path d="M189.877 122.431C191.428 121.635 193.335 123.738 193.987 126.144L196.913 126.268C195.05 124.256 192.171 118.667 192.575 115.994C193.08 112.652 196.177 110.29 202.108 111.354C206.21 112.09 209.703 111.327 211.469 109.201C213.702 106.513 211.693 103.006 210.217 100.682C208.224 97.544 206.954 98.5325 205.19 100.352C202.545 103.081 195.462 103.295 191.415 104.173C184.488 105.676 183.971 113.134 184.291 116.395C184.691 120.471 188.296 127.525 190.477 128.546C189.865 126.548 187.896 123.449 189.877 122.431Z" fill="#64331E"/>
<path fill-rule="evenodd" clip-rule="evenodd" d="M187.535 235.419C195.255 237.858 199.971 245.106 195.911 253.285C191.85 261.465 168.759 285.218 147.679 303.334C147.633 303.374 147.587 303.413 147.54 303.452C141.932 309.637 108.575 336.903 104.142 339.016C100.425 340.788 100.156 338.044 99.8714 335.142L99.8633 335.059C105.632 325.612 117.421 307.113 122.802 301.198C126.238 297.42 133.343 291.306 139.039 290.136C139.037 289.956 139.037 289.776 139.036 289.593C139.016 274.519 157.93 245.467 168.246 238.978C173.743 235.521 179.816 232.98 187.535 235.419Z" fill="url(#paint3_linear)"/>
<path d="M146.338 307.642C144.531 306.463 128.129 302.372 119.725 301.5C114.698 301.993 96.8485 331.31 95.0835 334.876C93.3184 338.441 87.736 337.47 86.2251 339.315C85.5069 340.192 86.4524 346.587 85.2022 353.518C83.9521 360.449 87.0706 365.239 88.4049 366.335C92.6364 369.81 93.5109 349.025 98.7991 342.569C110.873 336.295 148.598 309.117 146.338 307.642Z" fill="#EC7F1A"/>
<path d="M152.443 227.975C153.871 226.667 159.584 222.087 166.415 217.364C171.459 224.164 188.734 231.709 200.436 232.019C200.512 232.79 198.964 246.753 197.604 252.722C187.173 249.855 181.629 252.831 175.169 256.383C169.434 232.63 160.433 230.108 152.443 227.975Z" fill="#2B1C3A"/>
<path fill-rule="evenodd" clip-rule="evenodd" d="M264.908 122.372C264.973 122.314 265.038 122.255 265.102 122.196C268.275 119.291 282.797 91.0647 286.562 83.7472C287.032 82.8326 287.335 82.2447 287.426 82.0736C288.083 80.842 286.132 78.7964 284.158 78.5038C277.516 85.1533 255.507 107.673 252.455 112.252C252.01 112.919 251.62 113.535 251.283 114.109C241.324 118.945 219.491 133.93 213.346 139.919C206.688 146.408 206.812 157.581 213.396 165.202C219.979 172.823 232.21 173.569 238.963 168.043C244.6 163.43 260.42 134.767 264.908 122.372Z" fill="url(#paint4_linear)"/>
<path d="M204.468 143.601C200.229 144.017 195.137 142.678 192.587 141.469C187.043 144.445 178.364 151.618 174.436 164.648C168.393 184.693 163.88 215.667 163.294 219.615C167.13 228.965 188.267 231.268 199.686 228.689C202.15 224.07 214.323 204.396 225.467 194.063C234.756 185.45 243.231 171.895 237.289 155.943C233.578 145.98 219.081 140.546 212.325 139.426C211.504 140.965 208.706 143.185 204.468 143.601Z" fill="url(#paint5_linear)"/>
<path d="M224.687 158.745C219.375 161.499 206.822 164.405 198.366 163.56L192.046 173.112C196.419 179.753 205.176 187.453 210.131 198.131C222.912 191.853 231.572 172.024 231.301 169.26C231.03 166.496 230.596 162.073 224.687 158.745Z" fill="white"/>
<path fill-rule="evenodd" clip-rule="evenodd" d="M195.231 143.641C199.005 150.079 194.524 161.218 188.972 169.058C186.041 173.195 178.617 180.228 171.583 186.384C178.693 187.696 192.133 187.641 203.584 184.159C205.605 184.933 206.757 186.765 205.161 190.326C194.087 196.415 153.771 206.811 145.708 203.94C144.545 203.526 143.56 202.974 142.737 202.316C142.303 202.094 141.912 201.8 141.571 201.428C138.303 197.858 138.961 192.078 140.928 184.957C142.722 178.459 151.604 159.151 165.698 149.943C176.21 143.076 191.457 137.203 195.231 143.641Z" fill="url(#paint6_linear)"/>
<path fill-rule="evenodd" clip-rule="evenodd" d="M173.95 223.517C183.583 222.572 205.909 222.729 212.889 224.475C217.414 225.608 221.998 228.042 223.884 231.208C226.803 235.058 224.965 243.94 222.912 247.321C218.725 254.216 180.177 282.638 175.068 285.085C170.98 287.042 169.753 285.444 169.438 282.233C169.866 281.528 170.335 280.753 170.84 279.918C174.526 273.822 180.13 264.554 185.771 256.391C175.635 259.862 165.649 262.395 159.652 261.795C144.918 260.323 138.224 246.005 146.723 233.5C152.306 225.285 161.669 224.529 170.396 223.824C171.596 223.727 172.785 223.631 173.95 223.517Z" fill="url(#paint7_linear)"/>
<path d="M218.369 255.548C216.291 254.196 200.735 250.956 191.073 249.959C185.293 250.526 162.557 283.395 160.527 287.484C158.497 291.574 153.443 289.638 151.706 291.754C150.897 292.739 151.054 298.139 150.588 304.508C148.02 313.027 150.737 318.431 152.101 319.921C157.003 325.276 158.715 303.71 164.797 296.305C178.68 289.107 220.966 257.239 218.369 255.548Z" fill="#ED8322"/>
<path d="M287.69 69.8901C286.475 70.4367 283.671 76.6107 283.724 79.0328C284.602 78.9466 286.886 80.3334 287.379 81.592C288.715 80.1539 290.551 78.8082 291.818 77.2661C292.252 76.7371 295.289 77.3812 296.772 75.5553C298.254 73.7294 297.649 70.9835 295.926 69.5683C294.539 68.4296 290.283 68.7232 287.69 69.8901Z" fill="#F6B3A6"/>
<path d="M215.502 189.917C214.4 191.107 207.454 191.373 204.68 190.373C205.12 189.394 204.013 185.604 202.752 184.548L202.777 184.509C204.528 181.818 205.141 180.877 207.4 180.017C209.67 179.154 210.526 180.729 211.535 180.63C214.384 180.351 216.168 178.053 217.133 180.59C217.909 182.631 217.853 187.378 215.502 189.917Z" fill="#F6B3A6"/>
</g>
<defs>
<radialGradient id="paint0_radial" cx="0" cy="0" r="1" gradientUnits="userSpaceOnUse" gradientTransform="translate(169.414 104.43) rotate(90) scale(185.755 256.535)">
<stop stop-color="#485E80"/>
<stop offset="1" stop-color="#495F80" stop-opacity="0"/>
</radialGradient>
<radialGradient id="paint1_radial" cx="0" cy="0" r="1" gradientUnits="userSpaceOnUse" gradientTransform="translate(169.414 151.469) rotate(90) scale(236.834 1077.77)">
<stop stop-color="#3EB366"/>
<stop offset="1" stop-color="#3EB366" stop-opacity="0"/>
</radialGradient>
<linearGradient id="paint2_linear" x1="188.357" y1="162.796" x2="96.0525" y2="277.762" gradientUnits="userSpaceOnUse">
<stop offset="0.0782682" stop-color="#FF7575"/>
<stop offset="1" stop-color="#DD315D"/>
</linearGradient>
<linearGradient id="paint3_linear" x1="180.711" y1="228.605" x2="153.114" y2="314.838" gradientUnits="userSpaceOnUse">
<stop stop-color="#624B76"/>
<stop offset="1" stop-color="#381C51"/>
</linearGradient>
<linearGradient id="paint4_linear" x1="280.096" y1="81.7134" x2="231.633" y2="161.002" gradientUnits="userSpaceOnUse">
<stop stop-color="#3290C4"/>
<stop offset="1" stop-color="#106CA0"/>
</linearGradient>
<linearGradient id="paint5_linear" x1="206.914" y1="148.71" x2="220.507" y2="220.302" gradientUnits="userSpaceOnUse">
<stop stop-color="#3290C4"/>
<stop offset="1" stop-color="#106CA0"/>
</linearGradient>
<linearGradient id="paint6_linear" x1="197.677" y1="143.781" x2="176.599" y2="186.699" gradientUnits="userSpaceOnUse">
<stop stop-color="#3290C4"/>
<stop offset="1" stop-color="#106CA0"/>
</linearGradient>
<linearGradient id="paint7_linear" x1="198.448" y1="221.029" x2="196.022" y2="262.619" gradientUnits="userSpaceOnUse">
<stop stop-color="#624B76"/>
<stop offset="1" stop-color="#381C51"/>
</linearGradient>
</defs>
</svg>
