<svg width="338" height="445" viewBox="0 0 338 445" fill="none" xmlns="http://www.w3.org/2000/svg">
<rect width="337.845" height="444.357" rx="20" fill="white"/>
<mask id="mask0" mask-type="alpha" maskUnits="userSpaceOnUse" x="0" y="0" width="338" height="445">
<rect width="337.845" height="444.357" rx="20" fill="white"/>
</mask>
<g mask="url(#mask0)">
<rect x="60" y="51" width="142" height="170" fill="url(#paint0_linear)" stroke="#EBEFF2" stroke-width="6"/>
<rect width="206" height="19" transform="matrix(1 0 0 -1 28 243)" fill="url(#paint1_linear)"/>
<rect x="58" y="254" width="21" height="68" fill="url(#paint2_linear)"/>
<rect x="88" y="254" width="21" height="68" fill="url(#paint3_linear)"/>
<rect x="118" y="254" width="21" height="68" fill="url(#paint4_linear)"/>
<rect x="148" y="254" width="21" height="68" fill="url(#paint5_linear)"/>
<rect x="178" y="254" width="21" height="68" fill="url(#paint6_linear)"/>
<rect x="208" y="254" width="21" height="68" fill="url(#paint7_linear)"/>
<rect y="333" width="338" height="105" fill="url(#paint8_radial)"/>
<path d="M237.455 174.003C235.839 182.107 231.377 193.527 227.068 198.39C228.146 201.091 228.146 202.712 230.839 203.252C233.532 203.792 239.876 202.266 240.759 199.176C242.063 194.614 241.298 179.421 240.759 175.099C240.221 170.776 238.316 169.68 237.455 174.003Z" fill="#F6B3A6"/>
<path fill-rule="evenodd" clip-rule="evenodd" d="M194.424 226.199C196.326 226.301 198.254 225.751 199.703 224.568C201.721 222.919 208.28 218.762 214.98 214.517C222.416 209.806 230.024 204.985 231.789 203.36C229.59 202.416 227.691 200.528 227.691 197.695C226.864 198.169 223.117 199.208 218.422 200.509C210.27 202.768 199.262 205.818 195.722 208.082C194.936 208.584 194.183 209.077 193.472 209.571C193.4 209.54 193.327 209.509 193.254 209.478C182.616 204.932 167.618 198.524 153.056 198.639C145.95 198.696 133.445 199.684 129.744 209.498C126.043 219.312 133.263 230.742 146.018 230.742C157.639 230.742 185.619 227.859 194.424 226.199Z" fill="#F3AA3C"/>
<path d="M133.657 211.909C134.819 208.402 135.981 198.269 135.206 190.864C138.693 190.085 146.828 189.695 149.926 192.423C149.539 197.879 150.314 203.335 152.638 208.402C148.377 211.13 142.179 212.299 133.657 211.909Z" fill="#E9A99C"/>
<path d="M156.234 192.584C156.234 190.234 156.629 181.223 153.86 172.997C151.09 164.77 143.968 162.028 135.66 163.595C127.351 165.162 125.922 175.234 126.56 179.656C127.351 185.141 129.329 189.058 134.473 192.584C139.616 196.11 156.234 194.935 156.234 192.584Z" fill="#F6B3A6"/>
<path d="M122.358 174.02C122.978 178.974 130.041 188.482 130.493 189.386C128.987 185.62 125.974 179.805 129.589 177.636C133.205 175.467 136.067 178.992 135.916 182.155C137.272 182.155 138.176 182.155 139.08 182.155C138.628 180.799 133.657 174.472 135.464 169.953C137.272 165.434 143.147 168.145 147.666 167.693C152.186 167.242 153.993 164.078 153.993 160.915C153.993 155.862 152.186 149.616 149.926 153.684C147.666 157.751 136.433 155.911 130.041 159.107C122.81 162.722 121.907 170.405 122.358 174.02Z" fill="#573A29"/>
<path d="M172.777 239.24C180.888 223.973 169.472 196.279 151.06 198.167C132.648 200.056 125.73 205.249 123.206 228.854C121.414 245.617 123.41 268.511 132.648 291.644C137.841 284.09 153.893 278.425 165.695 278.425C163.807 266.622 164.751 254.348 172.777 239.24Z" fill="url(#paint9_linear)"/>
<path d="M165.695 266.622C165.371 271.805 166.167 275.592 167.111 279.369C162.957 284.656 141.775 290.227 132.176 292.116C125.566 279.841 102.433 186.837 159.086 199.112C116.596 198.167 125.094 247.266 127.927 257.652C130.759 268.038 136.424 272.287 148.227 270.399C160.03 268.511 163.816 250.571 169.944 238.768C176.071 226.965 168.446 216.793 169.944 216.579C173.248 216.107 178.5 228.185 173.721 238.768C167.111 253.403 166.167 259.068 165.695 266.622Z" fill="url(#paint10_linear)"/>
<path fill-rule="evenodd" clip-rule="evenodd" d="M131.765 296.164C132.093 305.407 137.201 312.925 150.852 313.22C161.087 313.44 184.493 307.882 198.747 302.863C197.885 308.983 199.289 316.074 200.821 323.816C202.243 331.003 203.777 338.75 203.711 346.799C203.663 352.653 207.252 352.443 210.056 349.634C212.86 346.824 218.056 312.495 218.418 304.592C218.758 297.176 218.569 283.883 213.164 283.925C212.541 283.508 211.783 283.147 210.875 282.855C204.326 280.744 174.565 275.617 152.516 279.248C139.606 281.374 131.437 286.921 131.765 296.164Z" fill="url(#paint11_linear)"/>
<rect x="204.407" y="133.172" width="5.42235" height="42.2943" rx="2" transform="rotate(-16.8437 204.407 133.172)" fill="#684836"/>
<path d="M198.092 132.275C198.22 132.069 198.419 131.917 198.651 131.846L217.218 126.225C217.747 126.065 218.305 126.364 218.465 126.892L219.771 131.206C219.931 131.735 219.632 132.293 219.104 132.453L195.617 139.563C194.734 139.831 193.991 138.861 194.479 138.078L198.092 132.275Z" fill="url(#paint12_linear)"/>
<path d="M217.604 169.752C215.715 170.13 213.984 172.742 212.883 174.001C211.624 173.214 209.106 171.64 208.162 169.752C206.398 166.225 207.217 158.422 209.106 157.477C210.994 156.533 213.355 157.949 213.355 157.949C215.873 157.477 219.398 154.928 220.908 156.061C222.419 157.194 223.584 162.356 223.269 165.031C223.047 166.919 219.492 169.374 217.604 169.752Z" fill="#F6B3A6"/>
<path fill-rule="evenodd" clip-rule="evenodd" d="M156.434 277.71C147.524 275.349 139.018 278.692 132.185 291.63C127.074 301.309 127.921 327.01 129.936 343.287C125.221 340.993 118.071 339.98 110.05 338.844C102.497 337.774 94.171 336.594 86.382 334.133C80.8224 332.376 79.9434 336.284 81.776 340.108C83.6087 343.933 115.706 360.232 123.123 362.924C129.467 365.226 141.131 367.58 143.436 363.681C143.878 363.196 144.318 362.599 144.754 361.879C148.52 355.659 161.012 328.647 163.442 304.568C164.865 290.469 165.344 280.071 156.434 277.71Z" fill="url(#paint13_linear)"/>
<path fill-rule="evenodd" clip-rule="evenodd" d="M200.334 212.536C201.597 211.641 202.613 210.45 203.169 209.096C205.268 203.997 213.385 177.044 213.85 172.529C211.528 172.078 210.135 171.175 208.277 169.369C207.901 169.979 206.641 171.91 204.94 174.519C200.348 181.557 192.539 193.528 190.167 197.81C189.901 198.291 189.651 198.762 189.417 199.224C176.685 198.056 156.83 197.279 142.824 201.035C135.592 202.975 128.428 207.356 128.893 216.385C129.357 225.414 136.787 231.282 149.325 231.282C161.863 231.282 194.094 216.388 198.99 213.611C199.521 213.31 199.967 212.947 200.334 212.536Z" fill="url(#paint14_linear)"/>
<path d="M217.066 336.493C217.066 336.493 209.875 341.234 200.631 341.234C202.172 344.921 201.658 350.715 201.658 354.929C201.658 359.143 199.604 361.776 202.172 364.41C204.381 366.675 215.011 364.41 224.256 365.463C234.987 366.686 241.718 363.883 241.204 362.303C240.691 360.723 222.201 355.982 219.12 353.349C216.655 351.242 217.066 340.707 217.066 336.493Z" fill="#2E3642"/>
<path d="M94.0721 350.014C94.0721 350.014 94.6265 342.777 99.0221 335.164C91.5972 333.679 87.1422 332.291 82.6873 329.719C79.2313 327.723 73.2799 329.891 72.9504 333.366C71.5826 347.791 66.4597 346.407 66.4597 353.337C66.4597 364.057 76.4583 366.818 77.9432 366.818C82.8932 366.818 75.4468 357.27 79.9404 353.337C84.4339 349.405 91.1022 349.024 94.0721 350.014Z" fill="#2E3642"/>
<rect x="245.008" y="91" width="33.9914" height="274.764" fill="#68553F"/>
<rect x="262.004" y="91" width="16.9957" height="274.764" fill="#544330"/>
<rect x="241.232" y="110.828" width="9.44205" height="90.6437" fill="#544330"/>
<rect x="206.296" y="118.382" width="7.55364" height="35.8798" transform="rotate(-90 206.296 118.382)" fill="#544330"/>
<path d="M159.086 283.146C152.948 287.867 147.283 290.699 137.369 292.588C135.481 298.253 135.481 308.639 136.425 315.721C139.73 315.721 153.893 311.944 157.197 309.583C159.086 305.334 160.974 289.283 159.086 283.146Z" fill="url(#paint15_linear)"/>
</g>
<defs>
<linearGradient id="paint0_linear" x1="131" y1="48" x2="130.777" y2="235.997" gradientUnits="userSpaceOnUse">
<stop stop-color="#2B485C" stop-opacity="0.06"/>
<stop offset="1" stop-color="#2B485C" stop-opacity="0"/>
</linearGradient>
<linearGradient id="paint1_linear" x1="103" y1="0" x2="102.998" y2="20.2952" gradientUnits="userSpaceOnUse">
<stop stop-color="#2B485C" stop-opacity="0.06"/>
<stop offset="1" stop-color="#2B485C" stop-opacity="0"/>
</linearGradient>
<linearGradient id="paint2_linear" x1="68.5" y1="254" x2="68.2658" y2="326.635" gradientUnits="userSpaceOnUse">
<stop stop-color="#2B485C" stop-opacity="0.06"/>
<stop offset="1" stop-color="#2B485C" stop-opacity="0"/>
</linearGradient>
<linearGradient id="paint3_linear" x1="98.5" y1="254" x2="98.2658" y2="326.635" gradientUnits="userSpaceOnUse">
<stop stop-color="#2B485C" stop-opacity="0.06"/>
<stop offset="1" stop-color="#2B485C" stop-opacity="0"/>
</linearGradient>
<linearGradient id="paint4_linear" x1="128.5" y1="254" x2="128.266" y2="326.635" gradientUnits="userSpaceOnUse">
<stop stop-color="#2B485C" stop-opacity="0.06"/>
<stop offset="1" stop-color="#2B485C" stop-opacity="0"/>
</linearGradient>
<linearGradient id="paint5_linear" x1="158.5" y1="254" x2="158.266" y2="326.635" gradientUnits="userSpaceOnUse">
<stop stop-color="#2B485C" stop-opacity="0.06"/>
<stop offset="1" stop-color="#2B485C" stop-opacity="0"/>
</linearGradient>
<linearGradient id="paint6_linear" x1="188.5" y1="254" x2="188.266" y2="326.635" gradientUnits="userSpaceOnUse">
<stop stop-color="#2B485C" stop-opacity="0.06"/>
<stop offset="1" stop-color="#2B485C" stop-opacity="0"/>
</linearGradient>
<linearGradient id="paint7_linear" x1="218.5" y1="254" x2="218.266" y2="326.635" gradientUnits="userSpaceOnUse">
<stop stop-color="#2B485C" stop-opacity="0.06"/>
<stop offset="1" stop-color="#2B485C" stop-opacity="0"/>
</linearGradient>
<radialGradient id="paint8_radial" cx="0" cy="0" r="1" gradientUnits="userSpaceOnUse" gradientTransform="translate(174.5 319.5) rotate(93.0715) scale(102.647 331.321)">
<stop stop-color="#2B485C" stop-opacity="0.06"/>
<stop offset="1" stop-color="#2B485C" stop-opacity="0"/>
</radialGradient>
<linearGradient id="paint9_linear" x1="146.339" y1="229.326" x2="123.925" y2="252.436" gradientUnits="userSpaceOnUse">
<stop stop-color="#FFB74A"/>
<stop offset="1" stop-color="#F2A93C"/>
</linearGradient>
<linearGradient id="paint10_linear" x1="141.146" y1="279.841" x2="136.227" y2="223.447" gradientUnits="userSpaceOnUse">
<stop stop-color="#4E64D3"/>
<stop offset="1" stop-color="#364AB0"/>
</linearGradient>
<linearGradient id="paint11_linear" x1="163.807" y1="277.952" x2="170.803" y2="310.579" gradientUnits="userSpaceOnUse">
<stop stop-color="#4E64D3"/>
<stop offset="1" stop-color="#364AB0"/>
</linearGradient>
<linearGradient id="paint12_linear" x1="213.378" y1="122.631" x2="201.575" y2="140.098" gradientUnits="userSpaceOnUse">
<stop stop-color="#9E9E9E"/>
<stop offset="1" stop-color="#686868"/>
</linearGradient>
<linearGradient id="paint13_linear" x1="151.048" y1="289.201" x2="118.599" y2="355.502" gradientUnits="userSpaceOnUse">
<stop stop-color="#4E64D3"/>
<stop offset="1" stop-color="#364AB0"/>
</linearGradient>
<linearGradient id="paint14_linear" x1="206.884" y1="176.141" x2="147.716" y2="235.143" gradientUnits="userSpaceOnUse">
<stop stop-color="#FFB74A"/>
<stop offset="1" stop-color="#F2A93C"/>
</linearGradient>
<linearGradient id="paint15_linear" x1="135.481" y1="284.09" x2="150.985" y2="311.942" gradientUnits="userSpaceOnUse">
<stop stop-color="#4A5EC8"/>
<stop offset="1" stop-color="#3144A5"/>
</linearGradient>
</defs>
</svg>
